<?xml version="1.0" encoding="utf-8" ?>
<svg xmlns="http://www.w3.org/2000/svg" xmlns:xlink="http://www.w3.org/1999/xlink" width="1000" height="600">
	<rect fill="white" width="1000" height="600"/>
	<path fill="none" stroke="black" stroke-width="1" stroke-miterlimit="10" stroke-opacity="0.10196079" d="M78.5 34.400002L78.5 549"/>
	<path fill="none" stroke="black" stroke-width="1" stroke-miterlimit="10" stroke-opacity="0.10196079" d="M78.5 550L78.5 557.20001"/>
	<path fill="none" stroke="black" stroke-width="1" stroke-miterlimit="10" stroke-opacity="0.10196079" d="M308.5 34.400002L308.5 549"/>
	<path fill="none" stroke="black" stroke-width="1" stroke-miterlimit="10" stroke-opacity="0.10196079" d="M308.5 550L308.5 557.20001"/>
	<path fill="none" stroke="black" stroke-width="1" stroke-miterlimit="10" stroke-opacity="0.10196079" d="M539.5 34.400002L539.5 549"/>
	<path fill="none" stroke="black" stroke-width="1" stroke-miterlimit="10" stroke-opacity="0.10196079" d="M539.5 550L539.5 557.20001"/>
	<path fill="none" stroke="black" stroke-width="1" stroke-miterlimit="10" stroke-opacity="0.10196079" d="M769.5 34.400002L769.5 549"/>
	<path fill="none" stroke="black" stroke-width="1" stroke-miterlimit="10" stroke-opacity="0.10196079" d="M769.5 550L769.5 557.20001"/>
	<path fill="none" stroke="black" stroke-width="1" stroke-miterlimit="10" stroke-opacity="0.10196079" d="M1000.5 34.400002L1000.5 549"/>
	<path fill="none" stroke="black" stroke-width="1" stroke-miterlimit="10" stroke-opacity="0.10196079" d="M1000.5 550L1000.5 557.20001"/>
	<path fill="#666" transform="translate(539.195 588.8)" d="M-4.1077271 -3.9296875Q-5.3967896 -3.9296875 -6.1555786 -2.96875Q-6.9143677 -2.0078125 -6.9143677 -0.34960938Q-6.9143677 1.3027344 -6.1555786 2.2636719Q-5.3967896 3.2246094 -4.1077271 3.2246094Q-2.8186646 3.2246094 -2.0657349 2.2636719Q-1.3128052 1.3027344 -1.3128052 -0.34960938Q-1.3128052 -2.0078125 -2.0657349 -2.96875Q-2.8186646 -3.9296875 -4.1077271 -3.9296875ZM-4.1077271 -4.890625Q-2.2678833 -4.890625 -1.1663208 -3.6572266Q-0.064758301 -2.4238281 -0.064758301 -0.34960938Q-0.064758301 1.71875 -1.1663208 2.9521484Q-2.2678833 4.1855469 -4.1077271 4.1855469Q-5.9534302 4.1855469 -7.0579224 2.9550781Q-8.1624146 1.7246094 -8.1624146 -0.34960938Q-8.1624146 -2.4238281 -7.0579224 -3.6572266Q-5.9534302 -4.890625 -4.1077271 -4.890625ZM7.0309448 -4.4453125L7.0309448 -3.2910156Q6.3571167 -3.6132812 5.7594604 -3.7714844Q5.1618042 -3.9296875 4.6051636 -3.9296875Q3.6383667 -3.9296875 3.1139526 -3.5546875Q2.5895386 -3.1796875 2.5895386 -2.4882812Q2.5895386 -1.9082031 2.9381714 -1.6123047Q3.2868042 -1.3164062 4.2594604 -1.1347656L4.9743042 -0.98828125Q6.2985229 -0.73632812 6.9284058 -0.10058594Q7.5582886 0.53515625 7.5582886 1.6015625Q7.5582886 2.8730469 6.7057495 3.5292969Q5.8532104 4.1855469 4.2067261 4.1855469Q3.5856323 4.1855469 2.885437 4.0449219Q2.1852417 3.9042969 1.4352417 3.6289062L1.4352417 2.4101562Q2.1559448 2.8144531 2.8473511 3.0195312Q3.5387573 3.2246094 4.2067261 3.2246094Q5.2203979 3.2246094 5.7711792 2.8261719Q6.3219604 2.4277344 6.3219604 1.6894531Q6.3219604 1.0449219 5.9264526 0.68164062Q5.5309448 0.31835938 4.6286011 0.13671875L3.9078979 -0.00390625Q2.5836792 -0.26757812 1.9918823 -0.83007812Q1.4000854 -1.3925781 1.4000854 -2.3945312Q1.4000854 -3.5546875 2.2174683 -4.2226562Q3.0348511 -4.890625 4.4703979 -4.890625Q5.0856323 -4.890625 5.7243042 -4.7792969Q6.3629761 -4.6679688 7.0309448 -4.4453125Z"/>
	<path fill="none" stroke="black" stroke-width="1" stroke-miterlimit="10" stroke-opacity="0.10196079" d="M79 549.5L1000 549.5"/>
	<path fill="none" stroke="black" stroke-width="1" stroke-miterlimit="10" stroke-opacity="0.10196079" d="M70.389999 549.5L78 549.5"/>
	<path fill="none" stroke="black" stroke-width="1" stroke-miterlimit="10" stroke-opacity="0.10196079" d="M79 497.5L1000 497.5"/>
	<path fill="none" stroke="black" stroke-width="1" stroke-miterlimit="10" stroke-opacity="0.10196079" d="M70.389999 497.5L78 497.5"/>
	<path fill="none" stroke="black" stroke-width="1" stroke-miterlimit="10" stroke-opacity="0.10196079" d="M79 446.5L1000 446.5"/>
	<path fill="none" stroke="black" stroke-width="1" stroke-miterlimit="10" stroke-opacity="0.10196079" d="M70.389999 446.5L78 446.5"/>
	<path fill="none" stroke="black" stroke-width="1" stroke-miterlimit="10" stroke-opacity="0.10196079" d="M79 394.5L1000 394.5"/>
	<path fill="none" stroke="black" stroke-width="1" stroke-miterlimit="10" stroke-opacity="0.10196079" d="M70.389999 394.5L78 394.5"/>
	<path fill="none" stroke="black" stroke-width="1" stroke-miterlimit="10" stroke-opacity="0.10196079" d="M79 343.5L1000 343.5"/>
	<path fill="none" stroke="black" stroke-width="1" stroke-miterlimit="10" stroke-opacity="0.10196079" d="M70.389999 343.5L78 343.5"/>
	<path fill="none" stroke="black" stroke-width="1" stroke-miterlimit="10" stroke-opacity="0.10196079" d="M79 291.5L1000 291.5"/>
	<path fill="none" stroke="black" stroke-width="1" stroke-miterlimit="10" stroke-opacity="0.10196079" d="M70.389999 291.5L78 291.5"/>
	<path fill="none" stroke="black" stroke-width="1" stroke-miterlimit="10" stroke-opacity="0.10196079" d="M79 240.5L1000 240.5"/>
	<path fill="none" stroke="black" stroke-width="1" stroke-miterlimit="10" stroke-opacity="0.10196079" d="M70.389999 240.5L78 240.5"/>
	<path fill="none" stroke="black" stroke-width="1" stroke-miterlimit="10" stroke-opacity="0.10196079" d="M79 188.5L1000 188.5"/>
	<path fill="none" stroke="black" stroke-width="1" stroke-miterlimit="10" stroke-opacity="0.10196079" d="M70.389999 188.5L78 188.5"/>
	<path fill="none" stroke="black" stroke-width="1" stroke-miterlimit="10" stroke-opacity="0.10196079" d="M79 137.5L1000 137.5"/>
	<path fill="none" stroke="black" stroke-width="1" stroke-miterlimit="10" stroke-opacity="0.10196079" d="M70.389999 137.5L78 137.5"/>
	<path fill="none" stroke="black" stroke-width="1" stroke-miterlimit="10" stroke-opacity="0.10196079" d="M79 85.5L1000 85.5"/>
	<path fill="none" stroke="black" stroke-width="1" stroke-miterlimit="10" stroke-opacity="0.10196079" d="M70.389999 85.5L78 85.5"/>
	<path fill="none" stroke="black" stroke-width="1" stroke-miterlimit="10" stroke-opacity="0.10196079" d="M79 34.5L1000 34.5"/>
	<path fill="none" stroke="black" stroke-width="1" stroke-miterlimit="10" stroke-opacity="0.10196079" d="M70.389999 34.5L78 34.5"/>
	<path fill="#666" transform="matrix(0 -1 1 0 11.2 291.8)" d="M-30.587891 -3.7597656L-30.587891 3.0429688L-29.158203 3.0429688Q-27.347656 3.0429688 -26.506836 2.2226562Q-25.666016 1.4023438 -25.666016 -0.3671875Q-25.666016 -2.125 -26.506836 -2.9423828Q-27.347656 -3.7597656 -29.158203 -3.7597656L-30.587891 -3.7597656ZM-31.771484 -4.7324219L-29.339844 -4.7324219Q-26.796875 -4.7324219 -25.607422 -3.6748047Q-24.417969 -2.6171875 -24.417969 -0.3671875Q-24.417969 1.8945312 -25.613281 2.9550781Q-26.808594 4.015625 -29.339844 4.015625L-31.771484 4.015625L-31.771484 -4.7324219ZM-20.035156 -1.7910156Q-20.902344 -1.7910156 -21.40625 -1.1142578Q-21.910156 -0.4375 -21.910156 0.74023438Q-21.910156 1.9179688 -21.40918 2.5947266Q-20.908203 3.2714844 -20.035156 3.2714844Q-19.173828 3.2714844 -18.669922 2.5917969Q-18.166016 1.9121094 -18.166016 0.74023438Q-18.166016 -0.42578125 -18.669922 -1.1083984Q-19.173828 -1.7910156 -20.035156 -1.7910156ZM-20.035156 -2.7050781Q-18.628906 -2.7050781 -17.826172 -1.7910156Q-17.023438 -0.87695312 -17.023438 0.74023438Q-17.023438 2.3515625 -17.826172 3.2685547Q-18.628906 4.1855469 -20.035156 4.1855469Q-21.447266 4.1855469 -22.24707 3.2685547Q-23.046875 2.3515625 -23.046875 0.74023438Q-23.046875 -0.87695312 -22.24707 -1.7910156Q-21.447266 -2.7050781 -20.035156 -2.7050781ZM-15.863281 -2.546875L-14.785156 -2.546875L-13.4375 2.5742188L-12.095703 -2.546875L-10.824219 -2.546875L-9.4765625 2.5742188L-8.1347656 -2.546875L-7.0566406 -2.546875L-8.7734375 4.015625L-10.044922 4.015625L-11.457031 -1.3632812L-12.875 4.015625L-14.146484 4.015625L-15.863281 -2.546875ZM0.033203125 0.0546875L0.033203125 4.015625L-1.0449219 4.015625L-1.0449219 0.08984375Q-1.0449219 -0.84179688 -1.4082031 -1.3046875Q-1.7714844 -1.7675781 -2.4980469 -1.7675781Q-3.3710938 -1.7675781 -3.875 -1.2109375Q-4.3789062 -0.65429688 -4.3789062 0.30664062L-4.3789062 4.015625L-5.4628906 4.015625L-5.4628906 -2.546875L-4.3789062 -2.546875L-4.3789062 -1.5273438Q-3.9921875 -2.1191406 -3.4677734 -2.4121094Q-2.9433594 -2.7050781 -2.2578125 -2.7050781Q-1.1269531 -2.7050781 -0.546875 -2.0048828Q0.033203125 -1.3046875 0.033203125 0.0546875ZM2.1835938 -5.1015625L3.2617188 -5.1015625L3.2617188 4.015625L2.1835938 4.015625L2.1835938 -5.1015625ZM8.0605469 -1.7910156Q7.1933594 -1.7910156 6.6894531 -1.1142578Q6.1855469 -0.4375 6.1855469 0.74023438Q6.1855469 1.9179688 6.6865234 2.5947266Q7.1875 3.2714844 8.0605469 3.2714844Q8.921875 3.2714844 9.4257812 2.5917969Q9.9296875 1.9121094 9.9296875 0.74023438Q9.9296875 -0.42578125 9.4257812 -1.1083984Q8.921875 -1.7910156 8.0605469 -1.7910156ZM8.0605469 -2.7050781Q9.4667969 -2.7050781 10.269531 -1.7910156Q11.072266 -0.87695312 11.072266 0.74023438Q11.072266 2.3515625 10.269531 3.2685547Q9.4667969 4.1855469 8.0605469 4.1855469Q6.6484375 4.1855469 5.8486328 3.2685547Q5.0488281 2.3515625 5.0488281 0.74023438Q5.0488281 -0.87695312 5.8486328 -1.7910156Q6.6484375 -2.7050781 8.0605469 -2.7050781ZM15.841797 0.71679688Q14.535156 0.71679688 14.03125 1.015625Q13.527344 1.3144531 13.527344 2.0351562Q13.527344 2.609375 13.905273 2.9462891Q14.283203 3.2832031 14.933594 3.2832031Q15.830078 3.2832031 16.37207 2.6474609Q16.914062 2.0117188 16.914062 0.95703125L16.914062 0.71679688L15.841797 0.71679688ZM17.992188 0.27148438L17.992188 4.015625L16.914062 4.015625L16.914062 3.0195312Q16.544922 3.6171875 15.994141 3.9013672Q15.443359 4.1855469 14.646484 4.1855469Q13.638672 4.1855469 13.043945 3.6201172Q12.449219 3.0546875 12.449219 2.1054688Q12.449219 0.99804688 13.19043 0.43554688Q13.931641 -0.12695312 15.402344 -0.12695312L16.914062 -0.12695312L16.914062 -0.23242188Q16.914062 -0.9765625 16.424805 -1.3837891Q15.935547 -1.7910156 15.050781 -1.7910156Q14.488281 -1.7910156 13.955078 -1.65625Q13.421875 -1.5214844 12.929688 -1.2519531L12.929688 -2.2480469Q13.521484 -2.4765625 14.078125 -2.5908203Q14.634766 -2.7050781 15.162109 -2.7050781Q16.585938 -2.7050781 17.289062 -1.9667969Q17.992188 -1.2285156 17.992188 0.27148438ZM24.53125 -1.5507812L24.53125 -5.1015625L25.609375 -5.1015625L25.609375 4.015625L24.53125 4.015625L24.53125 3.03125Q24.191406 3.6171875 23.672852 3.9013672Q23.154297 4.1855469 22.427734 4.1855469Q21.238281 4.1855469 20.491211 3.2363281Q19.744141 2.2871094 19.744141 0.74023438Q19.744141 -0.80664062 20.491211 -1.7558594Q21.238281 -2.7050781 22.427734 -2.7050781Q23.154297 -2.7050781 23.672852 -2.4208984Q24.191406 -2.1367188 24.53125 -1.5507812ZM20.857422 0.74023438Q20.857422 1.9296875 21.34668 2.6064453Q21.835938 3.2832031 22.691406 3.2832031Q23.546875 3.2832031 24.039062 2.6064453Q24.53125 1.9296875 24.53125 0.74023438Q24.53125 -0.44921875 24.039062 -1.1259766Q23.546875 -1.8027344 22.691406 -1.8027344Q21.835938 -1.8027344 21.34668 -1.1259766Q20.857422 -0.44921875 20.857422 0.74023438ZM32.013672 -2.3535156L32.013672 -1.3339844Q31.556641 -1.5683594 31.064453 -1.6855469Q30.572266 -1.8027344 30.044922 -1.8027344Q29.242188 -1.8027344 28.84082 -1.5566406Q28.439453 -1.3105469 28.439453 -0.81835938Q28.439453 -0.44335938 28.726562 -0.22949219Q29.013672 -0.015625 29.880859 0.17773438L30.25 0.25976562Q31.398438 0.50585938 31.881836 0.95410156Q32.365234 1.4023438 32.365234 2.2050781Q32.365234 3.1191406 31.641602 3.6523438Q30.917969 4.1855469 29.652344 4.1855469Q29.125 4.1855469 28.553711 4.0830078Q27.982422 3.9804688 27.349609 3.7753906L27.349609 2.6621094Q27.947266 2.9726562 28.527344 3.1279297Q29.107422 3.2832031 29.675781 3.2832031Q30.4375 3.2832031 30.847656 3.0224609Q31.257812 2.7617188 31.257812 2.2871094Q31.257812 1.8476562 30.961914 1.6132812Q30.666016 1.3789062 29.664062 1.1621094L29.289062 1.0742188Q28.287109 0.86328125 27.841797 0.42675781Q27.396484 -0.009765625 27.396484 -0.77148438Q27.396484 -1.6972656 28.052734 -2.2011719Q28.708984 -2.7050781 29.916016 -2.7050781Q30.513672 -2.7050781 31.041016 -2.6171875Q31.568359 -2.5292969 32.013672 -2.3535156Z"/>
	<path fill="#666" transform="translate(500 17.2)" d="M-106.96875 -2.3417969L-106.96875 -0.74804688Q-107.64258 -1.0292969 -108.26953 -1.1699219Q-108.89648 -1.3105469 -109.45312 -1.3105469Q-110.05078 -1.3105469 -110.34082 -1.1611328Q-110.63086 -1.0117188 -110.63086 -0.70117188Q-110.63086 -0.44921875 -110.41113 -0.31445312Q-110.19141 -0.1796875 -109.62305 -0.11523438L-109.25391 -0.0625Q-107.64258 0.14257812 -107.08594 0.61132812Q-106.5293 1.0800781 -106.5293 2.0820312Q-106.5293 3.1308594 -107.30273 3.6582031Q-108.07617 4.1855469 -109.61133 4.1855469Q-110.26172 4.1855469 -110.95605 4.0830078Q-111.65039 3.9804688 -112.38281 3.7753906L-112.38281 2.1816406Q-111.75586 2.4863281 -111.09668 2.6386719Q-110.4375 2.7910156 -109.75781 2.7910156Q-109.14258 2.7910156 -108.83203 2.6210938Q-108.52148 2.4511719 -108.52148 2.1171875Q-108.52148 1.8359375 -108.73535 1.6982422Q-108.94922 1.5605469 -109.58789 1.484375L-109.95703 1.4375Q-111.35742 1.2617188 -111.91992 0.78710938Q-112.48242 0.3125 -112.48242 -0.65429688Q-112.48242 -1.6972656 -111.76758 -2.2011719Q-111.05273 -2.7050781 -109.57617 -2.7050781Q-108.99609 -2.7050781 -108.35742 -2.6171875Q-107.71875 -2.5292969 -106.96875 -2.3417969ZM-102.01172 1.0625Q-102.66797 1.0625 -102.99902 1.2851562Q-103.33008 1.5078125 -103.33008 1.9414062Q-103.33008 2.3398438 -103.06348 2.5654297Q-102.79688 2.7910156 -102.32227 2.7910156Q-101.73047 2.7910156 -101.32617 2.3662109Q-100.92188 1.9414062 -100.92188 1.3027344L-100.92188 1.0625L-102.01172 1.0625ZM-98.806641 0.27148438L-98.806641 4.015625L-100.92188 4.015625L-100.92188 3.0429688Q-101.34375 3.640625 -101.87109 3.9130859Q-102.39844 4.1855469 -103.1543 4.1855469Q-104.17383 4.1855469 -104.80957 3.5908203Q-105.44531 2.9960938 -105.44531 2.046875Q-105.44531 0.89257812 -104.65137 0.35351562Q-103.85742 -0.18554688 -102.1582 -0.18554688L-100.92188 -0.18554688L-100.92188 -0.34960938Q-100.92188 -0.84765625 -101.31445 -1.0791016Q-101.70703 -1.3105469 -102.53906 -1.3105469Q-103.21289 -1.3105469 -103.79297 -1.1757812Q-104.37305 -1.0410156 -104.87109 -0.77148438L-104.87109 -2.3710938Q-104.19727 -2.5351562 -103.51758 -2.6201172Q-102.83789 -2.7050781 -102.1582 -2.7050781Q-100.38281 -2.7050781 -99.594727 -2.0048828Q-98.806641 -1.3046875 -98.806641 0.27148438ZM-96.855469 -2.546875L-94.757812 -2.546875L-94.757812 4.015625L-96.855469 4.015625L-96.855469 -2.546875ZM-96.855469 -5.1015625L-94.757812 -5.1015625L-94.757812 -3.390625L-96.855469 -3.390625L-96.855469 -5.1015625ZM-92.742188 -5.1015625L-90.644531 -5.1015625L-90.644531 4.015625L-92.742188 4.015625L-92.742188 -5.1015625ZM-86.53125 3.0664062L-86.53125 6.5117188L-88.628906 6.5117188L-88.628906 -2.546875L-86.53125 -2.546875L-86.53125 -1.5859375Q-86.097656 -2.1601562 -85.570312 -2.4326172Q-85.042969 -2.7050781 -84.357422 -2.7050781Q-83.144531 -2.7050781 -82.365234 -1.7412109Q-81.585938 -0.77734375 -81.585938 0.74023438Q-81.585938 2.2578125 -82.365234 3.2216797Q-83.144531 4.1855469 -84.357422 4.1855469Q-85.042969 4.1855469 -85.570312 3.9130859Q-86.097656 3.640625 -86.53125 3.0664062ZM-85.136719 -1.1816406Q-85.810547 -1.1816406 -86.170898 -0.68652344Q-86.53125 -0.19140625 -86.53125 0.74023438Q-86.53125 1.671875 -86.170898 2.1669922Q-85.810547 2.6621094 -85.136719 2.6621094Q-84.462891 2.6621094 -84.108398 2.1699219Q-83.753906 1.6777344 -83.753906 0.74023438Q-83.753906 -0.19726562 -84.108398 -0.68945312Q-84.462891 -1.1816406 -85.136719 -1.1816406ZM-76.916016 -1.2050781Q-77.613281 -1.2050781 -77.979492 -0.70410156Q-78.345703 -0.203125 -78.345703 0.74023438Q-78.345703 1.6835938 -77.979492 2.1845703Q-77.613281 2.6855469 -76.916016 2.6855469Q-76.230469 2.6855469 -75.867188 2.1845703Q-75.503906 1.6835938 -75.503906 0.74023438Q-75.503906 -0.203125 -75.867188 -0.70410156Q-76.230469 -1.2050781 -76.916016 -1.2050781ZM-76.916016 -2.7050781Q-75.222656 -2.7050781 -74.270508 -1.7910156Q-73.318359 -0.87695312 -73.318359 0.74023438Q-73.318359 2.3574219 -74.270508 3.2714844Q-75.222656 4.1855469 -76.916016 4.1855469Q-78.615234 4.1855469 -79.573242 3.2714844Q-80.53125 2.3574219 -80.53125 0.74023438Q-80.53125 -0.87695312 -79.573242 -1.7910156Q-78.615234 -2.7050781 -76.916016 -2.7050781ZM-71.794922 -2.546875L-69.697266 -2.546875L-69.697266 4.015625L-71.794922 4.015625L-71.794922 -2.546875ZM-71.794922 -5.1015625L-69.697266 -5.1015625L-69.697266 -3.390625L-71.794922 -3.390625L-71.794922 -5.1015625ZM-61.083984 0.01953125L-61.083984 4.015625L-63.193359 4.015625L-63.193359 3.3652344L-63.193359 0.95703125Q-63.193359 0.10742188 -63.231445 -0.21484375Q-63.269531 -0.53710938 -63.363281 -0.68945312Q-63.486328 -0.89453125 -63.697266 -1.0087891Q-63.908203 -1.1230469 -64.177734 -1.1230469Q-64.833984 -1.1230469 -65.208984 -0.61621094Q-65.583984 -0.109375 -65.583984 0.78710938L-65.583984 4.015625L-67.681641 4.015625L-67.681641 -2.546875L-65.583984 -2.546875L-65.583984 -1.5859375Q-65.109375 -2.1601562 -64.576172 -2.4326172Q-64.042969 -2.7050781 -63.398438 -2.7050781Q-62.261719 -2.7050781 -61.672852 -2.0078125Q-61.083984 -1.3105469 -61.083984 0.01953125ZM-56.847656 -4.4101562L-56.847656 -2.546875L-54.685547 -2.546875L-54.685547 -1.046875L-56.847656 -1.046875L-56.847656 1.7363281Q-56.847656 2.1933594 -56.666016 2.3544922Q-56.484375 2.515625 -55.945312 2.515625L-54.867188 2.515625L-54.867188 4.015625L-56.666016 4.015625Q-57.908203 4.015625 -58.426758 3.4970703Q-58.945312 2.9785156 -58.945312 1.7363281L-58.945312 -1.046875L-59.988281 -1.046875L-59.988281 -2.546875L-58.945312 -2.546875L-58.945312 -4.4101562L-56.847656 -4.4101562ZM-44.759766 -1.5859375L-44.759766 -5.1015625L-42.650391 -5.1015625L-42.650391 4.015625L-44.759766 4.015625L-44.759766 3.0664062Q-45.193359 3.6464844 -45.714844 3.9160156Q-46.236328 4.1855469 -46.921875 4.1855469Q-48.134766 4.1855469 -48.914062 3.2216797Q-49.693359 2.2578125 -49.693359 0.74023438Q-49.693359 -0.77734375 -48.914062 -1.7412109Q-48.134766 -2.7050781 -46.921875 -2.7050781Q-46.242188 -2.7050781 -45.717773 -2.4326172Q-45.193359 -2.1601562 -44.759766 -1.5859375ZM-46.142578 2.6621094Q-45.46875 2.6621094 -45.114258 2.1699219Q-44.759766 1.6777344 -44.759766 0.74023438Q-44.759766 -0.19726562 -45.114258 -0.68945312Q-45.46875 -1.1816406 -46.142578 -1.1816406Q-46.810547 -1.1816406 -47.165039 -0.68945312Q-47.519531 -0.19726562 -47.519531 0.74023438Q-47.519531 1.6777344 -47.165039 2.1699219Q-46.810547 2.6621094 -46.142578 2.6621094ZM-37.511719 -1.2050781Q-38.208984 -1.2050781 -38.575195 -0.70410156Q-38.941406 -0.203125 -38.941406 0.74023438Q-38.941406 1.6835938 -38.575195 2.1845703Q-38.208984 2.6855469 -37.511719 2.6855469Q-36.826172 2.6855469 -36.462891 2.1845703Q-36.099609 1.6835938 -36.099609 0.74023438Q-36.099609 -0.203125 -36.462891 -0.70410156Q-36.826172 -1.2050781 -37.511719 -1.2050781ZM-37.511719 -2.7050781Q-35.818359 -2.7050781 -34.866211 -1.7910156Q-33.914062 -0.87695312 -33.914062 0.74023438Q-33.914062 2.3574219 -34.866211 3.2714844Q-35.818359 4.1855469 -37.511719 4.1855469Q-39.210938 4.1855469 -40.168945 3.2714844Q-41.126953 2.3574219 -41.126953 0.74023438Q-41.126953 -0.87695312 -40.168945 -1.7910156Q-39.210938 -2.7050781 -37.511719 -2.7050781ZM-32.976562 -2.546875L-30.9375 -2.546875L-29.835938 1.9765625L-28.728516 -2.546875L-26.976562 -2.546875L-25.875 1.9296875L-24.767578 -2.546875L-22.728516 -2.546875L-24.457031 4.015625L-26.748047 4.015625L-27.855469 -0.49609375L-28.957031 4.015625L-31.248047 4.015625L-32.976562 -2.546875ZM-14.707031 0.01953125L-14.707031 4.015625L-16.816406 4.015625L-16.816406 3.3652344L-16.816406 0.95703125Q-16.816406 0.10742188 -16.854492 -0.21484375Q-16.892578 -0.53710938 -16.986328 -0.68945312Q-17.109375 -0.89453125 -17.320312 -1.0087891Q-17.53125 -1.1230469 -17.800781 -1.1230469Q-18.457031 -1.1230469 -18.832031 -0.61621094Q-19.207031 -0.109375 -19.207031 0.78710938L-19.207031 4.015625L-21.304688 4.015625L-21.304688 -2.546875L-19.207031 -2.546875L-19.207031 -1.5859375Q-18.732422 -2.1601562 -18.199219 -2.4326172Q-17.666016 -2.7050781 -17.021484 -2.7050781Q-15.884766 -2.7050781 -15.295898 -2.0078125Q-14.707031 -1.3105469 -14.707031 0.01953125ZM-12.761719 -5.1015625L-10.664062 -5.1015625L-10.664062 4.015625L-12.761719 4.015625L-12.761719 -5.1015625ZM-5.5253906 -1.2050781Q-6.2226562 -1.2050781 -6.5888672 -0.70410156Q-6.9550781 -0.203125 -6.9550781 0.74023438Q-6.9550781 1.6835938 -6.5888672 2.1845703Q-6.2226562 2.6855469 -5.5253906 2.6855469Q-4.8398438 2.6855469 -4.4765625 2.1845703Q-4.1132812 1.6835938 -4.1132812 0.74023438Q-4.1132812 -0.203125 -4.4765625 -0.70410156Q-4.8398438 -1.2050781 -5.5253906 -1.2050781ZM-5.5253906 -2.7050781Q-3.8320312 -2.7050781 -2.8798828 -1.7910156Q-1.9277344 -0.87695312 -1.9277344 0.74023438Q-1.9277344 2.3574219 -2.8798828 3.2714844Q-3.8320312 4.1855469 -5.5253906 4.1855469Q-7.2246094 4.1855469 -8.1826172 3.2714844Q-9.140625 2.3574219 -9.140625 0.74023438Q-9.140625 -0.87695312 -8.1826172 -1.7910156Q-7.2246094 -2.7050781 -5.5253906 -2.7050781ZM2.5371094 1.0625Q1.8808594 1.0625 1.5498047 1.2851562Q1.21875 1.5078125 1.21875 1.9414062Q1.21875 2.3398438 1.4853516 2.5654297Q1.7519531 2.7910156 2.2265625 2.7910156Q2.8183594 2.7910156 3.2226562 2.3662109Q3.6269531 1.9414062 3.6269531 1.3027344L3.6269531 1.0625L2.5371094 1.0625ZM5.7421875 0.27148438L5.7421875 4.015625L3.6269531 4.015625L3.6269531 3.0429688Q3.2050781 3.640625 2.6777344 3.9130859Q2.1503906 4.1855469 1.3945312 4.1855469Q0.375 4.1855469 -0.26074219 3.5908203Q-0.89648438 2.9960938 -0.89648438 2.046875Q-0.89648438 0.89257812 -0.10253906 0.35351562Q0.69140625 -0.18554688 2.390625 -0.18554688L3.6269531 -0.18554688L3.6269531 -0.34960938Q3.6269531 -0.84765625 3.234375 -1.0791016Q2.8417969 -1.3105469 2.0097656 -1.3105469Q1.3359375 -1.3105469 0.75585938 -1.1757812Q0.17578125 -1.0410156 -0.32226562 -0.77148438L-0.32226562 -2.3710938Q0.3515625 -2.5351562 1.03125 -2.6201172Q1.7109375 -2.7050781 2.390625 -2.7050781Q4.1660156 -2.7050781 4.9541016 -2.0048828Q5.7421875 -1.3046875 5.7421875 0.27148438ZM12.158203 -1.5859375L12.158203 -5.1015625L14.267578 -5.1015625L14.267578 4.015625L12.158203 4.015625L12.158203 3.0664062Q11.724609 3.6464844 11.203125 3.9160156Q10.681641 4.1855469 9.9960938 4.1855469Q8.7832031 4.1855469 8.0039062 3.2216797Q7.2246094 2.2578125 7.2246094 0.74023438Q7.2246094 -0.77734375 8.0039062 -1.7412109Q8.7832031 -2.7050781 9.9960938 -2.7050781Q10.675781 -2.7050781 11.200195 -2.4326172Q11.724609 -2.1601562 12.158203 -1.5859375ZM10.775391 2.6621094Q11.449219 2.6621094 11.803711 2.1699219Q12.158203 1.6777344 12.158203 0.74023438Q12.158203 -0.19726562 11.803711 -0.68945312Q11.449219 -1.1816406 10.775391 -1.1816406Q10.107422 -1.1816406 9.7529297 -0.68945312Q9.3984375 -0.19726562 9.3984375 0.74023438Q9.3984375 1.6777344 9.7529297 2.1699219Q10.107422 2.6621094 10.775391 2.6621094ZM21.410156 -2.3417969L21.410156 -0.74804688Q20.736328 -1.0292969 20.109375 -1.1699219Q19.482422 -1.3105469 18.925781 -1.3105469Q18.328125 -1.3105469 18.038086 -1.1611328Q17.748047 -1.0117188 17.748047 -0.70117188Q17.748047 -0.44921875 17.967773 -0.31445312Q18.1875 -0.1796875 18.755859 -0.11523438L19.125 -0.0625Q20.736328 0.14257812 21.292969 0.61132812Q21.849609 1.0800781 21.849609 2.0820312Q21.849609 3.1308594 21.076172 3.6582031Q20.302734 4.1855469 18.767578 4.1855469Q18.117188 4.1855469 17.422852 4.0830078Q16.728516 3.9804688 15.996094 3.7753906L15.996094 2.1816406Q16.623047 2.4863281 17.282227 2.6386719Q17.941406 2.7910156 18.621094 2.7910156Q19.236328 2.7910156 19.546875 2.6210938Q19.857422 2.4511719 19.857422 2.1171875Q19.857422 1.8359375 19.643555 1.6982422Q19.429688 1.5605469 18.791016 1.484375L18.421875 1.4375Q17.021484 1.2617188 16.458984 0.78710938Q15.896484 0.3125 15.896484 -0.65429688Q15.896484 -1.6972656 16.611328 -2.2011719Q17.326172 -2.7050781 18.802734 -2.7050781Q19.382812 -2.7050781 20.021484 -2.6171875Q20.660156 -2.5292969 21.410156 -2.3417969ZM31.095703 2.6621094Q31.769531 2.6621094 32.124023 2.1699219Q32.478516 1.6777344 32.478516 0.74023438Q32.478516 -0.19726562 32.124023 -0.68945312Q31.769531 -1.1816406 31.095703 -1.1816406Q30.421875 -1.1816406 30.061523 -0.68652344Q29.701172 -0.19140625 29.701172 0.74023438Q29.701172 1.671875 30.061523 2.1669922Q30.421875 2.6621094 31.095703 2.6621094ZM29.701172 -1.5859375Q30.134766 -2.1601562 30.662109 -2.4326172Q31.189453 -2.7050781 31.875 -2.7050781Q33.087891 -2.7050781 33.867188 -1.7412109Q34.646484 -0.77734375 34.646484 0.74023438Q34.646484 2.2578125 33.867188 3.2216797Q33.087891 4.1855469 31.875 4.1855469Q31.189453 4.1855469 30.662109 3.9130859Q30.134766 3.640625 29.701172 3.0664062L29.701172 4.015625L27.603516 4.015625L27.603516 -5.1015625L29.701172 -5.1015625L29.701172 -1.5859375ZM35.332031 -2.546875L37.429688 -2.546875L39.193359 1.90625L40.693359 -2.546875L42.791016 -2.546875L40.03125 4.6367188Q39.615234 5.7324219 39.061523 6.1689453Q38.507812 6.6054688 37.599609 6.6054688L36.386719 6.6054688L36.386719 5.2285156L37.042969 5.2285156Q37.576172 5.2285156 37.819336 5.0585938Q38.0625 4.8886719 38.197266 4.4492188L38.255859 4.2675781L35.332031 -2.546875ZM52.283203 -3.2558594Q51.251953 -3.2558594 50.683594 -2.4941406Q50.115234 -1.7324219 50.115234 -0.34960938Q50.115234 1.0273438 50.683594 1.7890625Q51.251953 2.5507812 52.283203 2.5507812Q53.320312 2.5507812 53.888672 1.7890625Q54.457031 1.0273438 54.457031 -0.34960938Q54.457031 -1.7324219 53.888672 -2.4941406Q53.320312 -3.2558594 52.283203 -3.2558594ZM52.283203 -4.890625Q54.392578 -4.890625 55.587891 -3.6835938Q56.783203 -2.4765625 56.783203 -0.34960938Q56.783203 1.7714844 55.587891 2.9785156Q54.392578 4.1855469 52.283203 4.1855469Q50.179688 4.1855469 48.981445 2.9785156Q47.783203 1.7714844 47.783203 -0.34960938Q47.783203 -2.4765625 48.981445 -3.6835938Q50.179688 -4.890625 52.283203 -4.890625ZM64.576172 -4.4570312L64.576172 -2.6054688Q63.855469 -2.9277344 63.169922 -3.0917969Q62.484375 -3.2558594 61.875 -3.2558594Q61.066406 -3.2558594 60.679688 -3.0332031Q60.292969 -2.8105469 60.292969 -2.3417969Q60.292969 -1.9902344 60.553711 -1.7939453Q60.814453 -1.5976562 61.5 -1.4570312L62.460938 -1.2636719Q63.919922 -0.97070312 64.535156 -0.37304688Q65.150391 0.22460938 65.150391 1.3261719Q65.150391 2.7734375 64.291992 3.4794922Q63.433594 4.1855469 61.669922 4.1855469Q60.837891 4.1855469 60 4.0273438Q59.162109 3.8691406 58.324219 3.5585938L58.324219 1.6542969Q59.162109 2.0996094 59.944336 2.3251953Q60.726562 2.5507812 61.453125 2.5507812Q62.191406 2.5507812 62.583984 2.3046875Q62.976562 2.0585938 62.976562 1.6015625Q62.976562 1.1914062 62.709961 0.96875Q62.443359 0.74609375 61.646484 0.5703125L60.773438 0.37695312Q59.460938 0.095703125 58.854492 -0.51953125Q58.248047 -1.1347656 58.248047 -2.1777344Q58.248047 -3.484375 59.091797 -4.1875Q59.935547 -4.890625 61.517578 -4.890625Q62.238281 -4.890625 63 -4.7822266Q63.761719 -4.6738281 64.576172 -4.4570312ZM74.730469 5.5976562L72.990234 5.5976562Q72.09375 4.1503906 71.666016 2.8466797Q71.238281 1.5429688 71.238281 0.25976562Q71.238281 -1.0234375 71.668945 -2.3388672Q72.099609 -3.6542969 72.990234 -5.0898438L74.730469 -5.0898438Q73.980469 -3.7011719 73.605469 -2.3740234Q73.230469 -1.046875 73.230469 0.24804688Q73.230469 1.5429688 73.602539 2.8730469Q73.974609 4.203125 74.730469 5.5976562ZM78.990234 -4.4101562L78.990234 -2.546875L81.152344 -2.546875L81.152344 -1.046875L78.990234 -1.046875L78.990234 1.7363281Q78.990234 2.1933594 79.171875 2.3544922Q79.353516 2.515625 79.892578 2.515625L80.970703 2.515625L80.970703 4.015625L79.171875 4.015625Q77.929688 4.015625 77.411133 3.4970703Q76.892578 2.9785156 76.892578 1.7363281L76.892578 -1.046875L75.849609 -1.046875L75.849609 -2.546875L76.892578 -2.546875L76.892578 -4.4101562L78.990234 -4.4101562ZM85.558594 -1.2050781Q84.861328 -1.2050781 84.495117 -0.70410156Q84.128906 -0.203125 84.128906 0.74023438Q84.128906 1.6835938 84.495117 2.1845703Q84.861328 2.6855469 85.558594 2.6855469Q86.244141 2.6855469 86.607422 2.1845703Q86.970703 1.6835938 86.970703 0.74023438Q86.970703 -0.203125 86.607422 -0.70410156Q86.244141 -1.2050781 85.558594 -1.2050781ZM85.558594 -2.7050781Q87.251953 -2.7050781 88.204102 -1.7910156Q89.15625 -0.87695312 89.15625 0.74023438Q89.15625 2.3574219 88.204102 3.2714844Q87.251953 4.1855469 85.558594 4.1855469Q83.859375 4.1855469 82.901367 3.2714844Q81.943359 2.3574219 81.943359 0.74023438Q81.943359 -0.87695312 82.901367 -1.7910156Q83.859375 -2.7050781 85.558594 -2.7050781ZM92.970703 -4.4101562L92.970703 -2.546875L95.132812 -2.546875L95.132812 -1.046875L92.970703 -1.046875L92.970703 1.7363281Q92.970703 2.1933594 93.152344 2.3544922Q93.333984 2.515625 93.873047 2.515625L94.951172 2.515625L94.951172 4.015625L93.152344 4.015625Q91.910156 4.015625 91.391602 3.4970703Q90.873047 2.9785156 90.873047 1.7363281L90.873047 -1.046875L89.830078 -1.046875L89.830078 -2.546875L90.873047 -2.546875L90.873047 -4.4101562L92.970703 -4.4101562ZM99.357422 1.0625Q98.701172 1.0625 98.370117 1.2851562Q98.039062 1.5078125 98.039062 1.9414062Q98.039062 2.3398438 98.305664 2.5654297Q98.572266 2.7910156 99.046875 2.7910156Q99.638672 2.7910156 100.04297 2.3662109Q100.44727 1.9414062 100.44727 1.3027344L100.44727 1.0625L99.357422 1.0625ZM102.5625 0.27148438L102.5625 4.015625L100.44727 4.015625L100.44727 3.0429688Q100.02539 3.640625 99.498047 3.9130859Q98.970703 4.1855469 98.214844 4.1855469Q97.195312 4.1855469 96.55957 3.5908203Q95.923828 2.9960938 95.923828 2.046875Q95.923828 0.89257812 96.717773 0.35351562Q97.511719 -0.18554688 99.210938 -0.18554688L100.44727 -0.18554688L100.44727 -0.34960938Q100.44727 -0.84765625 100.05469 -1.0791016Q99.662109 -1.3105469 98.830078 -1.3105469Q98.15625 -1.3105469 97.576172 -1.1757812Q96.996094 -1.0410156 96.498047 -0.77148438L96.498047 -2.3710938Q97.171875 -2.5351562 97.851562 -2.6201172Q98.53125 -2.7050781 99.210938 -2.7050781Q100.98633 -2.7050781 101.77441 -2.0048828Q102.5625 -1.3046875 102.5625 0.27148438ZM104.51367 -5.1015625L106.61133 -5.1015625L106.61133 4.015625L104.51367 4.015625L104.51367 -5.1015625ZM108.58008 5.5976562Q109.33008 4.203125 109.70508 2.8730469Q110.08008 1.5429688 110.08008 0.24804688Q110.08008 -1.046875 109.70508 -2.3740234Q109.33008 -3.7011719 108.58008 -5.0898438L110.32031 -5.0898438Q111.21094 -3.6542969 111.6416 -2.3388672Q112.07227 -1.0234375 112.07227 0.25976562Q112.07227 1.5429688 111.64453 2.8466797Q111.2168 4.1503906 110.32031 5.5976562L108.58008 5.5976562Z"/>
	<path fill="none" stroke="black" stroke-width="1" stroke-miterlimit="10" stroke-opacity="0.10196079" d="M78 549.5L1001 549.5"/>
	<clipPath id="cl_272">
		<rect y="549.20001" width="1000" height="50.799988"/>
	</clipPath>
	<g clip-path="url(#cl_272)">
		<path fill="#666" transform="translate(193.591 560.2)" d="M-18.779297 3.4402342L-18.779297 10.242969L-17.349609 10.242969Q-15.539062 10.242969 -14.698242 9.4226561Q-13.857422 8.6023436 -13.857422 6.8328123Q-13.857422 5.0749998 -14.698242 4.257617Q-15.539062 3.4402342 -17.349609 3.4402342L-18.779297 3.4402342ZM-19.962891 2.4675779L-17.53125 2.4675779Q-14.988281 2.4675779 -13.798828 3.5251951Q-12.609375 4.5828123 -12.609375 6.8328123Q-12.609375 9.0945311 -13.804688 10.155078Q-15 11.215625 -17.53125 11.215625L-19.962891 11.215625L-19.962891 2.4675779ZM-7.7871094 7.9167967Q-9.09375 7.9167967 -9.5976562 8.2156248Q-10.101562 8.5144529 -10.101562 9.2351561Q-10.101562 9.8093748 -9.7236328 10.146289Q-9.3457031 10.483203 -8.6953125 10.483203Q-7.7988281 10.483203 -7.2568359 9.8474607Q-6.7148438 9.2117186 -6.7148438 8.1570311L-6.7148438 7.9167967L-7.7871094 7.9167967ZM-5.6367188 7.4714842L-5.6367188 11.215625L-6.7148438 11.215625L-6.7148438 10.219531Q-7.0839844 10.817187 -7.6347656 11.101367Q-8.1855469 11.385547 -8.9824219 11.385547Q-9.9902344 11.385547 -10.584961 10.820117Q-11.179688 10.254687 -11.179688 9.3054686Q-11.179688 8.1980467 -10.438477 7.6355467Q-9.6972656 7.0730467 -8.2265625 7.0730467L-6.7148438 7.0730467L-6.7148438 6.9675779Q-6.7148438 6.2234373 -7.2041016 5.8162107Q-7.6933594 5.4089842 -8.578125 5.4089842Q-9.140625 5.4089842 -9.6738281 5.5437498Q-10.207031 5.6785154 -10.699219 5.9480467L-10.699219 4.9519529Q-10.107422 4.7234373 -9.5507812 4.6091795Q-8.9941406 4.4949217 -8.4667969 4.4949217Q-7.0429688 4.4949217 -6.3398438 5.2332029Q-5.6367188 5.9714842 -5.6367188 7.4714842ZM0.38671875 5.6609373Q0.20507812 5.5554686 -0.0087890625 5.5056639Q-0.22265625 5.4558592 -0.48046875 5.4558592Q-1.3945312 5.4558592 -1.8837891 6.0505857Q-2.3730469 6.6453123 -2.3730469 7.7585936L-2.3730469 11.215625L-3.4570312 11.215625L-3.4570312 4.6531248L-2.3730469 4.6531248L-2.3730469 5.6726561Q-2.0332031 5.0749998 -1.4882812 4.7849607Q-0.94335938 4.4949217 -0.1640625 4.4949217Q-0.052734375 4.4949217 0.08203125 4.5095701Q0.21679688 4.5242186 0.38085938 4.5535154L0.38671875 5.6609373ZM0.890625 4.6531248L1.96875 4.6531248L3.3164062 9.7742186L4.6582031 4.6531248L5.9296875 4.6531248L7.2773438 9.7742186L8.6191406 4.6531248L9.6972656 4.6531248L7.9804688 11.215625L6.7089844 11.215625L5.296875 5.8367186L3.8789062 11.215625L2.6074219 11.215625L0.890625 4.6531248ZM11.332031 4.6531248L12.410156 4.6531248L12.410156 11.215625L11.332031 11.215625L11.332031 4.6531248ZM11.332031 2.0984373L12.410156 2.0984373L12.410156 3.4636717L11.332031 3.4636717L11.332031 2.0984373ZM20.121094 7.2546873L20.121094 11.215625L19.042969 11.215625L19.042969 7.2898436Q19.042969 6.3582029 18.679688 5.8953123Q18.316406 5.4324217 17.589844 5.4324217Q16.716797 5.4324217 16.212891 5.9890623Q15.708984 6.5457029 15.708984 7.5066404L15.708984 11.215625L14.625 11.215625L14.625 4.6531248L15.708984 4.6531248L15.708984 5.6726561Q16.095703 5.0808592 16.620117 4.7878904Q17.144531 4.4949217 17.830078 4.4949217Q18.960938 4.4949217 19.541016 5.195117Q20.121094 5.8953123 20.121094 7.2546873Z"/>
	</g>
	<clipPath id="cl_273">
		<rect y="549.20001" width="1000" height="50.799988"/>
	</clipPath>
	<g clip-path="url(#cl_273)">
		<path fill="#666" transform="translate(423.994 560.2)" d="M-14.986328 2.4675779L-13.802734 2.4675779L-13.802734 10.219531L-9.5429688 10.219531L-9.5429688 11.215625L-14.986328 11.215625L-14.986328 2.4675779ZM-8.3476562 4.6531248L-7.2695312 4.6531248L-7.2695312 11.215625L-8.3476562 11.215625L-8.3476562 4.6531248ZM-8.3476562 2.0984373L-7.2695312 2.0984373L-7.2695312 3.4636717L-8.3476562 3.4636717L-8.3476562 2.0984373ZM0.44140625 7.2546873L0.44140625 11.215625L-0.63671875 11.215625L-0.63671875 7.2898436Q-0.63671875 6.3582029 -1 5.8953123Q-1.3632812 5.4324217 -2.0898438 5.4324217Q-2.9628906 5.4324217 -3.4667969 5.9890623Q-3.9707031 6.5457029 -3.9707031 7.5066404L-3.9707031 11.215625L-5.0546875 11.215625L-5.0546875 4.6531248L-3.9707031 4.6531248L-3.9707031 5.6726561Q-3.5839844 5.0808592 -3.0595703 4.7878904Q-2.5351562 4.4949217 -1.8496094 4.4949217Q-0.71875 4.4949217 -0.13867188 5.195117Q0.44140625 5.8953123 0.44140625 7.2546873ZM2.4804688 8.6257811L2.4804688 4.6531248L3.5585938 4.6531248L3.5585938 8.5847654Q3.5585938 9.5164061 3.921875 9.9822264Q4.2851562 10.448047 5.0117188 10.448047Q5.8847656 10.448047 6.3916016 9.8914061Q6.8984375 9.3347654 6.8984375 8.3738279L6.8984375 4.6531248L7.9765625 4.6531248L7.9765625 11.215625L6.8984375 11.215625L6.8984375 10.207812Q6.5058594 10.805469 5.9873047 11.095508Q5.46875 11.385547 4.7832031 11.385547Q3.6523438 11.385547 3.0664062 10.682422Q2.4804688 9.9792967 2.4804688 8.6257811ZM15.652344 4.6531248L13.279297 7.8464842L15.775391 11.215625L14.503906 11.215625L12.59375 8.6374998L10.683594 11.215625L9.4121094 11.215625L11.960938 7.7820311L9.6289062 4.6531248L10.900391 4.6531248L12.640625 6.9910154L14.380859 4.6531248L15.652344 4.6531248Z"/>
	</g>
	<clipPath id="cl_274">
		<rect y="549.20001" width="1000" height="50.799988"/>
	</clipPath>
	<g clip-path="url(#cl_274)">
		<path fill="#666" transform="translate(654.396 560.2)" d="M-26.382812 2.4675779L-25.1875 2.4675779L-23.347656 9.8621092L-21.513672 2.4675779L-20.183594 2.4675779L-18.34375 9.8621092L-16.509766 2.4675779L-15.308594 2.4675779L-17.505859 11.215625L-18.994141 11.215625L-20.839844 3.6218748L-22.703125 11.215625L-24.191406 11.215625L-26.382812 2.4675779ZM-14.048828 4.6531248L-12.970703 4.6531248L-12.970703 11.215625L-14.048828 11.215625L-14.048828 4.6531248ZM-14.048828 2.0984373L-12.970703 2.0984373L-12.970703 3.4636717L-14.048828 3.4636717L-14.048828 2.0984373ZM-5.2597656 7.2546873L-5.2597656 11.215625L-6.3378906 11.215625L-6.3378906 7.2898436Q-6.3378906 6.3582029 -6.7011719 5.8953123Q-7.0644531 5.4324217 -7.7910156 5.4324217Q-8.6640625 5.4324217 -9.1679688 5.9890623Q-9.671875 6.5457029 -9.671875 7.5066404L-9.671875 11.215625L-10.755859 11.215625L-10.755859 4.6531248L-9.671875 4.6531248L-9.671875 5.6726561Q-9.2851562 5.0808592 -8.7607422 4.7878904Q-8.2363281 4.4949217 -7.5507812 4.4949217Q-6.4199219 4.4949217 -5.8398438 5.195117Q-5.2597656 5.8953123 -5.2597656 7.2546873ZM1.2089844 5.6492186L1.2089844 2.0984373L2.2871094 2.0984373L2.2871094 11.215625L1.2089844 11.215625L1.2089844 10.23125Q0.86914062 10.817187 0.35058594 11.101367Q-0.16796875 11.385547 -0.89453125 11.385547Q-2.0839844 11.385547 -2.8310547 10.436328Q-3.578125 9.4871092 -3.578125 7.9402342Q-3.578125 6.3933592 -2.8310547 5.4441404Q-2.0839844 4.4949217 -0.89453125 4.4949217Q-0.16796875 4.4949217 0.35058594 4.7791014Q0.86914062 5.0632811 1.2089844 5.6492186ZM-2.4648438 7.9402342Q-2.4648438 9.1296873 -1.9755859 9.8064451Q-1.4863281 10.483203 -0.63085938 10.483203Q0.22460938 10.483203 0.71679688 9.8064451Q1.2089844 9.1296873 1.2089844 7.9402342Q1.2089844 6.7507811 0.71679688 6.0740232Q0.22460938 5.3972654 -0.63085938 5.3972654Q-1.4863281 5.3972654 -1.9755859 6.0740232Q-2.4648438 6.7507811 -2.4648438 7.9402342ZM7.0507812 5.4089842Q6.1835938 5.4089842 5.6796875 6.085742Q5.1757812 6.7624998 5.1757812 7.9402342Q5.1757812 9.1179686 5.6767578 9.7947264Q6.1777344 10.471484 7.0507812 10.471484Q7.9121094 10.471484 8.4160156 9.7917967Q8.9199219 9.1121092 8.9199219 7.9402342Q8.9199219 6.7742186 8.4160156 6.0916014Q7.9121094 5.4089842 7.0507812 5.4089842ZM7.0507812 4.4949217Q8.4570312 4.4949217 9.2597656 5.4089842Q10.0625 6.3230467 10.0625 7.9402342Q10.0625 9.5515623 9.2597656 10.468554Q8.4570312 11.385547 7.0507812 11.385547Q5.6386719 11.385547 4.8388672 10.468554Q4.0390625 9.5515623 4.0390625 7.9402342Q4.0390625 6.3230467 4.8388672 5.4089842Q5.6386719 4.4949217 7.0507812 4.4949217ZM11.222656 4.6531248L12.300781 4.6531248L13.648438 9.7742186L14.990234 4.6531248L16.261719 4.6531248L17.609375 9.7742186L18.951172 4.6531248L20.029297 4.6531248L18.3125 11.215625L17.041016 11.215625L15.628906 5.8367186L14.210938 11.215625L12.939453 11.215625L11.222656 4.6531248ZM25.847656 4.8464842L25.847656 5.8660154Q25.390625 5.6316404 24.898438 5.5144529Q24.40625 5.3972654 23.878906 5.3972654Q23.076172 5.3972654 22.674805 5.6433592Q22.273438 5.8894529 22.273438 6.3816404Q22.273438 6.7566404 22.560547 6.9705076Q22.847656 7.1843748 23.714844 7.3777342L24.083984 7.4597654Q25.232422 7.7058592 25.71582 8.1541014Q26.199219 8.6023436 26.199219 9.4050779Q26.199219 10.31914 25.475586 10.852344Q24.751953 11.385547 23.486328 11.385547Q22.958984 11.385547 22.387695 11.283008Q21.816406 11.180469 21.183594 10.97539L21.183594 9.8621092Q21.78125 10.172656 22.361328 10.327929Q22.941406 10.483203 23.509766 10.483203Q24.271484 10.483203 24.681641 10.222461Q25.091797 9.9617186 25.091797 9.4871092Q25.091797 9.0476561 24.795898 8.8132811Q24.5 8.5789061 23.498047 8.3621092L23.123047 8.2742186Q22.121094 8.0632811 21.675781 7.6267576Q21.230469 7.1902342 21.230469 6.4285154Q21.230469 5.5027342 21.886719 4.9988279Q22.542969 4.4949217 23.75 4.4949217Q24.347656 4.4949217 24.875 4.5828123Q25.402344 4.6707029 25.847656 4.8464842Z"/>
	</g>
	<clipPath id="cl_275">
		<rect y="549.20001" width="1000" height="50.799988"/>
	</clipPath>
	<g clip-path="url(#cl_275)">
		<path fill="#666" transform="translate(884.799 560.2)" d="M-12.310547 5.4089842Q-13.177734 5.4089842 -13.681641 6.085742Q-14.185547 6.7624998 -14.185547 7.9402342Q-14.185547 9.1179686 -13.68457 9.7947264Q-13.183594 10.471484 -12.310547 10.471484Q-11.449219 10.471484 -10.945312 9.7917967Q-10.441406 9.1121092 -10.441406 7.9402342Q-10.441406 6.7742186 -10.945312 6.0916014Q-11.449219 5.4089842 -12.310547 5.4089842ZM-12.310547 4.4949217Q-10.904297 4.4949217 -10.101562 5.4089842Q-9.2988281 6.3230467 -9.2988281 7.9402342Q-9.2988281 9.5515623 -10.101562 10.468554Q-10.904297 11.385547 -12.310547 11.385547Q-13.722656 11.385547 -14.522461 10.468554Q-15.322266 9.5515623 -15.322266 7.9402342Q-15.322266 6.3230467 -14.522461 5.4089842Q-13.722656 4.4949217 -12.310547 4.4949217ZM-6.4453125 2.7898436L-6.4453125 4.6531248L-4.2246094 4.6531248L-4.2246094 5.4910154L-6.4453125 5.4910154L-6.4453125 9.0535154Q-6.4453125 9.8562498 -6.2255859 10.084765Q-6.0058594 10.313281 -5.3320312 10.313281L-4.2246094 10.313281L-4.2246094 11.215625L-5.3320312 11.215625Q-6.5800781 11.215625 -7.0546875 10.749804Q-7.5292969 10.283984 -7.5292969 9.0535154L-7.5292969 5.4910154L-8.3203125 5.4910154L-8.3203125 4.6531248L-7.5292969 4.6531248L-7.5292969 2.7898436L-6.4453125 2.7898436ZM2.6484375 7.2546873L2.6484375 11.215625L1.5703125 11.215625L1.5703125 7.2898436Q1.5703125 6.3582029 1.2070312 5.8953123Q0.84375 5.4324217 0.1171875 5.4324217Q-0.75585938 5.4324217 -1.2597656 5.9890623Q-1.7636719 6.5457029 -1.7636719 7.5066404L-1.7636719 11.215625L-2.8476562 11.215625L-2.8476562 2.0984373L-1.7636719 2.0984373L-1.7636719 5.6726561Q-1.3769531 5.0808592 -0.85253906 4.7878904Q-0.328125 4.4949217 0.35742188 4.4949217Q1.4882812 4.4949217 2.0683594 5.195117Q2.6484375 5.8953123 2.6484375 7.2546873ZM10.412109 7.6648436L10.412109 8.1921873L5.4550781 8.1921873Q5.5253906 9.3054686 6.1259766 9.8884764Q6.7265625 10.471484 7.7988281 10.471484Q8.4199219 10.471484 9.0029297 10.31914Q9.5859375 10.166797 10.160156 9.8621092L10.160156 10.88164Q9.5800781 11.127734 8.9707031 11.25664Q8.3613281 11.385547 7.734375 11.385547Q6.1640625 11.385547 5.2470703 10.471484Q4.3300781 9.5574217 4.3300781 7.9988279Q4.3300781 6.3874998 5.2001953 5.4412107Q6.0703125 4.4949217 7.546875 4.4949217Q8.8710938 4.4949217 9.6416016 5.3474607Q10.412109 6.1999998 10.412109 7.6648436ZM9.3339844 7.3484373Q9.3222656 6.4636717 8.8388672 5.9363279Q8.3554688 5.4089842 7.5585938 5.4089842Q6.65625 5.4089842 6.1142578 5.9187498Q5.5722656 6.4285154 5.4902344 7.3542967L9.3339844 7.3484373ZM15.984375 5.6609373Q15.802734 5.5554686 15.588867 5.5056639Q15.375 5.4558592 15.117188 5.4558592Q14.203125 5.4558592 13.713867 6.0505857Q13.224609 6.6453123 13.224609 7.7585936L13.224609 11.215625L12.140625 11.215625L12.140625 4.6531248L13.224609 4.6531248L13.224609 5.6726561Q13.564453 5.0749998 14.109375 4.7849607Q14.654297 4.4949217 15.433594 4.4949217Q15.544922 4.4949217 15.679688 4.5095701Q15.814453 4.5242186 15.978516 4.5535154L15.984375 5.6609373Z"/>
	</g>
	<path fill="none" stroke="black" stroke-width="1" stroke-miterlimit="10" stroke-opacity="0.10196079" d="M78.5 34L78.5 550"/>
	<clipPath id="cl_277">
		<rect width="78.389999" height="600"/>
	</clipPath>
	<g clip-path="url(#cl_277)">
		<path fill="#666" transform="translate(67.39 549.2)" d="M-3.8183594 -3.953125Q-4.7324219 -3.953125 -5.1923828 -3.0537109Q-5.6523438 -2.1542969 -5.6523438 -0.34960938Q-5.6523438 1.4492188 -5.1923828 2.3486328Q-4.7324219 3.2480469 -3.8183594 3.2480469Q-2.8984375 3.2480469 -2.4384766 2.3486328Q-1.9785156 1.4492188 -1.9785156 -0.34960938Q-1.9785156 -2.1542969 -2.4384766 -3.0537109Q-2.8984375 -3.953125 -3.8183594 -3.953125ZM-3.8183594 -4.890625Q-2.3476562 -4.890625 -1.5712891 -3.7275391Q-0.79492188 -2.5644531 -0.79492188 -0.34960938Q-0.79492188 1.859375 -1.5712891 3.0224609Q-2.3476562 4.1855469 -3.8183594 4.1855469Q-5.2890625 4.1855469 -6.0654297 3.0224609Q-6.8417969 1.859375 -6.8417969 -0.34960938Q-6.8417969 -2.5644531 -6.0654297 -3.7275391Q-5.2890625 -4.890625 -3.8183594 -4.890625Z"/>
	</g>
	<clipPath id="cl_278">
		<rect width="78.389999" height="600"/>
	</clipPath>
	<g clip-path="url(#cl_278)">
		<path fill="#666" transform="translate(67.39 497.72)" d="M-32.863281 3.0195312L-30.929688 3.0195312L-30.929688 -3.6542969L-33.033203 -3.2324219L-33.033203 -4.3105469L-30.941406 -4.7324219L-29.757812 -4.7324219L-29.757812 3.0195312L-27.824219 3.0195312L-27.824219 4.015625L-32.863281 4.015625L-32.863281 3.0195312ZM-25.310547 2.5273438L-24.074219 2.5273438L-24.074219 3.5351562L-25.035156 5.4101562L-25.791016 5.4101562L-25.310547 3.5351562L-25.310547 2.5273438ZM-19.087891 -3.953125Q-20.001953 -3.953125 -20.461914 -3.0537109Q-20.921875 -2.1542969 -20.921875 -0.34960938Q-20.921875 1.4492188 -20.461914 2.3486328Q-20.001953 3.2480469 -19.087891 3.2480469Q-18.167969 3.2480469 -17.708008 2.3486328Q-17.248047 1.4492188 -17.248047 -0.34960938Q-17.248047 -2.1542969 -17.708008 -3.0537109Q-18.167969 -3.953125 -19.087891 -3.953125ZM-19.087891 -4.890625Q-17.617188 -4.890625 -16.84082 -3.7275391Q-16.064453 -2.5644531 -16.064453 -0.34960938Q-16.064453 1.859375 -16.84082 3.0224609Q-17.617188 4.1855469 -19.087891 4.1855469Q-20.558594 4.1855469 -21.334961 3.0224609Q-22.111328 1.859375 -22.111328 -0.34960938Q-22.111328 -2.5644531 -21.334961 -3.7275391Q-20.558594 -4.890625 -19.087891 -4.890625ZM-11.453125 -3.953125Q-12.367188 -3.953125 -12.827148 -3.0537109Q-13.287109 -2.1542969 -13.287109 -0.34960938Q-13.287109 1.4492188 -12.827148 2.3486328Q-12.367188 3.2480469 -11.453125 3.2480469Q-10.533203 3.2480469 -10.073242 2.3486328Q-9.6132812 1.4492188 -9.6132812 -0.34960938Q-9.6132812 -2.1542969 -10.073242 -3.0537109Q-10.533203 -3.953125 -11.453125 -3.953125ZM-11.453125 -4.890625Q-9.9824219 -4.890625 -9.2060547 -3.7275391Q-8.4296875 -2.5644531 -8.4296875 -0.34960938Q-8.4296875 1.859375 -9.2060547 3.0224609Q-9.9824219 4.1855469 -11.453125 4.1855469Q-12.923828 4.1855469 -13.700195 3.0224609Q-14.476562 1.859375 -14.476562 -0.34960938Q-14.476562 -2.5644531 -13.700195 -3.7275391Q-12.923828 -4.890625 -11.453125 -4.890625ZM-3.8183594 -3.953125Q-4.7324219 -3.953125 -5.1923828 -3.0537109Q-5.6523438 -2.1542969 -5.6523438 -0.34960938Q-5.6523438 1.4492188 -5.1923828 2.3486328Q-4.7324219 3.2480469 -3.8183594 3.2480469Q-2.8984375 3.2480469 -2.4384766 2.3486328Q-1.9785156 1.4492188 -1.9785156 -0.34960938Q-1.9785156 -2.1542969 -2.4384766 -3.0537109Q-2.8984375 -3.953125 -3.8183594 -3.953125ZM-3.8183594 -4.890625Q-2.3476562 -4.890625 -1.5712891 -3.7275391Q-0.79492188 -2.5644531 -0.79492188 -0.34960938Q-0.79492188 1.859375 -1.5712891 3.0224609Q-2.3476562 4.1855469 -3.8183594 4.1855469Q-5.2890625 4.1855469 -6.0654297 3.0224609Q-6.8417969 1.859375 -6.8417969 -0.34960938Q-6.8417969 -2.5644531 -6.0654297 -3.7275391Q-5.2890625 -4.890625 -3.8183594 -4.890625Z"/>
	</g>
	<clipPath id="cl_279">
		<rect width="78.389999" height="600"/>
	</clipPath>
	<g clip-path="url(#cl_279)">
		<path fill="#666" transform="translate(67.39 446.24)" d="M-32.048828 3.0195312L-27.917969 3.0195312L-27.917969 4.015625L-33.472656 4.015625L-33.472656 3.0195312Q-32.798828 2.3222656 -31.635742 1.1474609Q-30.472656 -0.02734375 -30.173828 -0.3671875Q-29.605469 -1.0058594 -29.379883 -1.4482422Q-29.154297 -1.890625 -29.154297 -2.3183594Q-29.154297 -3.015625 -29.643555 -3.4550781Q-30.132812 -3.8945312 -30.917969 -3.8945312Q-31.474609 -3.8945312 -32.092773 -3.7011719Q-32.710938 -3.5078125 -33.414062 -3.1152344L-33.414062 -4.3105469Q-32.699219 -4.5976562 -32.078125 -4.7441406Q-31.457031 -4.890625 -30.941406 -4.890625Q-29.582031 -4.890625 -28.773438 -4.2109375Q-27.964844 -3.53125 -27.964844 -2.3945312Q-27.964844 -1.8554688 -28.166992 -1.3720703Q-28.369141 -0.88867188 -28.902344 -0.23242188Q-29.048828 -0.0625 -29.833984 0.74902344Q-30.619141 1.5605469 -32.048828 3.0195312ZM-25.310547 2.5273438L-24.074219 2.5273438L-24.074219 3.5351562L-25.035156 5.4101562L-25.791016 5.4101562L-25.310547 3.5351562L-25.310547 2.5273438ZM-19.087891 -3.953125Q-20.001953 -3.953125 -20.461914 -3.0537109Q-20.921875 -2.1542969 -20.921875 -0.34960938Q-20.921875 1.4492188 -20.461914 2.3486328Q-20.001953 3.2480469 -19.087891 3.2480469Q-18.167969 3.2480469 -17.708008 2.3486328Q-17.248047 1.4492188 -17.248047 -0.34960938Q-17.248047 -2.1542969 -17.708008 -3.0537109Q-18.167969 -3.953125 -19.087891 -3.953125ZM-19.087891 -4.890625Q-17.617188 -4.890625 -16.84082 -3.7275391Q-16.064453 -2.5644531 -16.064453 -0.34960938Q-16.064453 1.859375 -16.84082 3.0224609Q-17.617188 4.1855469 -19.087891 4.1855469Q-20.558594 4.1855469 -21.334961 3.0224609Q-22.111328 1.859375 -22.111328 -0.34960938Q-22.111328 -2.5644531 -21.334961 -3.7275391Q-20.558594 -4.890625 -19.087891 -4.890625ZM-11.453125 -3.953125Q-12.367188 -3.953125 -12.827148 -3.0537109Q-13.287109 -2.1542969 -13.287109 -0.34960938Q-13.287109 1.4492188 -12.827148 2.3486328Q-12.367188 3.2480469 -11.453125 3.2480469Q-10.533203 3.2480469 -10.073242 2.3486328Q-9.6132812 1.4492188 -9.6132812 -0.34960938Q-9.6132812 -2.1542969 -10.073242 -3.0537109Q-10.533203 -3.953125 -11.453125 -3.953125ZM-11.453125 -4.890625Q-9.9824219 -4.890625 -9.2060547 -3.7275391Q-8.4296875 -2.5644531 -8.4296875 -0.34960938Q-8.4296875 1.859375 -9.2060547 3.0224609Q-9.9824219 4.1855469 -11.453125 4.1855469Q-12.923828 4.1855469 -13.700195 3.0224609Q-14.476562 1.859375 -14.476562 -0.34960938Q-14.476562 -2.5644531 -13.700195 -3.7275391Q-12.923828 -4.890625 -11.453125 -4.890625ZM-3.8183594 -3.953125Q-4.7324219 -3.953125 -5.1923828 -3.0537109Q-5.6523438 -2.1542969 -5.6523438 -0.34960938Q-5.6523438 1.4492188 -5.1923828 2.3486328Q-4.7324219 3.2480469 -3.8183594 3.2480469Q-2.8984375 3.2480469 -2.4384766 2.3486328Q-1.9785156 1.4492188 -1.9785156 -0.34960938Q-1.9785156 -2.1542969 -2.4384766 -3.0537109Q-2.8984375 -3.953125 -3.8183594 -3.953125ZM-3.8183594 -4.890625Q-2.3476562 -4.890625 -1.5712891 -3.7275391Q-0.79492188 -2.5644531 -0.79492188 -0.34960938Q-0.79492188 1.859375 -1.5712891 3.0224609Q-2.3476562 4.1855469 -3.8183594 4.1855469Q-5.2890625 4.1855469 -6.0654297 3.0224609Q-6.8417969 1.859375 -6.8417969 -0.34960938Q-6.8417969 -2.5644531 -6.0654297 -3.7275391Q-5.2890625 -4.890625 -3.8183594 -4.890625Z"/>
	</g>
	<clipPath id="cl_27a">
		<rect width="78.389999" height="600"/>
	</clipPath>
	<g clip-path="url(#cl_27a)">
		<path fill="#666" transform="translate(67.39 394.76)" d="M-29.482422 -0.70117188Q-28.632812 -0.51953125 -28.155273 0.0546875Q-27.677734 0.62890625 -27.677734 1.4726562Q-27.677734 2.7675781 -28.568359 3.4765625Q-29.458984 4.1855469 -31.099609 4.1855469Q-31.650391 4.1855469 -32.233398 4.0771484Q-32.816406 3.96875 -33.4375 3.7519531L-33.4375 2.609375Q-32.945312 2.8964844 -32.359375 3.0429688Q-31.773438 3.1894531 -31.134766 3.1894531Q-30.021484 3.1894531 -29.438477 2.75Q-28.855469 2.3105469 -28.855469 1.4726562Q-28.855469 0.69921875 -29.397461 0.26269531Q-29.939453 -0.17382812 -30.90625 -0.17382812L-31.925781 -0.17382812L-31.925781 -1.1464844L-30.859375 -1.1464844Q-29.986328 -1.1464844 -29.523438 -1.4951172Q-29.060547 -1.84375 -29.060547 -2.5Q-29.060547 -3.1738281 -29.538086 -3.5341797Q-30.015625 -3.8945312 -30.90625 -3.8945312Q-31.392578 -3.8945312 -31.949219 -3.7890625Q-32.505859 -3.6835938 -33.173828 -3.4609375L-33.173828 -4.515625Q-32.5 -4.703125 -31.911133 -4.796875Q-31.322266 -4.890625 -30.800781 -4.890625Q-29.453125 -4.890625 -28.667969 -4.2783203Q-27.882812 -3.6660156 -27.882812 -2.6230469Q-27.882812 -1.8964844 -28.298828 -1.3955078Q-28.714844 -0.89453125 -29.482422 -0.70117188ZM-25.310547 2.5273438L-24.074219 2.5273438L-24.074219 3.5351562L-25.035156 5.4101562L-25.791016 5.4101562L-25.310547 3.5351562L-25.310547 2.5273438ZM-19.087891 -3.953125Q-20.001953 -3.953125 -20.461914 -3.0537109Q-20.921875 -2.1542969 -20.921875 -0.34960938Q-20.921875 1.4492188 -20.461914 2.3486328Q-20.001953 3.2480469 -19.087891 3.2480469Q-18.167969 3.2480469 -17.708008 2.3486328Q-17.248047 1.4492188 -17.248047 -0.34960938Q-17.248047 -2.1542969 -17.708008 -3.0537109Q-18.167969 -3.953125 -19.087891 -3.953125ZM-19.087891 -4.890625Q-17.617188 -4.890625 -16.84082 -3.7275391Q-16.064453 -2.5644531 -16.064453 -0.34960938Q-16.064453 1.859375 -16.84082 3.0224609Q-17.617188 4.1855469 -19.087891 4.1855469Q-20.558594 4.1855469 -21.334961 3.0224609Q-22.111328 1.859375 -22.111328 -0.34960938Q-22.111328 -2.5644531 -21.334961 -3.7275391Q-20.558594 -4.890625 -19.087891 -4.890625ZM-11.453125 -3.953125Q-12.367188 -3.953125 -12.827148 -3.0537109Q-13.287109 -2.1542969 -13.287109 -0.34960938Q-13.287109 1.4492188 -12.827148 2.3486328Q-12.367188 3.2480469 -11.453125 3.2480469Q-10.533203 3.2480469 -10.073242 2.3486328Q-9.6132812 1.4492188 -9.6132812 -0.34960938Q-9.6132812 -2.1542969 -10.073242 -3.0537109Q-10.533203 -3.953125 -11.453125 -3.953125ZM-11.453125 -4.890625Q-9.9824219 -4.890625 -9.2060547 -3.7275391Q-8.4296875 -2.5644531 -8.4296875 -0.34960938Q-8.4296875 1.859375 -9.2060547 3.0224609Q-9.9824219 4.1855469 -11.453125 4.1855469Q-12.923828 4.1855469 -13.700195 3.0224609Q-14.476562 1.859375 -14.476562 -0.34960938Q-14.476562 -2.5644531 -13.700195 -3.7275391Q-12.923828 -4.890625 -11.453125 -4.890625ZM-3.8183594 -3.953125Q-4.7324219 -3.953125 -5.1923828 -3.0537109Q-5.6523438 -2.1542969 -5.6523438 -0.34960938Q-5.6523438 1.4492188 -5.1923828 2.3486328Q-4.7324219 3.2480469 -3.8183594 3.2480469Q-2.8984375 3.2480469 -2.4384766 2.3486328Q-1.9785156 1.4492188 -1.9785156 -0.34960938Q-1.9785156 -2.1542969 -2.4384766 -3.0537109Q-2.8984375 -3.953125 -3.8183594 -3.953125ZM-3.8183594 -4.890625Q-2.3476562 -4.890625 -1.5712891 -3.7275391Q-0.79492188 -2.5644531 -0.79492188 -0.34960938Q-0.79492188 1.859375 -1.5712891 3.0224609Q-2.3476562 4.1855469 -3.8183594 4.1855469Q-5.2890625 4.1855469 -6.0654297 3.0224609Q-6.8417969 1.859375 -6.8417969 -0.34960938Q-6.8417969 -2.5644531 -6.0654297 -3.7275391Q-5.2890625 -4.890625 -3.8183594 -4.890625Z"/>
	</g>
	<clipPath id="cl_27b">
		<rect width="78.389999" height="600"/>
	</clipPath>
	<g clip-path="url(#cl_27b)">
		<path fill="#666" transform="translate(67.39 343.28)" d="M-29.816406 -3.7011719L-32.804688 0.96875L-29.816406 0.96875L-29.816406 -3.7011719ZM-30.126953 -4.7324219L-28.638672 -4.7324219L-28.638672 0.96875L-27.390625 0.96875L-27.390625 1.953125L-28.638672 1.953125L-28.638672 4.015625L-29.816406 4.015625L-29.816406 1.953125L-33.765625 1.953125L-33.765625 0.81054688L-30.126953 -4.7324219ZM-25.310547 2.5273438L-24.074219 2.5273438L-24.074219 3.5351562L-25.035156 5.4101562L-25.791016 5.4101562L-25.310547 3.5351562L-25.310547 2.5273438ZM-19.087891 -3.953125Q-20.001953 -3.953125 -20.461914 -3.0537109Q-20.921875 -2.1542969 -20.921875 -0.34960938Q-20.921875 1.4492188 -20.461914 2.3486328Q-20.001953 3.2480469 -19.087891 3.2480469Q-18.167969 3.2480469 -17.708008 2.3486328Q-17.248047 1.4492188 -17.248047 -0.34960938Q-17.248047 -2.1542969 -17.708008 -3.0537109Q-18.167969 -3.953125 -19.087891 -3.953125ZM-19.087891 -4.890625Q-17.617188 -4.890625 -16.84082 -3.7275391Q-16.064453 -2.5644531 -16.064453 -0.34960938Q-16.064453 1.859375 -16.84082 3.0224609Q-17.617188 4.1855469 -19.087891 4.1855469Q-20.558594 4.1855469 -21.334961 3.0224609Q-22.111328 1.859375 -22.111328 -0.34960938Q-22.111328 -2.5644531 -21.334961 -3.7275391Q-20.558594 -4.890625 -19.087891 -4.890625ZM-11.453125 -3.953125Q-12.367188 -3.953125 -12.827148 -3.0537109Q-13.287109 -2.1542969 -13.287109 -0.34960938Q-13.287109 1.4492188 -12.827148 2.3486328Q-12.367188 3.2480469 -11.453125 3.2480469Q-10.533203 3.2480469 -10.073242 2.3486328Q-9.6132812 1.4492188 -9.6132812 -0.34960938Q-9.6132812 -2.1542969 -10.073242 -3.0537109Q-10.533203 -3.953125 -11.453125 -3.953125ZM-11.453125 -4.890625Q-9.9824219 -4.890625 -9.2060547 -3.7275391Q-8.4296875 -2.5644531 -8.4296875 -0.34960938Q-8.4296875 1.859375 -9.2060547 3.0224609Q-9.9824219 4.1855469 -11.453125 4.1855469Q-12.923828 4.1855469 -13.700195 3.0224609Q-14.476562 1.859375 -14.476562 -0.34960938Q-14.476562 -2.5644531 -13.700195 -3.7275391Q-12.923828 -4.890625 -11.453125 -4.890625ZM-3.8183594 -3.953125Q-4.7324219 -3.953125 -5.1923828 -3.0537109Q-5.6523438 -2.1542969 -5.6523438 -0.34960938Q-5.6523438 1.4492188 -5.1923828 2.3486328Q-4.7324219 3.2480469 -3.8183594 3.2480469Q-2.8984375 3.2480469 -2.4384766 2.3486328Q-1.9785156 1.4492188 -1.9785156 -0.34960938Q-1.9785156 -2.1542969 -2.4384766 -3.0537109Q-2.8984375 -3.953125 -3.8183594 -3.953125ZM-3.8183594 -4.890625Q-2.3476562 -4.890625 -1.5712891 -3.7275391Q-0.79492188 -2.5644531 -0.79492188 -0.34960938Q-0.79492188 1.859375 -1.5712891 3.0224609Q-2.3476562 4.1855469 -3.8183594 4.1855469Q-5.2890625 4.1855469 -6.0654297 3.0224609Q-6.8417969 1.859375 -6.8417969 -0.34960938Q-6.8417969 -2.5644531 -6.0654297 -3.7275391Q-5.2890625 -4.890625 -3.8183594 -4.890625Z"/>
	</g>
	<clipPath id="cl_27c">
		<rect width="78.389999" height="600"/>
	</clipPath>
	<g clip-path="url(#cl_27c)">
		<path fill="#666" transform="translate(67.39 291.8)" d="M-33.056641 -4.7324219L-28.410156 -4.7324219L-28.410156 -3.7363281L-31.972656 -3.7363281L-31.972656 -1.5917969Q-31.714844 -1.6796875 -31.457031 -1.7236328Q-31.199219 -1.7675781 -30.941406 -1.7675781Q-29.476562 -1.7675781 -28.621094 -0.96484375Q-27.765625 -0.16210938 -27.765625 1.2089844Q-27.765625 2.6210938 -28.644531 3.4033203Q-29.523438 4.1855469 -31.123047 4.1855469Q-31.673828 4.1855469 -32.245117 4.0917969Q-32.816406 3.9980469 -33.425781 3.8105469L-33.425781 2.6210938Q-32.898438 2.9082031 -32.335938 3.0488281Q-31.773438 3.1894531 -31.146484 3.1894531Q-30.132812 3.1894531 -29.541016 2.65625Q-28.949219 2.1230469 -28.949219 1.2089844Q-28.949219 0.29492188 -29.541016 -0.23828125Q-30.132812 -0.77148438 -31.146484 -0.77148438Q-31.621094 -0.77148438 -32.092773 -0.66601562Q-32.564453 -0.56054688 -33.056641 -0.33789062L-33.056641 -4.7324219ZM-25.310547 2.5273438L-24.074219 2.5273438L-24.074219 3.5351562L-25.035156 5.4101562L-25.791016 5.4101562L-25.310547 3.5351562L-25.310547 2.5273438ZM-19.087891 -3.953125Q-20.001953 -3.953125 -20.461914 -3.0537109Q-20.921875 -2.1542969 -20.921875 -0.34960938Q-20.921875 1.4492188 -20.461914 2.3486328Q-20.001953 3.2480469 -19.087891 3.2480469Q-18.167969 3.2480469 -17.708008 2.3486328Q-17.248047 1.4492188 -17.248047 -0.34960938Q-17.248047 -2.1542969 -17.708008 -3.0537109Q-18.167969 -3.953125 -19.087891 -3.953125ZM-19.087891 -4.890625Q-17.617188 -4.890625 -16.84082 -3.7275391Q-16.064453 -2.5644531 -16.064453 -0.34960938Q-16.064453 1.859375 -16.84082 3.0224609Q-17.617188 4.1855469 -19.087891 4.1855469Q-20.558594 4.1855469 -21.334961 3.0224609Q-22.111328 1.859375 -22.111328 -0.34960938Q-22.111328 -2.5644531 -21.334961 -3.7275391Q-20.558594 -4.890625 -19.087891 -4.890625ZM-11.453125 -3.953125Q-12.367188 -3.953125 -12.827148 -3.0537109Q-13.287109 -2.1542969 -13.287109 -0.34960938Q-13.287109 1.4492188 -12.827148 2.3486328Q-12.367188 3.2480469 -11.453125 3.2480469Q-10.533203 3.2480469 -10.073242 2.3486328Q-9.6132812 1.4492188 -9.6132812 -0.34960938Q-9.6132812 -2.1542969 -10.073242 -3.0537109Q-10.533203 -3.953125 -11.453125 -3.953125ZM-11.453125 -4.890625Q-9.9824219 -4.890625 -9.2060547 -3.7275391Q-8.4296875 -2.5644531 -8.4296875 -0.34960938Q-8.4296875 1.859375 -9.2060547 3.0224609Q-9.9824219 4.1855469 -11.453125 4.1855469Q-12.923828 4.1855469 -13.700195 3.0224609Q-14.476562 1.859375 -14.476562 -0.34960938Q-14.476562 -2.5644531 -13.700195 -3.7275391Q-12.923828 -4.890625 -11.453125 -4.890625ZM-3.8183594 -3.953125Q-4.7324219 -3.953125 -5.1923828 -3.0537109Q-5.6523438 -2.1542969 -5.6523438 -0.34960938Q-5.6523438 1.4492188 -5.1923828 2.3486328Q-4.7324219 3.2480469 -3.8183594 3.2480469Q-2.8984375 3.2480469 -2.4384766 2.3486328Q-1.9785156 1.4492188 -1.9785156 -0.34960938Q-1.9785156 -2.1542969 -2.4384766 -3.0537109Q-2.8984375 -3.953125 -3.8183594 -3.953125ZM-3.8183594 -4.890625Q-2.3476562 -4.890625 -1.5712891 -3.7275391Q-0.79492188 -2.5644531 -0.79492188 -0.34960938Q-0.79492188 1.859375 -1.5712891 3.0224609Q-2.3476562 4.1855469 -3.8183594 4.1855469Q-5.2890625 4.1855469 -6.0654297 3.0224609Q-6.8417969 1.859375 -6.8417969 -0.34960938Q-6.8417969 -2.5644531 -6.0654297 -3.7275391Q-5.2890625 -4.890625 -3.8183594 -4.890625Z"/>
	</g>
	<clipPath id="cl_27d">
		<rect width="78.389999" height="600"/>
	</clipPath>
	<g clip-path="url(#cl_27d)">
		<path fill="#666" transform="translate(67.39 240.32)" d="M-30.390625 -0.83007812Q-31.1875 -0.83007812 -31.65332 -0.28515625Q-32.119141 0.25976562 -32.119141 1.2089844Q-32.119141 2.1523438 -31.65332 2.7001953Q-31.1875 3.2480469 -30.390625 3.2480469Q-29.59375 3.2480469 -29.12793 2.7001953Q-28.662109 2.1523438 -28.662109 1.2089844Q-28.662109 0.25976562 -29.12793 -0.28515625Q-29.59375 -0.83007812 -30.390625 -0.83007812ZM-28.041016 -4.5390625L-28.041016 -3.4609375Q-28.486328 -3.671875 -28.94043 -3.7832031Q-29.394531 -3.8945312 -29.839844 -3.8945312Q-31.011719 -3.8945312 -31.629883 -3.1035156Q-32.248047 -2.3125 -32.335938 -0.71289062Q-31.990234 -1.2226562 -31.46875 -1.4951172Q-30.947266 -1.7675781 -30.320312 -1.7675781Q-29.001953 -1.7675781 -28.237305 -0.96777344Q-27.472656 -0.16796875 -27.472656 1.2089844Q-27.472656 2.5566406 -28.269531 3.3710938Q-29.066406 4.1855469 -30.390625 4.1855469Q-31.908203 4.1855469 -32.710938 3.0224609Q-33.513672 1.859375 -33.513672 -0.34960938Q-33.513672 -2.4238281 -32.529297 -3.6572266Q-31.544922 -4.890625 -29.886719 -4.890625Q-29.441406 -4.890625 -28.987305 -4.8027344Q-28.533203 -4.7148438 -28.041016 -4.5390625ZM-25.310547 2.5273438L-24.074219 2.5273438L-24.074219 3.5351562L-25.035156 5.4101562L-25.791016 5.4101562L-25.310547 3.5351562L-25.310547 2.5273438ZM-19.087891 -3.953125Q-20.001953 -3.953125 -20.461914 -3.0537109Q-20.921875 -2.1542969 -20.921875 -0.34960938Q-20.921875 1.4492188 -20.461914 2.3486328Q-20.001953 3.2480469 -19.087891 3.2480469Q-18.167969 3.2480469 -17.708008 2.3486328Q-17.248047 1.4492188 -17.248047 -0.34960938Q-17.248047 -2.1542969 -17.708008 -3.0537109Q-18.167969 -3.953125 -19.087891 -3.953125ZM-19.087891 -4.890625Q-17.617188 -4.890625 -16.84082 -3.7275391Q-16.064453 -2.5644531 -16.064453 -0.34960938Q-16.064453 1.859375 -16.84082 3.0224609Q-17.617188 4.1855469 -19.087891 4.1855469Q-20.558594 4.1855469 -21.334961 3.0224609Q-22.111328 1.859375 -22.111328 -0.34960938Q-22.111328 -2.5644531 -21.334961 -3.7275391Q-20.558594 -4.890625 -19.087891 -4.890625ZM-11.453125 -3.953125Q-12.367188 -3.953125 -12.827148 -3.0537109Q-13.287109 -2.1542969 -13.287109 -0.34960938Q-13.287109 1.4492188 -12.827148 2.3486328Q-12.367188 3.2480469 -11.453125 3.2480469Q-10.533203 3.2480469 -10.073242 2.3486328Q-9.6132812 1.4492188 -9.6132812 -0.34960938Q-9.6132812 -2.1542969 -10.073242 -3.0537109Q-10.533203 -3.953125 -11.453125 -3.953125ZM-11.453125 -4.890625Q-9.9824219 -4.890625 -9.2060547 -3.7275391Q-8.4296875 -2.5644531 -8.4296875 -0.34960938Q-8.4296875 1.859375 -9.2060547 3.0224609Q-9.9824219 4.1855469 -11.453125 4.1855469Q-12.923828 4.1855469 -13.700195 3.0224609Q-14.476562 1.859375 -14.476562 -0.34960938Q-14.476562 -2.5644531 -13.700195 -3.7275391Q-12.923828 -4.890625 -11.453125 -4.890625ZM-3.8183594 -3.953125Q-4.7324219 -3.953125 -5.1923828 -3.0537109Q-5.6523438 -2.1542969 -5.6523438 -0.34960938Q-5.6523438 1.4492188 -5.1923828 2.3486328Q-4.7324219 3.2480469 -3.8183594 3.2480469Q-2.8984375 3.2480469 -2.4384766 2.3486328Q-1.9785156 1.4492188 -1.9785156 -0.34960938Q-1.9785156 -2.1542969 -2.4384766 -3.0537109Q-2.8984375 -3.953125 -3.8183594 -3.953125ZM-3.8183594 -4.890625Q-2.3476562 -4.890625 -1.5712891 -3.7275391Q-0.79492188 -2.5644531 -0.79492188 -0.34960938Q-0.79492188 1.859375 -1.5712891 3.0224609Q-2.3476562 4.1855469 -3.8183594 4.1855469Q-5.2890625 4.1855469 -6.0654297 3.0224609Q-6.8417969 1.859375 -6.8417969 -0.34960938Q-6.8417969 -2.5644531 -6.0654297 -3.7275391Q-5.2890625 -4.890625 -3.8183594 -4.890625Z"/>
	</g>
	<clipPath id="cl_27e">
		<rect width="78.389999" height="600"/>
	</clipPath>
	<g clip-path="url(#cl_27e)">
		<path fill="#666" transform="translate(67.39 188.84)" d="M-33.367188 -4.7324219L-27.742188 -4.7324219L-27.742188 -4.2285156L-30.917969 4.015625L-32.154297 4.015625L-29.166016 -3.7363281L-33.367188 -3.7363281L-33.367188 -4.7324219ZM-25.310547 2.5273438L-24.074219 2.5273438L-24.074219 3.5351562L-25.035156 5.4101562L-25.791016 5.4101562L-25.310547 3.5351562L-25.310547 2.5273438ZM-19.087891 -3.953125Q-20.001953 -3.953125 -20.461914 -3.0537109Q-20.921875 -2.1542969 -20.921875 -0.34960938Q-20.921875 1.4492188 -20.461914 2.3486328Q-20.001953 3.2480469 -19.087891 3.2480469Q-18.167969 3.2480469 -17.708008 2.3486328Q-17.248047 1.4492188 -17.248047 -0.34960938Q-17.248047 -2.1542969 -17.708008 -3.0537109Q-18.167969 -3.953125 -19.087891 -3.953125ZM-19.087891 -4.890625Q-17.617188 -4.890625 -16.84082 -3.7275391Q-16.064453 -2.5644531 -16.064453 -0.34960938Q-16.064453 1.859375 -16.84082 3.0224609Q-17.617188 4.1855469 -19.087891 4.1855469Q-20.558594 4.1855469 -21.334961 3.0224609Q-22.111328 1.859375 -22.111328 -0.34960938Q-22.111328 -2.5644531 -21.334961 -3.7275391Q-20.558594 -4.890625 -19.087891 -4.890625ZM-11.453125 -3.953125Q-12.367188 -3.953125 -12.827148 -3.0537109Q-13.287109 -2.1542969 -13.287109 -0.34960938Q-13.287109 1.4492188 -12.827148 2.3486328Q-12.367188 3.2480469 -11.453125 3.2480469Q-10.533203 3.2480469 -10.073242 2.3486328Q-9.6132812 1.4492188 -9.6132812 -0.34960938Q-9.6132812 -2.1542969 -10.073242 -3.0537109Q-10.533203 -3.953125 -11.453125 -3.953125ZM-11.453125 -4.890625Q-9.9824219 -4.890625 -9.2060547 -3.7275391Q-8.4296875 -2.5644531 -8.4296875 -0.34960938Q-8.4296875 1.859375 -9.2060547 3.0224609Q-9.9824219 4.1855469 -11.453125 4.1855469Q-12.923828 4.1855469 -13.700195 3.0224609Q-14.476562 1.859375 -14.476562 -0.34960938Q-14.476562 -2.5644531 -13.700195 -3.7275391Q-12.923828 -4.890625 -11.453125 -4.890625ZM-3.8183594 -3.953125Q-4.7324219 -3.953125 -5.1923828 -3.0537109Q-5.6523438 -2.1542969 -5.6523438 -0.34960938Q-5.6523438 1.4492188 -5.1923828 2.3486328Q-4.7324219 3.2480469 -3.8183594 3.2480469Q-2.8984375 3.2480469 -2.4384766 2.3486328Q-1.9785156 1.4492188 -1.9785156 -0.34960938Q-1.9785156 -2.1542969 -2.4384766 -3.0537109Q-2.8984375 -3.953125 -3.8183594 -3.953125ZM-3.8183594 -4.890625Q-2.3476562 -4.890625 -1.5712891 -3.7275391Q-0.79492188 -2.5644531 -0.79492188 -0.34960938Q-0.79492188 1.859375 -1.5712891 3.0224609Q-2.3476562 4.1855469 -3.8183594 4.1855469Q-5.2890625 4.1855469 -6.0654297 3.0224609Q-6.8417969 1.859375 -6.8417969 -0.34960938Q-6.8417969 -2.5644531 -6.0654297 -3.7275391Q-5.2890625 -4.890625 -3.8183594 -4.890625Z"/>
	</g>
	<clipPath id="cl_27f">
		<rect width="78.389999" height="600"/>
	</clipPath>
	<g clip-path="url(#cl_27f)">
		<path fill="#666" transform="translate(67.39 137.36)" d="M-30.537109 -0.13867188Q-31.380859 -0.13867188 -31.864258 0.3125Q-32.347656 0.76367188 -32.347656 1.5546875Q-32.347656 2.3457031 -31.864258 2.796875Q-31.380859 3.2480469 -30.537109 3.2480469Q-29.693359 3.2480469 -29.207031 2.7939453Q-28.720703 2.3398438 -28.720703 1.5546875Q-28.720703 0.76367188 -29.204102 0.3125Q-29.6875 -0.13867188 -30.537109 -0.13867188ZM-31.720703 -0.64257812Q-32.482422 -0.83007812 -32.907227 -1.3515625Q-33.332031 -1.8730469 -33.332031 -2.6230469Q-33.332031 -3.671875 -32.584961 -4.28125Q-31.837891 -4.890625 -30.537109 -4.890625Q-29.230469 -4.890625 -28.486328 -4.28125Q-27.742188 -3.671875 -27.742188 -2.6230469Q-27.742188 -1.8730469 -28.166992 -1.3515625Q-28.591797 -0.83007812 -29.347656 -0.64257812Q-28.492188 -0.44335938 -28.014648 0.13671875Q-27.537109 0.71679688 -27.537109 1.5546875Q-27.537109 2.8261719 -28.313477 3.5058594Q-29.089844 4.1855469 -30.537109 4.1855469Q-31.984375 4.1855469 -32.760742 3.5058594Q-33.537109 2.8261719 -33.537109 1.5546875Q-33.537109 0.71679688 -33.056641 0.13671875Q-32.576172 -0.44335938 -31.720703 -0.64257812ZM-32.154297 -2.5117188Q-32.154297 -1.8320312 -31.729492 -1.4511719Q-31.304688 -1.0703125 -30.537109 -1.0703125Q-29.775391 -1.0703125 -29.344727 -1.4511719Q-28.914062 -1.8320312 -28.914062 -2.5117188Q-28.914062 -3.1914062 -29.344727 -3.5722656Q-29.775391 -3.953125 -30.537109 -3.953125Q-31.304688 -3.953125 -31.729492 -3.5722656Q-32.154297 -3.1914062 -32.154297 -2.5117188ZM-25.310547 2.5273438L-24.074219 2.5273438L-24.074219 3.5351562L-25.035156 5.4101562L-25.791016 5.4101562L-25.310547 3.5351562L-25.310547 2.5273438ZM-19.087891 -3.953125Q-20.001953 -3.953125 -20.461914 -3.0537109Q-20.921875 -2.1542969 -20.921875 -0.34960938Q-20.921875 1.4492188 -20.461914 2.3486328Q-20.001953 3.2480469 -19.087891 3.2480469Q-18.167969 3.2480469 -17.708008 2.3486328Q-17.248047 1.4492188 -17.248047 -0.34960938Q-17.248047 -2.1542969 -17.708008 -3.0537109Q-18.167969 -3.953125 -19.087891 -3.953125ZM-19.087891 -4.890625Q-17.617188 -4.890625 -16.84082 -3.7275391Q-16.064453 -2.5644531 -16.064453 -0.34960938Q-16.064453 1.859375 -16.84082 3.0224609Q-17.617188 4.1855469 -19.087891 4.1855469Q-20.558594 4.1855469 -21.334961 3.0224609Q-22.111328 1.859375 -22.111328 -0.34960938Q-22.111328 -2.5644531 -21.334961 -3.7275391Q-20.558594 -4.890625 -19.087891 -4.890625ZM-11.453125 -3.953125Q-12.367188 -3.953125 -12.827148 -3.0537109Q-13.287109 -2.1542969 -13.287109 -0.34960938Q-13.287109 1.4492188 -12.827148 2.3486328Q-12.367188 3.2480469 -11.453125 3.2480469Q-10.533203 3.2480469 -10.073242 2.3486328Q-9.6132812 1.4492188 -9.6132812 -0.34960938Q-9.6132812 -2.1542969 -10.073242 -3.0537109Q-10.533203 -3.953125 -11.453125 -3.953125ZM-11.453125 -4.890625Q-9.9824219 -4.890625 -9.2060547 -3.7275391Q-8.4296875 -2.5644531 -8.4296875 -0.34960938Q-8.4296875 1.859375 -9.2060547 3.0224609Q-9.9824219 4.1855469 -11.453125 4.1855469Q-12.923828 4.1855469 -13.700195 3.0224609Q-14.476562 1.859375 -14.476562 -0.34960938Q-14.476562 -2.5644531 -13.700195 -3.7275391Q-12.923828 -4.890625 -11.453125 -4.890625ZM-3.8183594 -3.953125Q-4.7324219 -3.953125 -5.1923828 -3.0537109Q-5.6523438 -2.1542969 -5.6523438 -0.34960938Q-5.6523438 1.4492188 -5.1923828 2.3486328Q-4.7324219 3.2480469 -3.8183594 3.2480469Q-2.8984375 3.2480469 -2.4384766 2.3486328Q-1.9785156 1.4492188 -1.9785156 -0.34960938Q-1.9785156 -2.1542969 -2.4384766 -3.0537109Q-2.8984375 -3.953125 -3.8183594 -3.953125ZM-3.8183594 -4.890625Q-2.3476562 -4.890625 -1.5712891 -3.7275391Q-0.79492188 -2.5644531 -0.79492188 -0.34960938Q-0.79492188 1.859375 -1.5712891 3.0224609Q-2.3476562 4.1855469 -3.8183594 4.1855469Q-5.2890625 4.1855469 -6.0654297 3.0224609Q-6.8417969 1.859375 -6.8417969 -0.34960938Q-6.8417969 -2.5644531 -6.0654297 -3.7275391Q-5.2890625 -4.890625 -3.8183594 -4.890625Z"/>
	</g>
	<clipPath id="cl_280">
		<rect width="78.389999" height="600"/>
	</clipPath>
	<g clip-path="url(#cl_280)">
		<path fill="#666" transform="translate(67.39 85.88)" d="M-33.033203 3.8339844L-33.033203 2.7558594Q-32.587891 2.9667969 -32.130859 3.078125Q-31.673828 3.1894531 -31.234375 3.1894531Q-30.0625 3.1894531 -29.444336 2.4013672Q-28.826172 1.6132812 -28.738281 0.0078125Q-29.078125 0.51171875 -29.599609 0.78125Q-30.121094 1.0507812 -30.753906 1.0507812Q-32.066406 1.0507812 -32.831055 0.25683594Q-33.595703 -0.53710938 -33.595703 -1.9140625Q-33.595703 -3.2617188 -32.798828 -4.0761719Q-32.001953 -4.890625 -30.677734 -4.890625Q-29.160156 -4.890625 -28.360352 -3.7275391Q-27.560547 -2.5644531 -27.560547 -0.34960938Q-27.560547 1.71875 -28.541992 2.9521484Q-29.523438 4.1855469 -31.181641 4.1855469Q-31.626953 4.1855469 -32.083984 4.0976562Q-32.541016 4.0097656 -33.033203 3.8339844ZM-30.677734 0.125Q-29.880859 0.125 -29.415039 -0.41992188Q-28.949219 -0.96484375 -28.949219 -1.9140625Q-28.949219 -2.8574219 -29.415039 -3.4052734Q-29.880859 -3.953125 -30.677734 -3.953125Q-31.474609 -3.953125 -31.94043 -3.4052734Q-32.40625 -2.8574219 -32.40625 -1.9140625Q-32.40625 -0.96484375 -31.94043 -0.41992188Q-31.474609 0.125 -30.677734 0.125ZM-25.310547 2.5273438L-24.074219 2.5273438L-24.074219 3.5351562L-25.035156 5.4101562L-25.791016 5.4101562L-25.310547 3.5351562L-25.310547 2.5273438ZM-19.087891 -3.953125Q-20.001953 -3.953125 -20.461914 -3.0537109Q-20.921875 -2.1542969 -20.921875 -0.34960938Q-20.921875 1.4492188 -20.461914 2.3486328Q-20.001953 3.2480469 -19.087891 3.2480469Q-18.167969 3.2480469 -17.708008 2.3486328Q-17.248047 1.4492188 -17.248047 -0.34960938Q-17.248047 -2.1542969 -17.708008 -3.0537109Q-18.167969 -3.953125 -19.087891 -3.953125ZM-19.087891 -4.890625Q-17.617188 -4.890625 -16.84082 -3.7275391Q-16.064453 -2.5644531 -16.064453 -0.34960938Q-16.064453 1.859375 -16.84082 3.0224609Q-17.617188 4.1855469 -19.087891 4.1855469Q-20.558594 4.1855469 -21.334961 3.0224609Q-22.111328 1.859375 -22.111328 -0.34960938Q-22.111328 -2.5644531 -21.334961 -3.7275391Q-20.558594 -4.890625 -19.087891 -4.890625ZM-11.453125 -3.953125Q-12.367188 -3.953125 -12.827148 -3.0537109Q-13.287109 -2.1542969 -13.287109 -0.34960938Q-13.287109 1.4492188 -12.827148 2.3486328Q-12.367188 3.2480469 -11.453125 3.2480469Q-10.533203 3.2480469 -10.073242 2.3486328Q-9.6132812 1.4492188 -9.6132812 -0.34960938Q-9.6132812 -2.1542969 -10.073242 -3.0537109Q-10.533203 -3.953125 -11.453125 -3.953125ZM-11.453125 -4.890625Q-9.9824219 -4.890625 -9.2060547 -3.7275391Q-8.4296875 -2.5644531 -8.4296875 -0.34960938Q-8.4296875 1.859375 -9.2060547 3.0224609Q-9.9824219 4.1855469 -11.453125 4.1855469Q-12.923828 4.1855469 -13.700195 3.0224609Q-14.476562 1.859375 -14.476562 -0.34960938Q-14.476562 -2.5644531 -13.700195 -3.7275391Q-12.923828 -4.890625 -11.453125 -4.890625ZM-3.8183594 -3.953125Q-4.7324219 -3.953125 -5.1923828 -3.0537109Q-5.6523438 -2.1542969 -5.6523438 -0.34960938Q-5.6523438 1.4492188 -5.1923828 2.3486328Q-4.7324219 3.2480469 -3.8183594 3.2480469Q-2.8984375 3.2480469 -2.4384766 2.3486328Q-1.9785156 1.4492188 -1.9785156 -0.34960938Q-1.9785156 -2.1542969 -2.4384766 -3.0537109Q-2.8984375 -3.953125 -3.8183594 -3.953125ZM-3.8183594 -4.890625Q-2.3476562 -4.890625 -1.5712891 -3.7275391Q-0.79492188 -2.5644531 -0.79492188 -0.34960938Q-0.79492188 1.859375 -1.5712891 3.0224609Q-2.3476562 4.1855469 -3.8183594 4.1855469Q-5.2890625 4.1855469 -6.0654297 3.0224609Q-6.8417969 1.859375 -6.8417969 -0.34960938Q-6.8417969 -2.5644531 -6.0654297 -3.7275391Q-5.2890625 -4.890625 -3.8183594 -4.890625Z"/>
	</g>
	<clipPath id="cl_281">
		<rect width="78.389999" height="600"/>
	</clipPath>
	<g clip-path="url(#cl_281)">
		<path fill="#666" transform="translate(67.39 34.4)" d="M-40.496094 3.0195312L-38.5625 3.0195312L-38.5625 -3.6542969L-40.666016 -3.2324219L-40.666016 -4.3105469L-38.574219 -4.7324219L-37.390625 -4.7324219L-37.390625 3.0195312L-35.457031 3.0195312L-35.457031 4.015625L-40.496094 4.015625L-40.496094 3.0195312ZM-30.535156 -3.953125Q-31.449219 -3.953125 -31.90918 -3.0537109Q-32.369141 -2.1542969 -32.369141 -0.34960938Q-32.369141 1.4492188 -31.90918 2.3486328Q-31.449219 3.2480469 -30.535156 3.2480469Q-29.615234 3.2480469 -29.155273 2.3486328Q-28.695312 1.4492188 -28.695312 -0.34960938Q-28.695312 -2.1542969 -29.155273 -3.0537109Q-29.615234 -3.953125 -30.535156 -3.953125ZM-30.535156 -4.890625Q-29.064453 -4.890625 -28.288086 -3.7275391Q-27.511719 -2.5644531 -27.511719 -0.34960938Q-27.511719 1.859375 -28.288086 3.0224609Q-29.064453 4.1855469 -30.535156 4.1855469Q-32.005859 4.1855469 -32.782227 3.0224609Q-33.558594 1.859375 -33.558594 -0.34960938Q-33.558594 -2.5644531 -32.782227 -3.7275391Q-32.005859 -4.890625 -30.535156 -4.890625ZM-25.308594 2.5273438L-24.072266 2.5273438L-24.072266 3.5351562L-25.033203 5.4101562L-25.789062 5.4101562L-25.308594 3.5351562L-25.308594 2.5273438ZM-19.085938 -3.953125Q-20 -3.953125 -20.459961 -3.0537109Q-20.919922 -2.1542969 -20.919922 -0.34960938Q-20.919922 1.4492188 -20.459961 2.3486328Q-20 3.2480469 -19.085938 3.2480469Q-18.166016 3.2480469 -17.706055 2.3486328Q-17.246094 1.4492188 -17.246094 -0.34960938Q-17.246094 -2.1542969 -17.706055 -3.0537109Q-18.166016 -3.953125 -19.085938 -3.953125ZM-19.085938 -4.890625Q-17.615234 -4.890625 -16.838867 -3.7275391Q-16.0625 -2.5644531 -16.0625 -0.34960938Q-16.0625 1.859375 -16.838867 3.0224609Q-17.615234 4.1855469 -19.085938 4.1855469Q-20.556641 4.1855469 -21.333008 3.0224609Q-22.109375 1.859375 -22.109375 -0.34960938Q-22.109375 -2.5644531 -21.333008 -3.7275391Q-20.556641 -4.890625 -19.085938 -4.890625ZM-11.451172 -3.953125Q-12.365234 -3.953125 -12.825195 -3.0537109Q-13.285156 -2.1542969 -13.285156 -0.34960938Q-13.285156 1.4492188 -12.825195 2.3486328Q-12.365234 3.2480469 -11.451172 3.2480469Q-10.53125 3.2480469 -10.071289 2.3486328Q-9.6113281 1.4492188 -9.6113281 -0.34960938Q-9.6113281 -2.1542969 -10.071289 -3.0537109Q-10.53125 -3.953125 -11.451172 -3.953125ZM-11.451172 -4.890625Q-9.9804688 -4.890625 -9.2041016 -3.7275391Q-8.4277344 -2.5644531 -8.4277344 -0.34960938Q-8.4277344 1.859375 -9.2041016 3.0224609Q-9.9804688 4.1855469 -11.451172 4.1855469Q-12.921875 4.1855469 -13.698242 3.0224609Q-14.474609 1.859375 -14.474609 -0.34960938Q-14.474609 -2.5644531 -13.698242 -3.7275391Q-12.921875 -4.890625 -11.451172 -4.890625ZM-3.8164062 -3.953125Q-4.7304688 -3.953125 -5.1904297 -3.0537109Q-5.6503906 -2.1542969 -5.6503906 -0.34960938Q-5.6503906 1.4492188 -5.1904297 2.3486328Q-4.7304688 3.2480469 -3.8164062 3.2480469Q-2.8964844 3.2480469 -2.4365234 2.3486328Q-1.9765625 1.4492188 -1.9765625 -0.34960938Q-1.9765625 -2.1542969 -2.4365234 -3.0537109Q-2.8964844 -3.953125 -3.8164062 -3.953125ZM-3.8164062 -4.890625Q-2.3457031 -4.890625 -1.5693359 -3.7275391Q-0.79296875 -2.5644531 -0.79296875 -0.34960938Q-0.79296875 1.859375 -1.5693359 3.0224609Q-2.3457031 4.1855469 -3.8164062 4.1855469Q-5.2871094 4.1855469 -6.0634766 3.0224609Q-6.8398438 1.859375 -6.8398438 -0.34960938Q-6.8398438 -2.5644531 -6.0634766 -3.7275391Q-5.2871094 -4.890625 -3.8164062 -4.890625Z"/>
	</g>
	<clipPath id="cl_283">
		<rect x="78.389999" y="34.400002" width="921.60999" height="514.79999"/>
	</clipPath>
	<g clip-path="url(#cl_283)">
		<path fill="#0EA5E9" d="M110.64635 545.90527L276.53616 545.90527L276.53616 548.70001L110.64635 548.70001L110.64635 545.90527Z"/>
	</g>
	<clipPath id="cl_284">
		<rect x="78.389999" y="34.400002" width="921.60999" height="514.79999"/>
	</clipPath>
	<g clip-path="url(#cl_284)">
		<path fill="#22C55E" d="M341.04886 80.423119L506.93866 80.423119L506.93866 548.70001L341.04886 548.70001L341.04886 80.423119Z"/>
	</g>
	<clipPath id="cl_285">
		<rect x="78.389999" y="34.400002" width="921.60999" height="514.79999"/>
	</clipPath>
	<g clip-path="url(#cl_285)">
		<path fill="#F97316" d="M571.45135 544.72125L737.34119 544.72125L737.34119 548.70001L571.45135 548.70001L571.45135 544.72125Z"/>
	</g>
	<clipPath id="cl_286">
		<rect x="78.389999" y="34.400002" width="921.60999" height="514.79999"/>
	</clipPath>
	<g clip-path="url(#cl_286)">
		<path fill="#E11D48" d="M801.85382 458.44077L967.74365 458.44077L967.74365 548.70001L801.85382 548.70001L801.85382 458.44077Z"/>
	</g>
</svg>
