<?xml version="1.0" encoding="utf-8" ?>
<svg xmlns="http://www.w3.org/2000/svg" xmlns:xlink="http://www.w3.org/1999/xlink" width="1000" height="600">
	<rect fill="white" width="1000" height="600"/>
	<path fill="none" stroke="black" stroke-width="1" stroke-miterlimit="10" stroke-opacity="0.10196079" d="M78.5 34.400002L78.5 549"/>
	<path fill="none" stroke="black" stroke-width="1" stroke-miterlimit="10" stroke-opacity="0.10196079" d="M78.5 550L78.5 557.20001"/>
	<path fill="none" stroke="black" stroke-width="1" stroke-miterlimit="10" stroke-opacity="0.10196079" d="M539.5 34.400002L539.5 549"/>
	<path fill="none" stroke="black" stroke-width="1" stroke-miterlimit="10" stroke-opacity="0.10196079" d="M539.5 550L539.5 557.20001"/>
	<path fill="none" stroke="black" stroke-width="1" stroke-miterlimit="10" stroke-opacity="0.10196079" d="M1000.5 34.400002L1000.5 549"/>
	<path fill="none" stroke="black" stroke-width="1" stroke-miterlimit="10" stroke-opacity="0.10196079" d="M1000.5 550L1000.5 557.20001"/>
	<path fill="#666" transform="translate(539.195 588.8)" d="M-18.934875 4.015625L-22.274719 -4.7324219L-21.038391 -4.7324219L-18.266907 2.6328125L-15.489563 -4.7324219L-14.259094 -4.7324219L-17.593079 4.015625L-18.934875 4.015625ZM-8.3469849 0.46484375L-8.3469849 0.9921875L-13.304016 0.9921875Q-13.233704 2.1054688 -12.633118 2.6884766Q-12.032532 3.2714844 -10.960266 3.2714844Q-10.339172 3.2714844 -9.7561646 3.1191406Q-9.1731567 2.9667969 -8.598938 2.6621094L-8.598938 3.6816406Q-9.1790161 3.9277344 -9.7883911 4.0566406Q-10.397766 4.1855469 -11.024719 4.1855469Q-12.595032 4.1855469 -13.512024 3.2714844Q-14.429016 2.3574219 -14.429016 0.79882812Q-14.429016 -0.8125 -13.558899 -1.7587891Q-12.688782 -2.7050781 -11.212219 -2.7050781Q-9.8880005 -2.7050781 -9.1174927 -1.8525391Q-8.3469849 -1 -8.3469849 0.46484375ZM-9.4251099 0.1484375Q-9.4368286 -0.73632812 -9.9202271 -1.2636719Q-10.403625 -1.7910156 -11.2005 -1.7910156Q-12.102844 -1.7910156 -12.644836 -1.28125Q-13.186829 -0.77148438 -13.26886 0.15429688L-9.4251099 0.1484375ZM-2.7747192 -1.5390625Q-2.9563599 -1.6445312 -3.1702271 -1.6943359Q-3.3840942 -1.7441406 -3.6419067 -1.7441406Q-4.5559692 -1.7441406 -5.0452271 -1.1494141Q-5.5344849 -0.5546875 -5.5344849 0.55859375L-5.5344849 4.015625L-6.6184692 4.015625L-6.6184692 -2.546875L-5.5344849 -2.546875L-5.5344849 -1.5273438Q-5.1946411 -2.125 -4.6497192 -2.4150391Q-4.1047974 -2.7050781 -3.3255005 -2.7050781Q-3.2141724 -2.7050781 -3.0794067 -2.6904297Q-2.9446411 -2.6757812 -2.7805786 -2.6464844L-2.7747192 -1.5390625ZM2.5397339 -2.3535156L2.5397339 -1.3339844Q2.0827026 -1.5683594 1.5905151 -1.6855469Q1.0983276 -1.8027344 0.57098389 -1.8027344Q-0.23175049 -1.8027344 -0.63311768 -1.5566406Q-1.0344849 -1.3105469 -1.0344849 -0.81835938Q-1.0344849 -0.44335938 -0.74737549 -0.22949219Q-0.46026611 -0.015625 0.40692139 0.17773438L0.77606201 0.25976562Q1.9244995 0.50585938 2.4078979 0.95410156Q2.8912964 1.4023438 2.8912964 2.2050781Q2.8912964 3.1191406 2.1676636 3.6523438Q1.4440308 4.1855469 0.17840576 4.1855469Q-0.34893799 4.1855469 -0.92022705 4.0830078Q-1.4915161 3.9804688 -2.1243286 3.7753906L-2.1243286 2.6621094Q-1.5266724 2.9726562 -0.94659424 3.1279297Q-0.36651611 3.2832031 0.20184326 3.2832031Q0.96356201 3.2832031 1.3737183 3.0224609Q1.7838745 2.7617188 1.7838745 2.2871094Q1.7838745 1.8476562 1.4879761 1.6132812Q1.1920776 1.3789062 0.19012451 1.1621094L-0.18487549 1.0742188Q-1.1868286 0.86328125 -1.6321411 0.42675781Q-2.0774536 -0.009765625 -2.0774536 -0.77148438Q-2.0774536 -1.6972656 -1.4212036 -2.2011719Q-0.76495361 -2.7050781 0.44207764 -2.7050781Q1.0397339 -2.7050781 1.5670776 -2.6171875Q2.0944214 -2.5292969 2.5397339 -2.3535156ZM4.6080933 -2.546875L5.6862183 -2.546875L5.6862183 4.015625L4.6080933 4.015625L4.6080933 -2.546875ZM4.6080933 -5.1015625L5.6862183 -5.1015625L5.6862183 -3.7363281L4.6080933 -3.7363281L4.6080933 -5.1015625ZM10.485046 -1.7910156Q9.6178589 -1.7910156 9.1139526 -1.1142578Q8.6100464 -0.4375 8.6100464 0.74023438Q8.6100464 1.9179688 9.1110229 2.5947266Q9.6119995 3.2714844 10.485046 3.2714844Q11.346375 3.2714844 11.850281 2.5917969Q12.354187 1.9121094 12.354187 0.74023438Q12.354187 -0.42578125 11.850281 -1.1083984Q11.346375 -1.7910156 10.485046 -1.7910156ZM10.485046 -2.7050781Q11.891296 -2.7050781 12.694031 -1.7910156Q13.496765 -0.87695312 13.496765 0.74023438Q13.496765 2.3515625 12.694031 3.2685547Q11.891296 4.1855469 10.485046 4.1855469Q9.072937 4.1855469 8.2731323 3.2685547Q7.4733276 2.3515625 7.4733276 0.74023438Q7.4733276 -0.87695312 8.2731323 -1.7910156Q9.072937 -2.7050781 10.485046 -2.7050781ZM20.738953 0.0546875L20.738953 4.015625L19.660828 4.015625L19.660828 0.08984375Q19.660828 -0.84179688 19.297546 -1.3046875Q18.934265 -1.7675781 18.207703 -1.7675781Q17.334656 -1.7675781 16.83075 -1.2109375Q16.326843 -0.65429688 16.326843 0.30664062L16.326843 4.015625L15.242859 4.015625L15.242859 -2.546875L16.326843 -2.546875L16.326843 -1.5273438Q16.713562 -2.1191406 17.237976 -2.4121094Q17.76239 -2.7050781 18.447937 -2.7050781Q19.578796 -2.7050781 20.158875 -2.0048828Q20.738953 -1.3046875 20.738953 0.0546875Z"/>
	<path fill="none" stroke="black" stroke-width="1" stroke-miterlimit="10" stroke-opacity="0.10196079" d="M79 549.5L1000 549.5"/>
	<path fill="none" stroke="black" stroke-width="1" stroke-miterlimit="10" stroke-opacity="0.10196079" d="M70.389999 549.5L78 549.5"/>
	<path fill="none" stroke="black" stroke-width="1" stroke-miterlimit="10" stroke-opacity="0.10196079" d="M79 497.5L1000 497.5"/>
	<path fill="none" stroke="black" stroke-width="1" stroke-miterlimit="10" stroke-opacity="0.10196079" d="M70.389999 497.5L78 497.5"/>
	<path fill="none" stroke="black" stroke-width="1" stroke-miterlimit="10" stroke-opacity="0.10196079" d="M79 446.5L1000 446.5"/>
	<path fill="none" stroke="black" stroke-width="1" stroke-miterlimit="10" stroke-opacity="0.10196079" d="M70.389999 446.5L78 446.5"/>
	<path fill="none" stroke="black" stroke-width="1" stroke-miterlimit="10" stroke-opacity="0.10196079" d="M79 394.5L1000 394.5"/>
	<path fill="none" stroke="black" stroke-width="1" stroke-miterlimit="10" stroke-opacity="0.10196079" d="M70.389999 394.5L78 394.5"/>
	<path fill="none" stroke="black" stroke-width="1" stroke-miterlimit="10" stroke-opacity="0.10196079" d="M79 343.5L1000 343.5"/>
	<path fill="none" stroke="black" stroke-width="1" stroke-miterlimit="10" stroke-opacity="0.10196079" d="M70.389999 343.5L78 343.5"/>
	<path fill="none" stroke="black" stroke-width="1" stroke-miterlimit="10" stroke-opacity="0.10196079" d="M79 291.5L1000 291.5"/>
	<path fill="none" stroke="black" stroke-width="1" stroke-miterlimit="10" stroke-opacity="0.10196079" d="M70.389999 291.5L78 291.5"/>
	<path fill="none" stroke="black" stroke-width="1" stroke-miterlimit="10" stroke-opacity="0.10196079" d="M79 240.5L1000 240.5"/>
	<path fill="none" stroke="black" stroke-width="1" stroke-miterlimit="10" stroke-opacity="0.10196079" d="M70.389999 240.5L78 240.5"/>
	<path fill="none" stroke="black" stroke-width="1" stroke-miterlimit="10" stroke-opacity="0.10196079" d="M79 188.5L1000 188.5"/>
	<path fill="none" stroke="black" stroke-width="1" stroke-miterlimit="10" stroke-opacity="0.10196079" d="M70.389999 188.5L78 188.5"/>
	<path fill="none" stroke="black" stroke-width="1" stroke-miterlimit="10" stroke-opacity="0.10196079" d="M79 137.5L1000 137.5"/>
	<path fill="none" stroke="black" stroke-width="1" stroke-miterlimit="10" stroke-opacity="0.10196079" d="M70.389999 137.5L78 137.5"/>
	<path fill="none" stroke="black" stroke-width="1" stroke-miterlimit="10" stroke-opacity="0.10196079" d="M79 85.5L1000 85.5"/>
	<path fill="none" stroke="black" stroke-width="1" stroke-miterlimit="10" stroke-opacity="0.10196079" d="M70.389999 85.5L78 85.5"/>
	<path fill="none" stroke="black" stroke-width="1" stroke-miterlimit="10" stroke-opacity="0.10196079" d="M79 34.5L1000 34.5"/>
	<path fill="none" stroke="black" stroke-width="1" stroke-miterlimit="10" stroke-opacity="0.10196079" d="M70.389999 34.5L78 34.5"/>
	<path fill="#666" transform="matrix(0 -1 1 0 11.2 291.8)" d="M-30.587891 -3.7597656L-30.587891 3.0429688L-29.158203 3.0429688Q-27.347656 3.0429688 -26.506836 2.2226562Q-25.666016 1.4023438 -25.666016 -0.3671875Q-25.666016 -2.125 -26.506836 -2.9423828Q-27.347656 -3.7597656 -29.158203 -3.7597656L-30.587891 -3.7597656ZM-31.771484 -4.7324219L-29.339844 -4.7324219Q-26.796875 -4.7324219 -25.607422 -3.6748047Q-24.417969 -2.6171875 -24.417969 -0.3671875Q-24.417969 1.8945312 -25.613281 2.9550781Q-26.808594 4.015625 -29.339844 4.015625L-31.771484 4.015625L-31.771484 -4.7324219ZM-20.035156 -1.7910156Q-20.902344 -1.7910156 -21.40625 -1.1142578Q-21.910156 -0.4375 -21.910156 0.74023438Q-21.910156 1.9179688 -21.40918 2.5947266Q-20.908203 3.2714844 -20.035156 3.2714844Q-19.173828 3.2714844 -18.669922 2.5917969Q-18.166016 1.9121094 -18.166016 0.74023438Q-18.166016 -0.42578125 -18.669922 -1.1083984Q-19.173828 -1.7910156 -20.035156 -1.7910156ZM-20.035156 -2.7050781Q-18.628906 -2.7050781 -17.826172 -1.7910156Q-17.023438 -0.87695312 -17.023438 0.74023438Q-17.023438 2.3515625 -17.826172 3.2685547Q-18.628906 4.1855469 -20.035156 4.1855469Q-21.447266 4.1855469 -22.24707 3.2685547Q-23.046875 2.3515625 -23.046875 0.74023438Q-23.046875 -0.87695312 -22.24707 -1.7910156Q-21.447266 -2.7050781 -20.035156 -2.7050781ZM-15.863281 -2.546875L-14.785156 -2.546875L-13.4375 2.5742188L-12.095703 -2.546875L-10.824219 -2.546875L-9.4765625 2.5742188L-8.1347656 -2.546875L-7.0566406 -2.546875L-8.7734375 4.015625L-10.044922 4.015625L-11.457031 -1.3632812L-12.875 4.015625L-14.146484 4.015625L-15.863281 -2.546875ZM0.033203125 0.0546875L0.033203125 4.015625L-1.0449219 4.015625L-1.0449219 0.08984375Q-1.0449219 -0.84179688 -1.4082031 -1.3046875Q-1.7714844 -1.7675781 -2.4980469 -1.7675781Q-3.3710938 -1.7675781 -3.875 -1.2109375Q-4.3789062 -0.65429688 -4.3789062 0.30664062L-4.3789062 4.015625L-5.4628906 4.015625L-5.4628906 -2.546875L-4.3789062 -2.546875L-4.3789062 -1.5273438Q-3.9921875 -2.1191406 -3.4677734 -2.4121094Q-2.9433594 -2.7050781 -2.2578125 -2.7050781Q-1.1269531 -2.7050781 -0.546875 -2.0048828Q0.033203125 -1.3046875 0.033203125 0.0546875ZM2.1835938 -5.1015625L3.2617188 -5.1015625L3.2617188 4.015625L2.1835938 4.015625L2.1835938 -5.1015625ZM8.0605469 -1.7910156Q7.1933594 -1.7910156 6.6894531 -1.1142578Q6.1855469 -0.4375 6.1855469 0.74023438Q6.1855469 1.9179688 6.6865234 2.5947266Q7.1875 3.2714844 8.0605469 3.2714844Q8.921875 3.2714844 9.4257812 2.5917969Q9.9296875 1.9121094 9.9296875 0.74023438Q9.9296875 -0.42578125 9.4257812 -1.1083984Q8.921875 -1.7910156 8.0605469 -1.7910156ZM8.0605469 -2.7050781Q9.4667969 -2.7050781 10.269531 -1.7910156Q11.072266 -0.87695312 11.072266 0.74023438Q11.072266 2.3515625 10.269531 3.2685547Q9.4667969 4.1855469 8.0605469 4.1855469Q6.6484375 4.1855469 5.8486328 3.2685547Q5.0488281 2.3515625 5.0488281 0.74023438Q5.0488281 -0.87695312 5.8486328 -1.7910156Q6.6484375 -2.7050781 8.0605469 -2.7050781ZM15.841797 0.71679688Q14.535156 0.71679688 14.03125 1.015625Q13.527344 1.3144531 13.527344 2.0351562Q13.527344 2.609375 13.905273 2.9462891Q14.283203 3.2832031 14.933594 3.2832031Q15.830078 3.2832031 16.37207 2.6474609Q16.914062 2.0117188 16.914062 0.95703125L16.914062 0.71679688L15.841797 0.71679688ZM17.992188 0.27148438L17.992188 4.015625L16.914062 4.015625L16.914062 3.0195312Q16.544922 3.6171875 15.994141 3.9013672Q15.443359 4.1855469 14.646484 4.1855469Q13.638672 4.1855469 13.043945 3.6201172Q12.449219 3.0546875 12.449219 2.1054688Q12.449219 0.99804688 13.19043 0.43554688Q13.931641 -0.12695312 15.402344 -0.12695312L16.914062 -0.12695312L16.914062 -0.23242188Q16.914062 -0.9765625 16.424805 -1.3837891Q15.935547 -1.7910156 15.050781 -1.7910156Q14.488281 -1.7910156 13.955078 -1.65625Q13.421875 -1.5214844 12.929688 -1.2519531L12.929688 -2.2480469Q13.521484 -2.4765625 14.078125 -2.5908203Q14.634766 -2.7050781 15.162109 -2.7050781Q16.585938 -2.7050781 17.289062 -1.9667969Q17.992188 -1.2285156 17.992188 0.27148438ZM24.53125 -1.5507812L24.53125 -5.1015625L25.609375 -5.1015625L25.609375 4.015625L24.53125 4.015625L24.53125 3.03125Q24.191406 3.6171875 23.672852 3.9013672Q23.154297 4.1855469 22.427734 4.1855469Q21.238281 4.1855469 20.491211 3.2363281Q19.744141 2.2871094 19.744141 0.74023438Q19.744141 -0.80664062 20.491211 -1.7558594Q21.238281 -2.7050781 22.427734 -2.7050781Q23.154297 -2.7050781 23.672852 -2.4208984Q24.191406 -2.1367188 24.53125 -1.5507812ZM20.857422 0.74023438Q20.857422 1.9296875 21.34668 2.6064453Q21.835938 3.2832031 22.691406 3.2832031Q23.546875 3.2832031 24.039062 2.6064453Q24.53125 1.9296875 24.53125 0.74023438Q24.53125 -0.44921875 24.039062 -1.1259766Q23.546875 -1.8027344 22.691406 -1.8027344Q21.835938 -1.8027344 21.34668 -1.1259766Q20.857422 -0.44921875 20.857422 0.74023438ZM32.013672 -2.3535156L32.013672 -1.3339844Q31.556641 -1.5683594 31.064453 -1.6855469Q30.572266 -1.8027344 30.044922 -1.8027344Q29.242188 -1.8027344 28.84082 -1.5566406Q28.439453 -1.3105469 28.439453 -0.81835938Q28.439453 -0.44335938 28.726562 -0.22949219Q29.013672 -0.015625 29.880859 0.17773438L30.25 0.25976562Q31.398438 0.50585938 31.881836 0.95410156Q32.365234 1.4023438 32.365234 2.2050781Q32.365234 3.1191406 31.641602 3.6523438Q30.917969 4.1855469 29.652344 4.1855469Q29.125 4.1855469 28.553711 4.0830078Q27.982422 3.9804688 27.349609 3.7753906L27.349609 2.6621094Q27.947266 2.9726562 28.527344 3.1279297Q29.107422 3.2832031 29.675781 3.2832031Q30.4375 3.2832031 30.847656 3.0224609Q31.257812 2.7617188 31.257812 2.2871094Q31.257812 1.8476562 30.961914 1.6132812Q30.666016 1.3789062 29.664062 1.1621094L29.289062 1.0742188Q28.287109 0.86328125 27.841797 0.42675781Q27.396484 -0.009765625 27.396484 -0.77148438Q27.396484 -1.6972656 28.052734 -2.2011719Q28.708984 -2.7050781 29.916016 -2.7050781Q30.513672 -2.7050781 31.041016 -2.6171875Q31.568359 -2.5292969 32.013672 -2.3535156Z"/>
	<path fill="#666" transform="translate(500 17.2)" d="M-143.02734 -2.3417969L-143.02734 -0.74804688Q-143.70117 -1.0292969 -144.32812 -1.1699219Q-144.95508 -1.3105469 -145.51172 -1.3105469Q-146.10938 -1.3105469 -146.39941 -1.1611328Q-146.68945 -1.0117188 -146.68945 -0.70117188Q-146.68945 -0.44921875 -146.46973 -0.31445312Q-146.25 -0.1796875 -145.68164 -0.11523438L-145.3125 -0.0625Q-143.70117 0.14257812 -143.14453 0.61132812Q-142.58789 1.0800781 -142.58789 2.0820312Q-142.58789 3.1308594 -143.36133 3.6582031Q-144.13477 4.1855469 -145.66992 4.1855469Q-146.32031 4.1855469 -147.01465 4.0830078Q-147.70898 3.9804688 -148.44141 3.7753906L-148.44141 2.1816406Q-147.81445 2.4863281 -147.15527 2.6386719Q-146.49609 2.7910156 -145.81641 2.7910156Q-145.20117 2.7910156 -144.89062 2.6210938Q-144.58008 2.4511719 -144.58008 2.1171875Q-144.58008 1.8359375 -144.79395 1.6982422Q-145.00781 1.5605469 -145.64648 1.484375L-146.01562 1.4375Q-147.41602 1.2617188 -147.97852 0.78710938Q-148.54102 0.3125 -148.54102 -0.65429688Q-148.54102 -1.6972656 -147.82617 -2.2011719Q-147.11133 -2.7050781 -145.63477 -2.7050781Q-145.05469 -2.7050781 -144.41602 -2.6171875Q-143.77734 -2.5292969 -143.02734 -2.3417969ZM-138.07031 1.0625Q-138.72656 1.0625 -139.05762 1.2851562Q-139.38867 1.5078125 -139.38867 1.9414062Q-139.38867 2.3398438 -139.12207 2.5654297Q-138.85547 2.7910156 -138.38086 2.7910156Q-137.78906 2.7910156 -137.38477 2.3662109Q-136.98047 1.9414062 -136.98047 1.3027344L-136.98047 1.0625L-138.07031 1.0625ZM-134.86523 0.27148438L-134.86523 4.015625L-136.98047 4.015625L-136.98047 3.0429688Q-137.40234 3.640625 -137.92969 3.9130859Q-138.45703 4.1855469 -139.21289 4.1855469Q-140.23242 4.1855469 -140.86816 3.5908203Q-141.50391 2.9960938 -141.50391 2.046875Q-141.50391 0.89257812 -140.70996 0.35351562Q-139.91602 -0.18554688 -138.2168 -0.18554688L-136.98047 -0.18554688L-136.98047 -0.34960938Q-136.98047 -0.84765625 -137.37305 -1.0791016Q-137.76562 -1.3105469 -138.59766 -1.3105469Q-139.27148 -1.3105469 -139.85156 -1.1757812Q-140.43164 -1.0410156 -140.92969 -0.77148438L-140.92969 -2.3710938Q-140.25586 -2.5351562 -139.57617 -2.6201172Q-138.89648 -2.7050781 -138.2168 -2.7050781Q-136.44141 -2.7050781 -135.65332 -2.0048828Q-134.86523 -1.3046875 -134.86523 0.27148438ZM-132.91406 -2.546875L-130.81641 -2.546875L-130.81641 4.015625L-132.91406 4.015625L-132.91406 -2.546875ZM-132.91406 -5.1015625L-130.81641 -5.1015625L-130.81641 -3.390625L-132.91406 -3.390625L-132.91406 -5.1015625ZM-128.80078 -5.1015625L-126.70312 -5.1015625L-126.70312 4.015625L-128.80078 4.015625L-128.80078 -5.1015625ZM-122.58984 3.0664062L-122.58984 6.5117188L-124.6875 6.5117188L-124.6875 -2.546875L-122.58984 -2.546875L-122.58984 -1.5859375Q-122.15625 -2.1601562 -121.62891 -2.4326172Q-121.10156 -2.7050781 -120.41602 -2.7050781Q-119.20312 -2.7050781 -118.42383 -1.7412109Q-117.64453 -0.77734375 -117.64453 0.74023438Q-117.64453 2.2578125 -118.42383 3.2216797Q-119.20312 4.1855469 -120.41602 4.1855469Q-121.10156 4.1855469 -121.62891 3.9130859Q-122.15625 3.640625 -122.58984 3.0664062ZM-121.19531 -1.1816406Q-121.86914 -1.1816406 -122.22949 -0.68652344Q-122.58984 -0.19140625 -122.58984 0.74023438Q-122.58984 1.671875 -122.22949 2.1669922Q-121.86914 2.6621094 -121.19531 2.6621094Q-120.52148 2.6621094 -120.16699 2.1699219Q-119.8125 1.6777344 -119.8125 0.74023438Q-119.8125 -0.19726562 -120.16699 -0.68945312Q-120.52148 -1.1816406 -121.19531 -1.1816406ZM-112.97461 -1.2050781Q-113.67188 -1.2050781 -114.03809 -0.70410156Q-114.4043 -0.203125 -114.4043 0.74023438Q-114.4043 1.6835938 -114.03809 2.1845703Q-113.67188 2.6855469 -112.97461 2.6855469Q-112.28906 2.6855469 -111.92578 2.1845703Q-111.5625 1.6835938 -111.5625 0.74023438Q-111.5625 -0.203125 -111.92578 -0.70410156Q-112.28906 -1.2050781 -112.97461 -1.2050781ZM-112.97461 -2.7050781Q-111.28125 -2.7050781 -110.3291 -1.7910156Q-109.37695 -0.87695312 -109.37695 0.74023438Q-109.37695 2.3574219 -110.3291 3.2714844Q-111.28125 4.1855469 -112.97461 4.1855469Q-114.67383 4.1855469 -115.63184 3.2714844Q-116.58984 2.3574219 -116.58984 0.74023438Q-116.58984 -0.87695312 -115.63184 -1.7910156Q-114.67383 -2.7050781 -112.97461 -2.7050781ZM-107.85352 -2.546875L-105.75586 -2.546875L-105.75586 4.015625L-107.85352 4.015625L-107.85352 -2.546875ZM-107.85352 -5.1015625L-105.75586 -5.1015625L-105.75586 -3.390625L-107.85352 -3.390625L-107.85352 -5.1015625ZM-97.142578 0.01953125L-97.142578 4.015625L-99.251953 4.015625L-99.251953 3.3652344L-99.251953 0.95703125Q-99.251953 0.10742188 -99.290039 -0.21484375Q-99.328125 -0.53710938 -99.421875 -0.68945312Q-99.544922 -0.89453125 -99.755859 -1.0087891Q-99.966797 -1.1230469 -100.23633 -1.1230469Q-100.89258 -1.1230469 -101.26758 -0.61621094Q-101.64258 -0.109375 -101.64258 0.78710938L-101.64258 4.015625L-103.74023 4.015625L-103.74023 -2.546875L-101.64258 -2.546875L-101.64258 -1.5859375Q-101.16797 -2.1601562 -100.63477 -2.4326172Q-100.10156 -2.7050781 -99.457031 -2.7050781Q-98.320312 -2.7050781 -97.731445 -2.0078125Q-97.142578 -1.3105469 -97.142578 0.01953125ZM-92.90625 -4.4101562L-92.90625 -2.546875L-90.744141 -2.546875L-90.744141 -1.046875L-92.90625 -1.046875L-92.90625 1.7363281Q-92.90625 2.1933594 -92.724609 2.3544922Q-92.542969 2.515625 -92.003906 2.515625L-90.925781 2.515625L-90.925781 4.015625L-92.724609 4.015625Q-93.966797 4.015625 -94.485352 3.4970703Q-95.003906 2.9785156 -95.003906 1.7363281L-95.003906 -1.046875L-96.046875 -1.046875L-96.046875 -2.546875L-95.003906 -2.546875L-95.003906 -4.4101562L-92.90625 -4.4101562ZM-80.818359 -1.5859375L-80.818359 -5.1015625L-78.708984 -5.1015625L-78.708984 4.015625L-80.818359 4.015625L-80.818359 3.0664062Q-81.251953 3.6464844 -81.773438 3.9160156Q-82.294922 4.1855469 -82.980469 4.1855469Q-84.193359 4.1855469 -84.972656 3.2216797Q-85.751953 2.2578125 -85.751953 0.74023438Q-85.751953 -0.77734375 -84.972656 -1.7412109Q-84.193359 -2.7050781 -82.980469 -2.7050781Q-82.300781 -2.7050781 -81.776367 -2.4326172Q-81.251953 -2.1601562 -80.818359 -1.5859375ZM-82.201172 2.6621094Q-81.527344 2.6621094 -81.172852 2.1699219Q-80.818359 1.6777344 -80.818359 0.74023438Q-80.818359 -0.19726562 -81.172852 -0.68945312Q-81.527344 -1.1816406 -82.201172 -1.1816406Q-82.869141 -1.1816406 -83.223633 -0.68945312Q-83.578125 -0.19726562 -83.578125 0.74023438Q-83.578125 1.6777344 -83.223633 2.1699219Q-82.869141 2.6621094 -82.201172 2.6621094ZM-73.570312 -1.2050781Q-74.267578 -1.2050781 -74.633789 -0.70410156Q-75 -0.203125 -75 0.74023438Q-75 1.6835938 -74.633789 2.1845703Q-74.267578 2.6855469 -73.570312 2.6855469Q-72.884766 2.6855469 -72.521484 2.1845703Q-72.158203 1.6835938 -72.158203 0.74023438Q-72.158203 -0.203125 -72.521484 -0.70410156Q-72.884766 -1.2050781 -73.570312 -1.2050781ZM-73.570312 -2.7050781Q-71.876953 -2.7050781 -70.924805 -1.7910156Q-69.972656 -0.87695312 -69.972656 0.74023438Q-69.972656 2.3574219 -70.924805 3.2714844Q-71.876953 4.1855469 -73.570312 4.1855469Q-75.269531 4.1855469 -76.227539 3.2714844Q-77.185547 2.3574219 -77.185547 0.74023438Q-77.185547 -0.87695312 -76.227539 -1.7910156Q-75.269531 -2.7050781 -73.570312 -2.7050781ZM-69.035156 -2.546875L-66.996094 -2.546875L-65.894531 1.9765625L-64.787109 -2.546875L-63.035156 -2.546875L-61.933594 1.9296875L-60.826172 -2.546875L-58.787109 -2.546875L-60.515625 4.015625L-62.806641 4.015625L-63.914062 -0.49609375L-65.015625 4.015625L-67.306641 4.015625L-69.035156 -2.546875ZM-50.765625 0.01953125L-50.765625 4.015625L-52.875 4.015625L-52.875 3.3652344L-52.875 0.95703125Q-52.875 0.10742188 -52.913086 -0.21484375Q-52.951172 -0.53710938 -53.044922 -0.68945312Q-53.167969 -0.89453125 -53.378906 -1.0087891Q-53.589844 -1.1230469 -53.859375 -1.1230469Q-54.515625 -1.1230469 -54.890625 -0.61621094Q-55.265625 -0.109375 -55.265625 0.78710938L-55.265625 4.015625L-57.363281 4.015625L-57.363281 -2.546875L-55.265625 -2.546875L-55.265625 -1.5859375Q-54.791016 -2.1601562 -54.257812 -2.4326172Q-53.724609 -2.7050781 -53.080078 -2.7050781Q-51.943359 -2.7050781 -51.354492 -2.0078125Q-50.765625 -1.3105469 -50.765625 0.01953125ZM-48.820312 -5.1015625L-46.722656 -5.1015625L-46.722656 4.015625L-48.820312 4.015625L-48.820312 -5.1015625ZM-41.583984 -1.2050781Q-42.28125 -1.2050781 -42.647461 -0.70410156Q-43.013672 -0.203125 -43.013672 0.74023438Q-43.013672 1.6835938 -42.647461 2.1845703Q-42.28125 2.6855469 -41.583984 2.6855469Q-40.898438 2.6855469 -40.535156 2.1845703Q-40.171875 1.6835938 -40.171875 0.74023438Q-40.171875 -0.203125 -40.535156 -0.70410156Q-40.898438 -1.2050781 -41.583984 -1.2050781ZM-41.583984 -2.7050781Q-39.890625 -2.7050781 -38.938477 -1.7910156Q-37.986328 -0.87695312 -37.986328 0.74023438Q-37.986328 2.3574219 -38.938477 3.2714844Q-39.890625 4.1855469 -41.583984 4.1855469Q-43.283203 4.1855469 -44.241211 3.2714844Q-45.199219 2.3574219 -45.199219 0.74023438Q-45.199219 -0.87695312 -44.241211 -1.7910156Q-43.283203 -2.7050781 -41.583984 -2.7050781ZM-33.521484 1.0625Q-34.177734 1.0625 -34.508789 1.2851562Q-34.839844 1.5078125 -34.839844 1.9414062Q-34.839844 2.3398438 -34.573242 2.5654297Q-34.306641 2.7910156 -33.832031 2.7910156Q-33.240234 2.7910156 -32.835938 2.3662109Q-32.431641 1.9414062 -32.431641 1.3027344L-32.431641 1.0625L-33.521484 1.0625ZM-30.316406 0.27148438L-30.316406 4.015625L-32.431641 4.015625L-32.431641 3.0429688Q-32.853516 3.640625 -33.380859 3.9130859Q-33.908203 4.1855469 -34.664062 4.1855469Q-35.683594 4.1855469 -36.319336 3.5908203Q-36.955078 2.9960938 -36.955078 2.046875Q-36.955078 0.89257812 -36.161133 0.35351562Q-35.367188 -0.18554688 -33.667969 -0.18554688L-32.431641 -0.18554688L-32.431641 -0.34960938Q-32.431641 -0.84765625 -32.824219 -1.0791016Q-33.216797 -1.3105469 -34.048828 -1.3105469Q-34.722656 -1.3105469 -35.302734 -1.1757812Q-35.882812 -1.0410156 -36.380859 -0.77148438L-36.380859 -2.3710938Q-35.707031 -2.5351562 -35.027344 -2.6201172Q-34.347656 -2.7050781 -33.667969 -2.7050781Q-31.892578 -2.7050781 -31.104492 -2.0048828Q-30.316406 -1.3046875 -30.316406 0.27148438ZM-23.900391 -1.5859375L-23.900391 -5.1015625L-21.791016 -5.1015625L-21.791016 4.015625L-23.900391 4.015625L-23.900391 3.0664062Q-24.333984 3.6464844 -24.855469 3.9160156Q-25.376953 4.1855469 -26.0625 4.1855469Q-27.275391 4.1855469 -28.054688 3.2216797Q-28.833984 2.2578125 -28.833984 0.74023438Q-28.833984 -0.77734375 -28.054688 -1.7412109Q-27.275391 -2.7050781 -26.0625 -2.7050781Q-25.382812 -2.7050781 -24.858398 -2.4326172Q-24.333984 -2.1601562 -23.900391 -1.5859375ZM-25.283203 2.6621094Q-24.609375 2.6621094 -24.254883 2.1699219Q-23.900391 1.6777344 -23.900391 0.74023438Q-23.900391 -0.19726562 -24.254883 -0.68945312Q-24.609375 -1.1816406 -25.283203 -1.1816406Q-25.951172 -1.1816406 -26.305664 -0.68945312Q-26.660156 -0.19726562 -26.660156 0.74023438Q-26.660156 1.6777344 -26.305664 2.1699219Q-25.951172 2.6621094 -25.283203 2.6621094ZM-14.648438 -2.3417969L-14.648438 -0.74804688Q-15.322266 -1.0292969 -15.949219 -1.1699219Q-16.576172 -1.3105469 -17.132812 -1.3105469Q-17.730469 -1.3105469 -18.020508 -1.1611328Q-18.310547 -1.0117188 -18.310547 -0.70117188Q-18.310547 -0.44921875 -18.09082 -0.31445312Q-17.871094 -0.1796875 -17.302734 -0.11523438L-16.933594 -0.0625Q-15.322266 0.14257812 -14.765625 0.61132812Q-14.208984 1.0800781 -14.208984 2.0820312Q-14.208984 3.1308594 -14.982422 3.6582031Q-15.755859 4.1855469 -17.291016 4.1855469Q-17.941406 4.1855469 -18.635742 4.0830078Q-19.330078 3.9804688 -20.0625 3.7753906L-20.0625 2.1816406Q-19.435547 2.4863281 -18.776367 2.6386719Q-18.117188 2.7910156 -17.4375 2.7910156Q-16.822266 2.7910156 -16.511719 2.6210938Q-16.201172 2.4511719 -16.201172 2.1171875Q-16.201172 1.8359375 -16.415039 1.6982422Q-16.628906 1.5605469 -17.267578 1.484375L-17.636719 1.4375Q-19.037109 1.2617188 -19.599609 0.78710938Q-20.162109 0.3125 -20.162109 -0.65429688Q-20.162109 -1.6972656 -19.447266 -2.2011719Q-18.732422 -2.7050781 -17.255859 -2.7050781Q-16.675781 -2.7050781 -16.037109 -2.6171875Q-15.398438 -2.5292969 -14.648438 -2.3417969ZM-4.9628906 2.6621094Q-4.2890625 2.6621094 -3.9345703 2.1699219Q-3.5800781 1.6777344 -3.5800781 0.74023438Q-3.5800781 -0.19726562 -3.9345703 -0.68945312Q-4.2890625 -1.1816406 -4.9628906 -1.1816406Q-5.6367188 -1.1816406 -5.9970703 -0.68652344Q-6.3574219 -0.19140625 -6.3574219 0.74023438Q-6.3574219 1.671875 -5.9970703 2.1669922Q-5.6367188 2.6621094 -4.9628906 2.6621094ZM-6.3574219 -1.5859375Q-5.9238281 -2.1601562 -5.3964844 -2.4326172Q-4.8691406 -2.7050781 -4.1835938 -2.7050781Q-2.9707031 -2.7050781 -2.1914062 -1.7412109Q-1.4121094 -0.77734375 -1.4121094 0.74023438Q-1.4121094 2.2578125 -2.1914062 3.2216797Q-2.9707031 4.1855469 -4.1835938 4.1855469Q-4.8691406 4.1855469 -5.3964844 3.9130859Q-5.9238281 3.640625 -6.3574219 3.0664062L-6.3574219 4.015625L-8.4550781 4.015625L-8.4550781 -5.1015625L-6.3574219 -5.1015625L-6.3574219 -1.5859375ZM-0.7265625 -2.546875L1.3710938 -2.546875L3.1347656 1.90625L4.6347656 -2.546875L6.7324219 -2.546875L3.9726562 4.6367188Q3.5566406 5.7324219 3.0029297 6.1689453Q2.4492188 6.6054688 1.5410156 6.6054688L0.328125 6.6054688L0.328125 5.2285156L0.984375 5.2285156Q1.5175781 5.2285156 1.7607422 5.0585938Q2.0039062 4.8886719 2.1386719 4.4492188L2.1972656 4.2675781L-0.7265625 -2.546875ZM12.228516 -4.7324219L15.972656 -4.7324219Q17.642578 -4.7324219 18.536133 -3.9912109Q19.429688 -3.25 19.429688 -1.8789062Q19.429688 -0.50195312 18.536133 0.23925781Q17.642578 0.98046875 15.972656 0.98046875L14.484375 0.98046875L14.484375 4.015625L12.228516 4.015625L12.228516 -4.7324219ZM14.484375 -3.0976562L14.484375 -0.65429688L15.732422 -0.65429688Q16.388672 -0.65429688 16.746094 -0.97363281Q17.103516 -1.2929688 17.103516 -1.8789062Q17.103516 -2.4648438 16.746094 -2.78125Q16.388672 -3.0976562 15.732422 -3.0976562L14.484375 -3.0976562ZM20.291016 -2.546875L22.388672 -2.546875L24.152344 1.90625L25.652344 -2.546875L27.75 -2.546875L24.990234 4.6367188Q24.574219 5.7324219 24.020508 6.1689453Q23.466797 6.6054688 22.558594 6.6054688L21.345703 6.6054688L21.345703 5.2285156L22.001953 5.2285156Q22.535156 5.2285156 22.77832 5.0585938Q23.021484 4.8886719 23.15625 4.4492188L23.214844 4.2675781L20.291016 -2.546875ZM31.265625 -4.4101562L31.265625 -2.546875L33.427734 -2.546875L33.427734 -1.046875L31.265625 -1.046875L31.265625 1.7363281Q31.265625 2.1933594 31.447266 2.3544922Q31.628906 2.515625 32.167969 2.515625L33.246094 2.515625L33.246094 4.015625L31.447266 4.015625Q30.205078 4.015625 29.686523 3.4970703Q29.167969 2.9785156 29.167969 1.7363281L29.167969 -1.046875L28.125 -1.046875L28.125 -2.546875L29.167969 -2.546875L29.167969 -4.4101562L31.265625 -4.4101562ZM41.308594 0.01953125L41.308594 4.015625L39.199219 4.015625L39.199219 3.3652344L39.199219 0.96875Q39.199219 0.10742188 39.161133 -0.21484375Q39.123047 -0.53710938 39.029297 -0.68945312Q38.90625 -0.89453125 38.695312 -1.0087891Q38.484375 -1.1230469 38.214844 -1.1230469Q37.558594 -1.1230469 37.183594 -0.61621094Q36.808594 -0.109375 36.808594 0.78710938L36.808594 4.015625L34.710938 4.015625L34.710938 -5.1015625L36.808594 -5.1015625L36.808594 -1.5859375Q37.283203 -2.1601562 37.816406 -2.4326172Q38.349609 -2.7050781 38.994141 -2.7050781Q40.130859 -2.7050781 40.719727 -2.0078125Q41.308594 -1.3105469 41.308594 0.01953125ZM46.376953 -1.2050781Q45.679688 -1.2050781 45.313477 -0.70410156Q44.947266 -0.203125 44.947266 0.74023438Q44.947266 1.6835938 45.313477 2.1845703Q45.679688 2.6855469 46.376953 2.6855469Q47.0625 2.6855469 47.425781 2.1845703Q47.789062 1.6835938 47.789062 0.74023438Q47.789062 -0.203125 47.425781 -0.70410156Q47.0625 -1.2050781 46.376953 -1.2050781ZM46.376953 -2.7050781Q48.070312 -2.7050781 49.022461 -1.7910156Q49.974609 -0.87695312 49.974609 0.74023438Q49.974609 2.3574219 49.022461 3.2714844Q48.070312 4.1855469 46.376953 4.1855469Q44.677734 4.1855469 43.719727 3.2714844Q42.761719 2.3574219 42.761719 0.74023438Q42.761719 -0.87695312 43.719727 -1.7910156Q44.677734 -2.7050781 46.376953 -2.7050781ZM58.095703 0.01953125L58.095703 4.015625L55.986328 4.015625L55.986328 3.3652344L55.986328 0.95703125Q55.986328 0.10742188 55.948242 -0.21484375Q55.910156 -0.53710938 55.816406 -0.68945312Q55.693359 -0.89453125 55.482422 -1.0087891Q55.271484 -1.1230469 55.001953 -1.1230469Q54.345703 -1.1230469 53.970703 -0.61621094Q53.595703 -0.109375 53.595703 0.78710938L53.595703 4.015625L51.498047 4.015625L51.498047 -2.546875L53.595703 -2.546875L53.595703 -1.5859375Q54.070312 -2.1601562 54.603516 -2.4326172Q55.136719 -2.7050781 55.78125 -2.7050781Q56.917969 -2.7050781 57.506836 -2.0078125Q58.095703 -1.3105469 58.095703 0.01953125ZM70.300781 -1.4570312Q70.699219 -2.0664062 71.24707 -2.3857422Q71.794922 -2.7050781 72.451172 -2.7050781Q73.582031 -2.7050781 74.173828 -2.0078125Q74.765625 -1.3105469 74.765625 0.01953125L74.765625 4.015625L72.65625 4.015625L72.65625 0.59375Q72.662109 0.51757812 72.665039 0.43554688Q72.667969 0.35351562 72.667969 0.20117188Q72.667969 -0.49609375 72.462891 -0.80957031Q72.257812 -1.1230469 71.800781 -1.1230469Q71.203125 -1.1230469 70.87793 -0.63085938Q70.552734 -0.13867188 70.541016 0.79296875L70.541016 4.015625L68.431641 4.015625L68.431641 0.59375Q68.431641 -0.49609375 68.244141 -0.80957031Q68.056641 -1.1230469 67.576172 -1.1230469Q66.972656 -1.1230469 66.644531 -0.62792969Q66.316406 -0.1328125 66.316406 0.78710938L66.316406 4.015625L64.207031 4.015625L64.207031 -2.546875L66.316406 -2.546875L66.316406 -1.5859375Q66.703125 -2.1425781 67.204102 -2.4238281Q67.705078 -2.7050781 68.308594 -2.7050781Q68.988281 -2.7050781 69.509766 -2.3769531Q70.03125 -2.0488281 70.300781 -1.4570312ZM79.664062 1.0625Q79.007812 1.0625 78.676758 1.2851562Q78.345703 1.5078125 78.345703 1.9414062Q78.345703 2.3398438 78.612305 2.5654297Q78.878906 2.7910156 79.353516 2.7910156Q79.945312 2.7910156 80.349609 2.3662109Q80.753906 1.9414062 80.753906 1.3027344L80.753906 1.0625L79.664062 1.0625ZM82.869141 0.27148438L82.869141 4.015625L80.753906 4.015625L80.753906 3.0429688Q80.332031 3.640625 79.804688 3.9130859Q79.277344 4.1855469 78.521484 4.1855469Q77.501953 4.1855469 76.866211 3.5908203Q76.230469 2.9960938 76.230469 2.046875Q76.230469 0.89257812 77.024414 0.35351562Q77.818359 -0.18554688 79.517578 -0.18554688L80.753906 -0.18554688L80.753906 -0.34960938Q80.753906 -0.84765625 80.361328 -1.0791016Q79.96875 -1.3105469 79.136719 -1.3105469Q78.462891 -1.3105469 77.882812 -1.1757812Q77.302734 -1.0410156 76.804688 -0.77148438L76.804688 -2.3710938Q77.478516 -2.5351562 78.158203 -2.6201172Q78.837891 -2.7050781 79.517578 -2.7050781Q81.292969 -2.7050781 82.081055 -2.0048828Q82.869141 -1.3046875 82.869141 0.27148438ZM84.820312 -2.546875L86.917969 -2.546875L86.917969 3.8984375Q86.917969 5.2167969 86.285156 5.9111328Q85.652344 6.6054688 84.451172 6.6054688L83.414062 6.6054688L83.414062 5.2285156L83.777344 5.2285156Q84.375 5.2285156 84.597656 4.9589844Q84.820312 4.6894531 84.820312 3.8984375L84.820312 -2.546875ZM84.820312 -5.1015625L86.917969 -5.1015625L86.917969 -3.390625L84.820312 -3.390625L84.820312 -5.1015625ZM92.056641 -1.2050781Q91.359375 -1.2050781 90.993164 -0.70410156Q90.626953 -0.203125 90.626953 0.74023438Q90.626953 1.6835938 90.993164 2.1845703Q91.359375 2.6855469 92.056641 2.6855469Q92.742188 2.6855469 93.105469 2.1845703Q93.46875 1.6835938 93.46875 0.74023438Q93.46875 -0.203125 93.105469 -0.70410156Q92.742188 -1.2050781 92.056641 -1.2050781ZM92.056641 -2.7050781Q93.75 -2.7050781 94.702148 -1.7910156Q95.654297 -0.87695312 95.654297 0.74023438Q95.654297 2.3574219 94.702148 3.2714844Q93.75 4.1855469 92.056641 4.1855469Q90.357422 4.1855469 89.399414 3.2714844Q88.441406 2.3574219 88.441406 0.74023438Q88.441406 -0.87695312 89.399414 -1.7910156Q90.357422 -2.7050781 92.056641 -2.7050781ZM102.05273 -0.75976562Q101.77734 -0.88867188 101.50488 -0.95019531Q101.23242 -1.0117188 100.95703 -1.0117188Q100.14844 -1.0117188 99.711914 -0.49316406Q99.275391 0.025390625 99.275391 0.9921875L99.275391 4.015625L97.177734 4.015625L97.177734 -2.546875L99.275391 -2.546875L99.275391 -1.46875Q99.679688 -2.1132812 100.2041 -2.4091797Q100.72852 -2.7050781 101.46094 -2.7050781Q101.56641 -2.7050781 101.68945 -2.6962891Q101.8125 -2.6875 102.04688 -2.6582031L102.05273 -0.75976562ZM110.78906 5.5976562L109.04883 5.5976562Q108.15234 4.1503906 107.72461 2.8466797Q107.29688 1.5429688 107.29688 0.25976562Q107.29688 -1.0234375 107.72754 -2.3388672Q108.1582 -3.6542969 109.04883 -5.0898438L110.78906 -5.0898438Q110.03906 -3.7011719 109.66406 -2.3740234Q109.28906 -1.046875 109.28906 0.24804688Q109.28906 1.5429688 109.66113 2.8730469Q110.0332 4.203125 110.78906 5.5976562ZM115.04883 -4.4101562L115.04883 -2.546875L117.21094 -2.546875L117.21094 -1.046875L115.04883 -1.046875L115.04883 1.7363281Q115.04883 2.1933594 115.23047 2.3544922Q115.41211 2.515625 115.95117 2.515625L117.0293 2.515625L117.0293 4.015625L115.23047 4.015625Q113.98828 4.015625 113.46973 3.4970703Q112.95117 2.9785156 112.95117 1.7363281L112.95117 -1.046875L111.9082 -1.046875L111.9082 -2.546875L112.95117 -2.546875L112.95117 -4.4101562L115.04883 -4.4101562ZM121.61719 -1.2050781Q120.91992 -1.2050781 120.55371 -0.70410156Q120.1875 -0.203125 120.1875 0.74023438Q120.1875 1.6835938 120.55371 2.1845703Q120.91992 2.6855469 121.61719 2.6855469Q122.30273 2.6855469 122.66602 2.1845703Q123.0293 1.6835938 123.0293 0.74023438Q123.0293 -0.203125 122.66602 -0.70410156Q122.30273 -1.2050781 121.61719 -1.2050781ZM121.61719 -2.7050781Q123.31055 -2.7050781 124.2627 -1.7910156Q125.21484 -0.87695312 125.21484 0.74023438Q125.21484 2.3574219 124.2627 3.2714844Q123.31055 4.1855469 121.61719 4.1855469Q119.91797 4.1855469 118.95996 3.2714844Q118.00195 2.3574219 118.00195 0.74023438Q118.00195 -0.87695312 118.95996 -1.7910156Q119.91797 -2.7050781 121.61719 -2.7050781ZM129.0293 -4.4101562L129.0293 -2.546875L131.19141 -2.546875L131.19141 -1.046875L129.0293 -1.046875L129.0293 1.7363281Q129.0293 2.1933594 129.21094 2.3544922Q129.39258 2.515625 129.93164 2.515625L131.00977 2.515625L131.00977 4.015625L129.21094 4.015625Q127.96875 4.015625 127.4502 3.4970703Q126.93164 2.9785156 126.93164 1.7363281L126.93164 -1.046875L125.88867 -1.046875L125.88867 -2.546875L126.93164 -2.546875L126.93164 -4.4101562L129.0293 -4.4101562ZM135.41602 1.0625Q134.75977 1.0625 134.42871 1.2851562Q134.09766 1.5078125 134.09766 1.9414062Q134.09766 2.3398438 134.36426 2.5654297Q134.63086 2.7910156 135.10547 2.7910156Q135.69727 2.7910156 136.10156 2.3662109Q136.50586 1.9414062 136.50586 1.3027344L136.50586 1.0625L135.41602 1.0625ZM138.62109 0.27148438L138.62109 4.015625L136.50586 4.015625L136.50586 3.0429688Q136.08398 3.640625 135.55664 3.9130859Q135.0293 4.1855469 134.27344 4.1855469Q133.25391 4.1855469 132.61816 3.5908203Q131.98242 2.9960938 131.98242 2.046875Q131.98242 0.89257812 132.77637 0.35351562Q133.57031 -0.18554688 135.26953 -0.18554688L136.50586 -0.18554688L136.50586 -0.34960938Q136.50586 -0.84765625 136.11328 -1.0791016Q135.7207 -1.3105469 134.88867 -1.3105469Q134.21484 -1.3105469 133.63477 -1.1757812Q133.05469 -1.0410156 132.55664 -0.77148438L132.55664 -2.3710938Q133.23047 -2.5351562 133.91016 -2.6201172Q134.58984 -2.7050781 135.26953 -2.7050781Q137.04492 -2.7050781 137.83301 -2.0048828Q138.62109 -1.3046875 138.62109 0.27148438ZM140.57227 -5.1015625L142.66992 -5.1015625L142.66992 4.015625L140.57227 4.015625L140.57227 -5.1015625ZM144.63867 5.5976562Q145.38867 4.203125 145.76367 2.8730469Q146.13867 1.5429688 146.13867 0.24804688Q146.13867 -1.046875 145.76367 -2.3740234Q145.38867 -3.7011719 144.63867 -5.0898438L146.37891 -5.0898438Q147.26953 -3.6542969 147.7002 -2.3388672Q148.13086 -1.0234375 148.13086 0.25976562Q148.13086 1.5429688 147.70312 2.8466797Q147.27539 4.1503906 146.37891 5.5976562L144.63867 5.5976562Z"/>
	<path fill="none" stroke="black" stroke-width="1" stroke-miterlimit="10" stroke-opacity="0.10196079" d="M78 549.5L1001 549.5"/>
	<clipPath id="cl_241">
		<rect y="549.20001" width="1000" height="50.799988"/>
	</clipPath>
	<g clip-path="url(#cl_241)">
		<path fill="#666" transform="translate(308.793 560.2)" d="M-22.630859 10.23125L-22.630859 13.711719L-23.714844 13.711719L-23.714844 4.6531248L-22.630859 4.6531248L-22.630859 5.6492186Q-22.291016 5.0632811 -21.772461 4.7791014Q-21.253906 4.4949217 -20.533203 4.4949217Q-19.337891 4.4949217 -18.59082 5.4441404Q-17.84375 6.3933592 -17.84375 7.9402342Q-17.84375 9.4871092 -18.59082 10.436328Q-19.337891 11.385547 -20.533203 11.385547Q-21.253906 11.385547 -21.772461 11.101367Q-22.291016 10.817187 -22.630859 10.23125ZM-18.962891 7.9402342Q-18.962891 6.7507811 -19.452148 6.0740232Q-19.941406 5.3972654 -20.796875 5.3972654Q-21.652344 5.3972654 -22.141602 6.0740232Q-22.630859 6.7507811 -22.630859 7.9402342Q-22.630859 9.1296873 -22.141602 9.8064451Q-21.652344 10.483203 -20.796875 10.483203Q-19.941406 10.483203 -19.452148 9.8064451Q-18.962891 9.1296873 -18.962891 7.9402342ZM-13.326172 11.825Q-13.783203 12.996875 -14.216797 13.354297Q-14.650391 13.711719 -15.376953 13.711719L-16.238281 13.711719L-16.238281 12.809375L-15.605469 12.809375Q-15.160156 12.809375 -14.914062 12.598437Q-14.667969 12.3875 -14.369141 11.602344L-14.175781 11.110156L-16.830078 4.6531248L-15.6875 4.6531248L-13.636719 9.7859373L-11.585938 4.6531248L-10.443359 4.6531248L-13.326172 11.825ZM-7.8886719 2.7898436L-7.8886719 4.6531248L-5.6679688 4.6531248L-5.6679688 5.4910154L-7.8886719 5.4910154L-7.8886719 9.0535154Q-7.8886719 9.8562498 -7.6689453 10.084765Q-7.4492188 10.313281 -6.7753906 10.313281L-5.6679688 10.313281L-5.6679688 11.215625L-6.7753906 11.215625Q-8.0234375 11.215625 -8.4980469 10.749804Q-8.9726562 10.283984 -8.9726562 9.0535154L-8.9726562 5.4910154L-9.7636719 5.4910154L-9.7636719 4.6531248L-8.9726562 4.6531248L-8.9726562 2.7898436L-7.8886719 2.7898436ZM1.2050781 7.2546873L1.2050781 11.215625L0.12695312 11.215625L0.12695312 7.2898436Q0.12695312 6.3582029 -0.23632812 5.8953123Q-0.59960938 5.4324217 -1.3261719 5.4324217Q-2.1992188 5.4324217 -2.703125 5.9890623Q-3.2070312 6.5457029 -3.2070312 7.5066404L-3.2070312 11.215625L-4.2910156 11.215625L-4.2910156 2.0984373L-3.2070312 2.0984373L-3.2070312 5.6726561Q-2.8203125 5.0808592 -2.2958984 4.7878904Q-1.7714844 4.4949217 -1.0859375 4.4949217Q0.044921875 4.4949217 0.625 5.195117Q1.2050781 5.8953123 1.2050781 7.2546873ZM5.8984375 5.4089842Q5.03125 5.4089842 4.5273438 6.085742Q4.0234375 6.7624998 4.0234375 7.9402342Q4.0234375 9.1179686 4.5244141 9.7947264Q5.0253906 10.471484 5.8984375 10.471484Q6.7597656 10.471484 7.2636719 9.7917967Q7.7675781 9.1121092 7.7675781 7.9402342Q7.7675781 6.7742186 7.2636719 6.0916014Q6.7597656 5.4089842 5.8984375 5.4089842ZM5.8984375 4.4949217Q7.3046875 4.4949217 8.1074219 5.4089842Q8.9101562 6.3230467 8.9101562 7.9402342Q8.9101562 9.5515623 8.1074219 10.468554Q7.3046875 11.385547 5.8984375 11.385547Q4.4863281 11.385547 3.6865234 10.468554Q2.8867188 9.5515623 2.8867188 7.9402342Q2.8867188 6.3230467 3.6865234 5.4089842Q4.4863281 4.4949217 5.8984375 4.4949217ZM16.152344 7.2546873L16.152344 11.215625L15.074219 11.215625L15.074219 7.2898436Q15.074219 6.3582029 14.710938 5.8953123Q14.347656 5.4324217 13.621094 5.4324217Q12.748047 5.4324217 12.244141 5.9890623Q11.740234 6.5457029 11.740234 7.5066404L11.740234 11.215625L10.65625 11.215625L10.65625 4.6531248L11.740234 4.6531248L11.740234 5.6726561Q12.126953 5.0808592 12.651367 4.7878904Q13.175781 4.4949217 13.861328 4.4949217Q14.992188 4.4949217 15.572266 5.195117Q16.152344 5.8953123 16.152344 7.2546873ZM19.474609 10.219531L23.605469 10.219531L23.605469 11.215625L18.050781 11.215625L18.050781 10.219531Q18.724609 9.5222654 19.887695 8.3474607Q21.050781 7.1726561 21.349609 6.8328123Q21.917969 6.1941404 22.143555 5.7517576Q22.369141 5.3093748 22.369141 4.8816404Q22.369141 4.1843748 21.879883 3.7449217Q21.390625 3.3054686 20.605469 3.3054686Q20.048828 3.3054686 19.430664 3.4988279Q18.8125 3.6921873 18.109375 4.0847654L18.109375 2.8894529Q18.824219 2.6023436 19.445312 2.4558592Q20.066406 2.3093748 20.582031 2.3093748Q21.941406 2.3093748 22.75 2.9890623Q23.558594 3.6687498 23.558594 4.8054686Q23.558594 5.3445311 23.356445 5.8279295Q23.154297 6.3113279 22.621094 6.9675779Q22.474609 7.1374998 21.689453 7.9490232Q20.904297 8.7605467 19.474609 10.219531Z"/>
	</g>
	<clipPath id="cl_242">
		<rect y="549.20001" width="1000" height="50.799988"/>
	</clipPath>
	<g clip-path="url(#cl_242)">
		<path fill="#666" transform="translate(769.597 560.2)" d="M-22.630859 10.23125L-22.630859 13.711719L-23.714844 13.711719L-23.714844 4.6531248L-22.630859 4.6531248L-22.630859 5.6492186Q-22.291016 5.0632811 -21.772461 4.7791014Q-21.253906 4.4949217 -20.533203 4.4949217Q-19.337891 4.4949217 -18.59082 5.4441404Q-17.84375 6.3933592 -17.84375 7.9402342Q-17.84375 9.4871092 -18.59082 10.436328Q-19.337891 11.385547 -20.533203 11.385547Q-21.253906 11.385547 -21.772461 11.101367Q-22.291016 10.817187 -22.630859 10.23125ZM-18.962891 7.9402342Q-18.962891 6.7507811 -19.452148 6.0740232Q-19.941406 5.3972654 -20.796875 5.3972654Q-21.652344 5.3972654 -22.141602 6.0740232Q-22.630859 6.7507811 -22.630859 7.9402342Q-22.630859 9.1296873 -22.141602 9.8064451Q-21.652344 10.483203 -20.796875 10.483203Q-19.941406 10.483203 -19.452148 9.8064451Q-18.962891 9.1296873 -18.962891 7.9402342ZM-13.326172 11.825Q-13.783203 12.996875 -14.216797 13.354297Q-14.650391 13.711719 -15.376953 13.711719L-16.238281 13.711719L-16.238281 12.809375L-15.605469 12.809375Q-15.160156 12.809375 -14.914062 12.598437Q-14.667969 12.3875 -14.369141 11.602344L-14.175781 11.110156L-16.830078 4.6531248L-15.6875 4.6531248L-13.636719 9.7859373L-11.585938 4.6531248L-10.443359 4.6531248L-13.326172 11.825ZM-7.8886719 2.7898436L-7.8886719 4.6531248L-5.6679688 4.6531248L-5.6679688 5.4910154L-7.8886719 5.4910154L-7.8886719 9.0535154Q-7.8886719 9.8562498 -7.6689453 10.084765Q-7.4492188 10.313281 -6.7753906 10.313281L-5.6679688 10.313281L-5.6679688 11.215625L-6.7753906 11.215625Q-8.0234375 11.215625 -8.4980469 10.749804Q-8.9726562 10.283984 -8.9726562 9.0535154L-8.9726562 5.4910154L-9.7636719 5.4910154L-9.7636719 4.6531248L-8.9726562 4.6531248L-8.9726562 2.7898436L-7.8886719 2.7898436ZM1.2050781 7.2546873L1.2050781 11.215625L0.12695312 11.215625L0.12695312 7.2898436Q0.12695312 6.3582029 -0.23632812 5.8953123Q-0.59960938 5.4324217 -1.3261719 5.4324217Q-2.1992188 5.4324217 -2.703125 5.9890623Q-3.2070312 6.5457029 -3.2070312 7.5066404L-3.2070312 11.215625L-4.2910156 11.215625L-4.2910156 2.0984373L-3.2070312 2.0984373L-3.2070312 5.6726561Q-2.8203125 5.0808592 -2.2958984 4.7878904Q-1.7714844 4.4949217 -1.0859375 4.4949217Q0.044921875 4.4949217 0.625 5.195117Q1.2050781 5.8953123 1.2050781 7.2546873ZM5.8984375 5.4089842Q5.03125 5.4089842 4.5273438 6.085742Q4.0234375 6.7624998 4.0234375 7.9402342Q4.0234375 9.1179686 4.5244141 9.7947264Q5.0253906 10.471484 5.8984375 10.471484Q6.7597656 10.471484 7.2636719 9.7917967Q7.7675781 9.1121092 7.7675781 7.9402342Q7.7675781 6.7742186 7.2636719 6.0916014Q6.7597656 5.4089842 5.8984375 5.4089842ZM5.8984375 4.4949217Q7.3046875 4.4949217 8.1074219 5.4089842Q8.9101562 6.3230467 8.9101562 7.9402342Q8.9101562 9.5515623 8.1074219 10.468554Q7.3046875 11.385547 5.8984375 11.385547Q4.4863281 11.385547 3.6865234 10.468554Q2.8867188 9.5515623 2.8867188 7.9402342Q2.8867188 6.3230467 3.6865234 5.4089842Q4.4863281 4.4949217 5.8984375 4.4949217ZM16.152344 7.2546873L16.152344 11.215625L15.074219 11.215625L15.074219 7.2898436Q15.074219 6.3582029 14.710938 5.8953123Q14.347656 5.4324217 13.621094 5.4324217Q12.748047 5.4324217 12.244141 5.9890623Q11.740234 6.5457029 11.740234 7.5066404L11.740234 11.215625L10.65625 11.215625L10.65625 4.6531248L11.740234 4.6531248L11.740234 5.6726561Q12.126953 5.0808592 12.651367 4.7878904Q13.175781 4.4949217 13.861328 4.4949217Q14.992188 4.4949217 15.572266 5.195117Q16.152344 5.8953123 16.152344 7.2546873ZM22.041016 6.4988279Q22.890625 6.6804686 23.368164 7.2546873Q23.845703 7.8289061 23.845703 8.6726561Q23.845703 9.9675779 22.955078 10.676562Q22.064453 11.385547 20.423828 11.385547Q19.873047 11.385547 19.290039 11.277148Q18.707031 11.16875 18.085938 10.951953L18.085938 9.8093748Q18.578125 10.096484 19.164062 10.242969Q19.75 10.389453 20.388672 10.389453Q21.501953 10.389453 22.084961 9.9499998Q22.667969 9.5105467 22.667969 8.6726561Q22.667969 7.8992186 22.125977 7.4626951Q21.583984 7.0261717 20.617188 7.0261717L19.597656 7.0261717L19.597656 6.0535154L20.664062 6.0535154Q21.537109 6.0535154 22 5.7048826Q22.462891 5.3562498 22.462891 4.6999998Q22.462891 4.0261717 21.985352 3.6658201Q21.507812 3.3054686 20.617188 3.3054686Q20.130859 3.3054686 19.574219 3.4109373Q19.017578 3.5164061 18.349609 3.7390623L18.349609 2.6843748Q19.023438 2.4968748 19.612305 2.4031248Q20.201172 2.3093748 20.722656 2.3093748Q22.070312 2.3093748 22.855469 2.9216795Q23.640625 3.5339842 23.640625 4.5769529Q23.640625 5.3035154 23.224609 5.804492Q22.808594 6.3054686 22.041016 6.4988279Z"/>
	</g>
	<path fill="none" stroke="black" stroke-width="1" stroke-miterlimit="10" stroke-opacity="0.10196079" d="M78.5 34L78.5 550"/>
	<clipPath id="cl_244">
		<rect width="78.389999" height="600"/>
	</clipPath>
	<g clip-path="url(#cl_244)">
		<path fill="#666" transform="translate(67.39 549.2)" d="M-3.8183594 -3.953125Q-4.7324219 -3.953125 -5.1923828 -3.0537109Q-5.6523438 -2.1542969 -5.6523438 -0.34960938Q-5.6523438 1.4492188 -5.1923828 2.3486328Q-4.7324219 3.2480469 -3.8183594 3.2480469Q-2.8984375 3.2480469 -2.4384766 2.3486328Q-1.9785156 1.4492188 -1.9785156 -0.34960938Q-1.9785156 -2.1542969 -2.4384766 -3.0537109Q-2.8984375 -3.953125 -3.8183594 -3.953125ZM-3.8183594 -4.890625Q-2.3476562 -4.890625 -1.5712891 -3.7275391Q-0.79492188 -2.5644531 -0.79492188 -0.34960938Q-0.79492188 1.859375 -1.5712891 3.0224609Q-2.3476562 4.1855469 -3.8183594 4.1855469Q-5.2890625 4.1855469 -6.0654297 3.0224609Q-6.8417969 1.859375 -6.8417969 -0.34960938Q-6.8417969 -2.5644531 -6.0654297 -3.7275391Q-5.2890625 -4.890625 -3.8183594 -4.890625Z"/>
	</g>
	<clipPath id="cl_245">
		<rect width="78.389999" height="600"/>
	</clipPath>
	<g clip-path="url(#cl_245)">
		<path fill="#666" transform="translate(67.39 497.72)" d="M-32.863281 3.0195312L-30.929688 3.0195312L-30.929688 -3.6542969L-33.033203 -3.2324219L-33.033203 -4.3105469L-30.941406 -4.7324219L-29.757812 -4.7324219L-29.757812 3.0195312L-27.824219 3.0195312L-27.824219 4.015625L-32.863281 4.015625L-32.863281 3.0195312ZM-25.310547 2.5273438L-24.074219 2.5273438L-24.074219 3.5351562L-25.035156 5.4101562L-25.791016 5.4101562L-25.310547 3.5351562L-25.310547 2.5273438ZM-19.087891 -3.953125Q-20.001953 -3.953125 -20.461914 -3.0537109Q-20.921875 -2.1542969 -20.921875 -0.34960938Q-20.921875 1.4492188 -20.461914 2.3486328Q-20.001953 3.2480469 -19.087891 3.2480469Q-18.167969 3.2480469 -17.708008 2.3486328Q-17.248047 1.4492188 -17.248047 -0.34960938Q-17.248047 -2.1542969 -17.708008 -3.0537109Q-18.167969 -3.953125 -19.087891 -3.953125ZM-19.087891 -4.890625Q-17.617188 -4.890625 -16.84082 -3.7275391Q-16.064453 -2.5644531 -16.064453 -0.34960938Q-16.064453 1.859375 -16.84082 3.0224609Q-17.617188 4.1855469 -19.087891 4.1855469Q-20.558594 4.1855469 -21.334961 3.0224609Q-22.111328 1.859375 -22.111328 -0.34960938Q-22.111328 -2.5644531 -21.334961 -3.7275391Q-20.558594 -4.890625 -19.087891 -4.890625ZM-11.453125 -3.953125Q-12.367188 -3.953125 -12.827148 -3.0537109Q-13.287109 -2.1542969 -13.287109 -0.34960938Q-13.287109 1.4492188 -12.827148 2.3486328Q-12.367188 3.2480469 -11.453125 3.2480469Q-10.533203 3.2480469 -10.073242 2.3486328Q-9.6132812 1.4492188 -9.6132812 -0.34960938Q-9.6132812 -2.1542969 -10.073242 -3.0537109Q-10.533203 -3.953125 -11.453125 -3.953125ZM-11.453125 -4.890625Q-9.9824219 -4.890625 -9.2060547 -3.7275391Q-8.4296875 -2.5644531 -8.4296875 -0.34960938Q-8.4296875 1.859375 -9.2060547 3.0224609Q-9.9824219 4.1855469 -11.453125 4.1855469Q-12.923828 4.1855469 -13.700195 3.0224609Q-14.476562 1.859375 -14.476562 -0.34960938Q-14.476562 -2.5644531 -13.700195 -3.7275391Q-12.923828 -4.890625 -11.453125 -4.890625ZM-3.8183594 -3.953125Q-4.7324219 -3.953125 -5.1923828 -3.0537109Q-5.6523438 -2.1542969 -5.6523438 -0.34960938Q-5.6523438 1.4492188 -5.1923828 2.3486328Q-4.7324219 3.2480469 -3.8183594 3.2480469Q-2.8984375 3.2480469 -2.4384766 2.3486328Q-1.9785156 1.4492188 -1.9785156 -0.34960938Q-1.9785156 -2.1542969 -2.4384766 -3.0537109Q-2.8984375 -3.953125 -3.8183594 -3.953125ZM-3.8183594 -4.890625Q-2.3476562 -4.890625 -1.5712891 -3.7275391Q-0.79492188 -2.5644531 -0.79492188 -0.34960938Q-0.79492188 1.859375 -1.5712891 3.0224609Q-2.3476562 4.1855469 -3.8183594 4.1855469Q-5.2890625 4.1855469 -6.0654297 3.0224609Q-6.8417969 1.859375 -6.8417969 -0.34960938Q-6.8417969 -2.5644531 -6.0654297 -3.7275391Q-5.2890625 -4.890625 -3.8183594 -4.890625Z"/>
	</g>
	<clipPath id="cl_246">
		<rect width="78.389999" height="600"/>
	</clipPath>
	<g clip-path="url(#cl_246)">
		<path fill="#666" transform="translate(67.39 446.24)" d="M-32.048828 3.0195312L-27.917969 3.0195312L-27.917969 4.015625L-33.472656 4.015625L-33.472656 3.0195312Q-32.798828 2.3222656 -31.635742 1.1474609Q-30.472656 -0.02734375 -30.173828 -0.3671875Q-29.605469 -1.0058594 -29.379883 -1.4482422Q-29.154297 -1.890625 -29.154297 -2.3183594Q-29.154297 -3.015625 -29.643555 -3.4550781Q-30.132812 -3.8945312 -30.917969 -3.8945312Q-31.474609 -3.8945312 -32.092773 -3.7011719Q-32.710938 -3.5078125 -33.414062 -3.1152344L-33.414062 -4.3105469Q-32.699219 -4.5976562 -32.078125 -4.7441406Q-31.457031 -4.890625 -30.941406 -4.890625Q-29.582031 -4.890625 -28.773438 -4.2109375Q-27.964844 -3.53125 -27.964844 -2.3945312Q-27.964844 -1.8554688 -28.166992 -1.3720703Q-28.369141 -0.88867188 -28.902344 -0.23242188Q-29.048828 -0.0625 -29.833984 0.74902344Q-30.619141 1.5605469 -32.048828 3.0195312ZM-25.310547 2.5273438L-24.074219 2.5273438L-24.074219 3.5351562L-25.035156 5.4101562L-25.791016 5.4101562L-25.310547 3.5351562L-25.310547 2.5273438ZM-19.087891 -3.953125Q-20.001953 -3.953125 -20.461914 -3.0537109Q-20.921875 -2.1542969 -20.921875 -0.34960938Q-20.921875 1.4492188 -20.461914 2.3486328Q-20.001953 3.2480469 -19.087891 3.2480469Q-18.167969 3.2480469 -17.708008 2.3486328Q-17.248047 1.4492188 -17.248047 -0.34960938Q-17.248047 -2.1542969 -17.708008 -3.0537109Q-18.167969 -3.953125 -19.087891 -3.953125ZM-19.087891 -4.890625Q-17.617188 -4.890625 -16.84082 -3.7275391Q-16.064453 -2.5644531 -16.064453 -0.34960938Q-16.064453 1.859375 -16.84082 3.0224609Q-17.617188 4.1855469 -19.087891 4.1855469Q-20.558594 4.1855469 -21.334961 3.0224609Q-22.111328 1.859375 -22.111328 -0.34960938Q-22.111328 -2.5644531 -21.334961 -3.7275391Q-20.558594 -4.890625 -19.087891 -4.890625ZM-11.453125 -3.953125Q-12.367188 -3.953125 -12.827148 -3.0537109Q-13.287109 -2.1542969 -13.287109 -0.34960938Q-13.287109 1.4492188 -12.827148 2.3486328Q-12.367188 3.2480469 -11.453125 3.2480469Q-10.533203 3.2480469 -10.073242 2.3486328Q-9.6132812 1.4492188 -9.6132812 -0.34960938Q-9.6132812 -2.1542969 -10.073242 -3.0537109Q-10.533203 -3.953125 -11.453125 -3.953125ZM-11.453125 -4.890625Q-9.9824219 -4.890625 -9.2060547 -3.7275391Q-8.4296875 -2.5644531 -8.4296875 -0.34960938Q-8.4296875 1.859375 -9.2060547 3.0224609Q-9.9824219 4.1855469 -11.453125 4.1855469Q-12.923828 4.1855469 -13.700195 3.0224609Q-14.476562 1.859375 -14.476562 -0.34960938Q-14.476562 -2.5644531 -13.700195 -3.7275391Q-12.923828 -4.890625 -11.453125 -4.890625ZM-3.8183594 -3.953125Q-4.7324219 -3.953125 -5.1923828 -3.0537109Q-5.6523438 -2.1542969 -5.6523438 -0.34960938Q-5.6523438 1.4492188 -5.1923828 2.3486328Q-4.7324219 3.2480469 -3.8183594 3.2480469Q-2.8984375 3.2480469 -2.4384766 2.3486328Q-1.9785156 1.4492188 -1.9785156 -0.34960938Q-1.9785156 -2.1542969 -2.4384766 -3.0537109Q-2.8984375 -3.953125 -3.8183594 -3.953125ZM-3.8183594 -4.890625Q-2.3476562 -4.890625 -1.5712891 -3.7275391Q-0.79492188 -2.5644531 -0.79492188 -0.34960938Q-0.79492188 1.859375 -1.5712891 3.0224609Q-2.3476562 4.1855469 -3.8183594 4.1855469Q-5.2890625 4.1855469 -6.0654297 3.0224609Q-6.8417969 1.859375 -6.8417969 -0.34960938Q-6.8417969 -2.5644531 -6.0654297 -3.7275391Q-5.2890625 -4.890625 -3.8183594 -4.890625Z"/>
	</g>
	<clipPath id="cl_247">
		<rect width="78.389999" height="600"/>
	</clipPath>
	<g clip-path="url(#cl_247)">
		<path fill="#666" transform="translate(67.39 394.76)" d="M-29.482422 -0.70117188Q-28.632812 -0.51953125 -28.155273 0.0546875Q-27.677734 0.62890625 -27.677734 1.4726562Q-27.677734 2.7675781 -28.568359 3.4765625Q-29.458984 4.1855469 -31.099609 4.1855469Q-31.650391 4.1855469 -32.233398 4.0771484Q-32.816406 3.96875 -33.4375 3.7519531L-33.4375 2.609375Q-32.945312 2.8964844 -32.359375 3.0429688Q-31.773438 3.1894531 -31.134766 3.1894531Q-30.021484 3.1894531 -29.438477 2.75Q-28.855469 2.3105469 -28.855469 1.4726562Q-28.855469 0.69921875 -29.397461 0.26269531Q-29.939453 -0.17382812 -30.90625 -0.17382812L-31.925781 -0.17382812L-31.925781 -1.1464844L-30.859375 -1.1464844Q-29.986328 -1.1464844 -29.523438 -1.4951172Q-29.060547 -1.84375 -29.060547 -2.5Q-29.060547 -3.1738281 -29.538086 -3.5341797Q-30.015625 -3.8945312 -30.90625 -3.8945312Q-31.392578 -3.8945312 -31.949219 -3.7890625Q-32.505859 -3.6835938 -33.173828 -3.4609375L-33.173828 -4.515625Q-32.5 -4.703125 -31.911133 -4.796875Q-31.322266 -4.890625 -30.800781 -4.890625Q-29.453125 -4.890625 -28.667969 -4.2783203Q-27.882812 -3.6660156 -27.882812 -2.6230469Q-27.882812 -1.8964844 -28.298828 -1.3955078Q-28.714844 -0.89453125 -29.482422 -0.70117188ZM-25.310547 2.5273438L-24.074219 2.5273438L-24.074219 3.5351562L-25.035156 5.4101562L-25.791016 5.4101562L-25.310547 3.5351562L-25.310547 2.5273438ZM-19.087891 -3.953125Q-20.001953 -3.953125 -20.461914 -3.0537109Q-20.921875 -2.1542969 -20.921875 -0.34960938Q-20.921875 1.4492188 -20.461914 2.3486328Q-20.001953 3.2480469 -19.087891 3.2480469Q-18.167969 3.2480469 -17.708008 2.3486328Q-17.248047 1.4492188 -17.248047 -0.34960938Q-17.248047 -2.1542969 -17.708008 -3.0537109Q-18.167969 -3.953125 -19.087891 -3.953125ZM-19.087891 -4.890625Q-17.617188 -4.890625 -16.84082 -3.7275391Q-16.064453 -2.5644531 -16.064453 -0.34960938Q-16.064453 1.859375 -16.84082 3.0224609Q-17.617188 4.1855469 -19.087891 4.1855469Q-20.558594 4.1855469 -21.334961 3.0224609Q-22.111328 1.859375 -22.111328 -0.34960938Q-22.111328 -2.5644531 -21.334961 -3.7275391Q-20.558594 -4.890625 -19.087891 -4.890625ZM-11.453125 -3.953125Q-12.367188 -3.953125 -12.827148 -3.0537109Q-13.287109 -2.1542969 -13.287109 -0.34960938Q-13.287109 1.4492188 -12.827148 2.3486328Q-12.367188 3.2480469 -11.453125 3.2480469Q-10.533203 3.2480469 -10.073242 2.3486328Q-9.6132812 1.4492188 -9.6132812 -0.34960938Q-9.6132812 -2.1542969 -10.073242 -3.0537109Q-10.533203 -3.953125 -11.453125 -3.953125ZM-11.453125 -4.890625Q-9.9824219 -4.890625 -9.2060547 -3.7275391Q-8.4296875 -2.5644531 -8.4296875 -0.34960938Q-8.4296875 1.859375 -9.2060547 3.0224609Q-9.9824219 4.1855469 -11.453125 4.1855469Q-12.923828 4.1855469 -13.700195 3.0224609Q-14.476562 1.859375 -14.476562 -0.34960938Q-14.476562 -2.5644531 -13.700195 -3.7275391Q-12.923828 -4.890625 -11.453125 -4.890625ZM-3.8183594 -3.953125Q-4.7324219 -3.953125 -5.1923828 -3.0537109Q-5.6523438 -2.1542969 -5.6523438 -0.34960938Q-5.6523438 1.4492188 -5.1923828 2.3486328Q-4.7324219 3.2480469 -3.8183594 3.2480469Q-2.8984375 3.2480469 -2.4384766 2.3486328Q-1.9785156 1.4492188 -1.9785156 -0.34960938Q-1.9785156 -2.1542969 -2.4384766 -3.0537109Q-2.8984375 -3.953125 -3.8183594 -3.953125ZM-3.8183594 -4.890625Q-2.3476562 -4.890625 -1.5712891 -3.7275391Q-0.79492188 -2.5644531 -0.79492188 -0.34960938Q-0.79492188 1.859375 -1.5712891 3.0224609Q-2.3476562 4.1855469 -3.8183594 4.1855469Q-5.2890625 4.1855469 -6.0654297 3.0224609Q-6.8417969 1.859375 -6.8417969 -0.34960938Q-6.8417969 -2.5644531 -6.0654297 -3.7275391Q-5.2890625 -4.890625 -3.8183594 -4.890625Z"/>
	</g>
	<clipPath id="cl_248">
		<rect width="78.389999" height="600"/>
	</clipPath>
	<g clip-path="url(#cl_248)">
		<path fill="#666" transform="translate(67.39 343.28)" d="M-29.816406 -3.7011719L-32.804688 0.96875L-29.816406 0.96875L-29.816406 -3.7011719ZM-30.126953 -4.7324219L-28.638672 -4.7324219L-28.638672 0.96875L-27.390625 0.96875L-27.390625 1.953125L-28.638672 1.953125L-28.638672 4.015625L-29.816406 4.015625L-29.816406 1.953125L-33.765625 1.953125L-33.765625 0.81054688L-30.126953 -4.7324219ZM-25.310547 2.5273438L-24.074219 2.5273438L-24.074219 3.5351562L-25.035156 5.4101562L-25.791016 5.4101562L-25.310547 3.5351562L-25.310547 2.5273438ZM-19.087891 -3.953125Q-20.001953 -3.953125 -20.461914 -3.0537109Q-20.921875 -2.1542969 -20.921875 -0.34960938Q-20.921875 1.4492188 -20.461914 2.3486328Q-20.001953 3.2480469 -19.087891 3.2480469Q-18.167969 3.2480469 -17.708008 2.3486328Q-17.248047 1.4492188 -17.248047 -0.34960938Q-17.248047 -2.1542969 -17.708008 -3.0537109Q-18.167969 -3.953125 -19.087891 -3.953125ZM-19.087891 -4.890625Q-17.617188 -4.890625 -16.84082 -3.7275391Q-16.064453 -2.5644531 -16.064453 -0.34960938Q-16.064453 1.859375 -16.84082 3.0224609Q-17.617188 4.1855469 -19.087891 4.1855469Q-20.558594 4.1855469 -21.334961 3.0224609Q-22.111328 1.859375 -22.111328 -0.34960938Q-22.111328 -2.5644531 -21.334961 -3.7275391Q-20.558594 -4.890625 -19.087891 -4.890625ZM-11.453125 -3.953125Q-12.367188 -3.953125 -12.827148 -3.0537109Q-13.287109 -2.1542969 -13.287109 -0.34960938Q-13.287109 1.4492188 -12.827148 2.3486328Q-12.367188 3.2480469 -11.453125 3.2480469Q-10.533203 3.2480469 -10.073242 2.3486328Q-9.6132812 1.4492188 -9.6132812 -0.34960938Q-9.6132812 -2.1542969 -10.073242 -3.0537109Q-10.533203 -3.953125 -11.453125 -3.953125ZM-11.453125 -4.890625Q-9.9824219 -4.890625 -9.2060547 -3.7275391Q-8.4296875 -2.5644531 -8.4296875 -0.34960938Q-8.4296875 1.859375 -9.2060547 3.0224609Q-9.9824219 4.1855469 -11.453125 4.1855469Q-12.923828 4.1855469 -13.700195 3.0224609Q-14.476562 1.859375 -14.476562 -0.34960938Q-14.476562 -2.5644531 -13.700195 -3.7275391Q-12.923828 -4.890625 -11.453125 -4.890625ZM-3.8183594 -3.953125Q-4.7324219 -3.953125 -5.1923828 -3.0537109Q-5.6523438 -2.1542969 -5.6523438 -0.34960938Q-5.6523438 1.4492188 -5.1923828 2.3486328Q-4.7324219 3.2480469 -3.8183594 3.2480469Q-2.8984375 3.2480469 -2.4384766 2.3486328Q-1.9785156 1.4492188 -1.9785156 -0.34960938Q-1.9785156 -2.1542969 -2.4384766 -3.0537109Q-2.8984375 -3.953125 -3.8183594 -3.953125ZM-3.8183594 -4.890625Q-2.3476562 -4.890625 -1.5712891 -3.7275391Q-0.79492188 -2.5644531 -0.79492188 -0.34960938Q-0.79492188 1.859375 -1.5712891 3.0224609Q-2.3476562 4.1855469 -3.8183594 4.1855469Q-5.2890625 4.1855469 -6.0654297 3.0224609Q-6.8417969 1.859375 -6.8417969 -0.34960938Q-6.8417969 -2.5644531 -6.0654297 -3.7275391Q-5.2890625 -4.890625 -3.8183594 -4.890625Z"/>
	</g>
	<clipPath id="cl_249">
		<rect width="78.389999" height="600"/>
	</clipPath>
	<g clip-path="url(#cl_249)">
		<path fill="#666" transform="translate(67.39 291.8)" d="M-33.056641 -4.7324219L-28.410156 -4.7324219L-28.410156 -3.7363281L-31.972656 -3.7363281L-31.972656 -1.5917969Q-31.714844 -1.6796875 -31.457031 -1.7236328Q-31.199219 -1.7675781 -30.941406 -1.7675781Q-29.476562 -1.7675781 -28.621094 -0.96484375Q-27.765625 -0.16210938 -27.765625 1.2089844Q-27.765625 2.6210938 -28.644531 3.4033203Q-29.523438 4.1855469 -31.123047 4.1855469Q-31.673828 4.1855469 -32.245117 4.0917969Q-32.816406 3.9980469 -33.425781 3.8105469L-33.425781 2.6210938Q-32.898438 2.9082031 -32.335938 3.0488281Q-31.773438 3.1894531 -31.146484 3.1894531Q-30.132812 3.1894531 -29.541016 2.65625Q-28.949219 2.1230469 -28.949219 1.2089844Q-28.949219 0.29492188 -29.541016 -0.23828125Q-30.132812 -0.77148438 -31.146484 -0.77148438Q-31.621094 -0.77148438 -32.092773 -0.66601562Q-32.564453 -0.56054688 -33.056641 -0.33789062L-33.056641 -4.7324219ZM-25.310547 2.5273438L-24.074219 2.5273438L-24.074219 3.5351562L-25.035156 5.4101562L-25.791016 5.4101562L-25.310547 3.5351562L-25.310547 2.5273438ZM-19.087891 -3.953125Q-20.001953 -3.953125 -20.461914 -3.0537109Q-20.921875 -2.1542969 -20.921875 -0.34960938Q-20.921875 1.4492188 -20.461914 2.3486328Q-20.001953 3.2480469 -19.087891 3.2480469Q-18.167969 3.2480469 -17.708008 2.3486328Q-17.248047 1.4492188 -17.248047 -0.34960938Q-17.248047 -2.1542969 -17.708008 -3.0537109Q-18.167969 -3.953125 -19.087891 -3.953125ZM-19.087891 -4.890625Q-17.617188 -4.890625 -16.84082 -3.7275391Q-16.064453 -2.5644531 -16.064453 -0.34960938Q-16.064453 1.859375 -16.84082 3.0224609Q-17.617188 4.1855469 -19.087891 4.1855469Q-20.558594 4.1855469 -21.334961 3.0224609Q-22.111328 1.859375 -22.111328 -0.34960938Q-22.111328 -2.5644531 -21.334961 -3.7275391Q-20.558594 -4.890625 -19.087891 -4.890625ZM-11.453125 -3.953125Q-12.367188 -3.953125 -12.827148 -3.0537109Q-13.287109 -2.1542969 -13.287109 -0.34960938Q-13.287109 1.4492188 -12.827148 2.3486328Q-12.367188 3.2480469 -11.453125 3.2480469Q-10.533203 3.2480469 -10.073242 2.3486328Q-9.6132812 1.4492188 -9.6132812 -0.34960938Q-9.6132812 -2.1542969 -10.073242 -3.0537109Q-10.533203 -3.953125 -11.453125 -3.953125ZM-11.453125 -4.890625Q-9.9824219 -4.890625 -9.2060547 -3.7275391Q-8.4296875 -2.5644531 -8.4296875 -0.34960938Q-8.4296875 1.859375 -9.2060547 3.0224609Q-9.9824219 4.1855469 -11.453125 4.1855469Q-12.923828 4.1855469 -13.700195 3.0224609Q-14.476562 1.859375 -14.476562 -0.34960938Q-14.476562 -2.5644531 -13.700195 -3.7275391Q-12.923828 -4.890625 -11.453125 -4.890625ZM-3.8183594 -3.953125Q-4.7324219 -3.953125 -5.1923828 -3.0537109Q-5.6523438 -2.1542969 -5.6523438 -0.34960938Q-5.6523438 1.4492188 -5.1923828 2.3486328Q-4.7324219 3.2480469 -3.8183594 3.2480469Q-2.8984375 3.2480469 -2.4384766 2.3486328Q-1.9785156 1.4492188 -1.9785156 -0.34960938Q-1.9785156 -2.1542969 -2.4384766 -3.0537109Q-2.8984375 -3.953125 -3.8183594 -3.953125ZM-3.8183594 -4.890625Q-2.3476562 -4.890625 -1.5712891 -3.7275391Q-0.79492188 -2.5644531 -0.79492188 -0.34960938Q-0.79492188 1.859375 -1.5712891 3.0224609Q-2.3476562 4.1855469 -3.8183594 4.1855469Q-5.2890625 4.1855469 -6.0654297 3.0224609Q-6.8417969 1.859375 -6.8417969 -0.34960938Q-6.8417969 -2.5644531 -6.0654297 -3.7275391Q-5.2890625 -4.890625 -3.8183594 -4.890625Z"/>
	</g>
	<clipPath id="cl_24a">
		<rect width="78.389999" height="600"/>
	</clipPath>
	<g clip-path="url(#cl_24a)">
		<path fill="#666" transform="translate(67.39 240.32)" d="M-30.390625 -0.83007812Q-31.1875 -0.83007812 -31.65332 -0.28515625Q-32.119141 0.25976562 -32.119141 1.2089844Q-32.119141 2.1523438 -31.65332 2.7001953Q-31.1875 3.2480469 -30.390625 3.2480469Q-29.59375 3.2480469 -29.12793 2.7001953Q-28.662109 2.1523438 -28.662109 1.2089844Q-28.662109 0.25976562 -29.12793 -0.28515625Q-29.59375 -0.83007812 -30.390625 -0.83007812ZM-28.041016 -4.5390625L-28.041016 -3.4609375Q-28.486328 -3.671875 -28.94043 -3.7832031Q-29.394531 -3.8945312 -29.839844 -3.8945312Q-31.011719 -3.8945312 -31.629883 -3.1035156Q-32.248047 -2.3125 -32.335938 -0.71289062Q-31.990234 -1.2226562 -31.46875 -1.4951172Q-30.947266 -1.7675781 -30.320312 -1.7675781Q-29.001953 -1.7675781 -28.237305 -0.96777344Q-27.472656 -0.16796875 -27.472656 1.2089844Q-27.472656 2.5566406 -28.269531 3.3710938Q-29.066406 4.1855469 -30.390625 4.1855469Q-31.908203 4.1855469 -32.710938 3.0224609Q-33.513672 1.859375 -33.513672 -0.34960938Q-33.513672 -2.4238281 -32.529297 -3.6572266Q-31.544922 -4.890625 -29.886719 -4.890625Q-29.441406 -4.890625 -28.987305 -4.8027344Q-28.533203 -4.7148438 -28.041016 -4.5390625ZM-25.310547 2.5273438L-24.074219 2.5273438L-24.074219 3.5351562L-25.035156 5.4101562L-25.791016 5.4101562L-25.310547 3.5351562L-25.310547 2.5273438ZM-19.087891 -3.953125Q-20.001953 -3.953125 -20.461914 -3.0537109Q-20.921875 -2.1542969 -20.921875 -0.34960938Q-20.921875 1.4492188 -20.461914 2.3486328Q-20.001953 3.2480469 -19.087891 3.2480469Q-18.167969 3.2480469 -17.708008 2.3486328Q-17.248047 1.4492188 -17.248047 -0.34960938Q-17.248047 -2.1542969 -17.708008 -3.0537109Q-18.167969 -3.953125 -19.087891 -3.953125ZM-19.087891 -4.890625Q-17.617188 -4.890625 -16.84082 -3.7275391Q-16.064453 -2.5644531 -16.064453 -0.34960938Q-16.064453 1.859375 -16.84082 3.0224609Q-17.617188 4.1855469 -19.087891 4.1855469Q-20.558594 4.1855469 -21.334961 3.0224609Q-22.111328 1.859375 -22.111328 -0.34960938Q-22.111328 -2.5644531 -21.334961 -3.7275391Q-20.558594 -4.890625 -19.087891 -4.890625ZM-11.453125 -3.953125Q-12.367188 -3.953125 -12.827148 -3.0537109Q-13.287109 -2.1542969 -13.287109 -0.34960938Q-13.287109 1.4492188 -12.827148 2.3486328Q-12.367188 3.2480469 -11.453125 3.2480469Q-10.533203 3.2480469 -10.073242 2.3486328Q-9.6132812 1.4492188 -9.6132812 -0.34960938Q-9.6132812 -2.1542969 -10.073242 -3.0537109Q-10.533203 -3.953125 -11.453125 -3.953125ZM-11.453125 -4.890625Q-9.9824219 -4.890625 -9.2060547 -3.7275391Q-8.4296875 -2.5644531 -8.4296875 -0.34960938Q-8.4296875 1.859375 -9.2060547 3.0224609Q-9.9824219 4.1855469 -11.453125 4.1855469Q-12.923828 4.1855469 -13.700195 3.0224609Q-14.476562 1.859375 -14.476562 -0.34960938Q-14.476562 -2.5644531 -13.700195 -3.7275391Q-12.923828 -4.890625 -11.453125 -4.890625ZM-3.8183594 -3.953125Q-4.7324219 -3.953125 -5.1923828 -3.0537109Q-5.6523438 -2.1542969 -5.6523438 -0.34960938Q-5.6523438 1.4492188 -5.1923828 2.3486328Q-4.7324219 3.2480469 -3.8183594 3.2480469Q-2.8984375 3.2480469 -2.4384766 2.3486328Q-1.9785156 1.4492188 -1.9785156 -0.34960938Q-1.9785156 -2.1542969 -2.4384766 -3.0537109Q-2.8984375 -3.953125 -3.8183594 -3.953125ZM-3.8183594 -4.890625Q-2.3476562 -4.890625 -1.5712891 -3.7275391Q-0.79492188 -2.5644531 -0.79492188 -0.34960938Q-0.79492188 1.859375 -1.5712891 3.0224609Q-2.3476562 4.1855469 -3.8183594 4.1855469Q-5.2890625 4.1855469 -6.0654297 3.0224609Q-6.8417969 1.859375 -6.8417969 -0.34960938Q-6.8417969 -2.5644531 -6.0654297 -3.7275391Q-5.2890625 -4.890625 -3.8183594 -4.890625Z"/>
	</g>
	<clipPath id="cl_24b">
		<rect width="78.389999" height="600"/>
	</clipPath>
	<g clip-path="url(#cl_24b)">
		<path fill="#666" transform="translate(67.39 188.84)" d="M-33.367188 -4.7324219L-27.742188 -4.7324219L-27.742188 -4.2285156L-30.917969 4.015625L-32.154297 4.015625L-29.166016 -3.7363281L-33.367188 -3.7363281L-33.367188 -4.7324219ZM-25.310547 2.5273438L-24.074219 2.5273438L-24.074219 3.5351562L-25.035156 5.4101562L-25.791016 5.4101562L-25.310547 3.5351562L-25.310547 2.5273438ZM-19.087891 -3.953125Q-20.001953 -3.953125 -20.461914 -3.0537109Q-20.921875 -2.1542969 -20.921875 -0.34960938Q-20.921875 1.4492188 -20.461914 2.3486328Q-20.001953 3.2480469 -19.087891 3.2480469Q-18.167969 3.2480469 -17.708008 2.3486328Q-17.248047 1.4492188 -17.248047 -0.34960938Q-17.248047 -2.1542969 -17.708008 -3.0537109Q-18.167969 -3.953125 -19.087891 -3.953125ZM-19.087891 -4.890625Q-17.617188 -4.890625 -16.84082 -3.7275391Q-16.064453 -2.5644531 -16.064453 -0.34960938Q-16.064453 1.859375 -16.84082 3.0224609Q-17.617188 4.1855469 -19.087891 4.1855469Q-20.558594 4.1855469 -21.334961 3.0224609Q-22.111328 1.859375 -22.111328 -0.34960938Q-22.111328 -2.5644531 -21.334961 -3.7275391Q-20.558594 -4.890625 -19.087891 -4.890625ZM-11.453125 -3.953125Q-12.367188 -3.953125 -12.827148 -3.0537109Q-13.287109 -2.1542969 -13.287109 -0.34960938Q-13.287109 1.4492188 -12.827148 2.3486328Q-12.367188 3.2480469 -11.453125 3.2480469Q-10.533203 3.2480469 -10.073242 2.3486328Q-9.6132812 1.4492188 -9.6132812 -0.34960938Q-9.6132812 -2.1542969 -10.073242 -3.0537109Q-10.533203 -3.953125 -11.453125 -3.953125ZM-11.453125 -4.890625Q-9.9824219 -4.890625 -9.2060547 -3.7275391Q-8.4296875 -2.5644531 -8.4296875 -0.34960938Q-8.4296875 1.859375 -9.2060547 3.0224609Q-9.9824219 4.1855469 -11.453125 4.1855469Q-12.923828 4.1855469 -13.700195 3.0224609Q-14.476562 1.859375 -14.476562 -0.34960938Q-14.476562 -2.5644531 -13.700195 -3.7275391Q-12.923828 -4.890625 -11.453125 -4.890625ZM-3.8183594 -3.953125Q-4.7324219 -3.953125 -5.1923828 -3.0537109Q-5.6523438 -2.1542969 -5.6523438 -0.34960938Q-5.6523438 1.4492188 -5.1923828 2.3486328Q-4.7324219 3.2480469 -3.8183594 3.2480469Q-2.8984375 3.2480469 -2.4384766 2.3486328Q-1.9785156 1.4492188 -1.9785156 -0.34960938Q-1.9785156 -2.1542969 -2.4384766 -3.0537109Q-2.8984375 -3.953125 -3.8183594 -3.953125ZM-3.8183594 -4.890625Q-2.3476562 -4.890625 -1.5712891 -3.7275391Q-0.79492188 -2.5644531 -0.79492188 -0.34960938Q-0.79492188 1.859375 -1.5712891 3.0224609Q-2.3476562 4.1855469 -3.8183594 4.1855469Q-5.2890625 4.1855469 -6.0654297 3.0224609Q-6.8417969 1.859375 -6.8417969 -0.34960938Q-6.8417969 -2.5644531 -6.0654297 -3.7275391Q-5.2890625 -4.890625 -3.8183594 -4.890625Z"/>
	</g>
	<clipPath id="cl_24c">
		<rect width="78.389999" height="600"/>
	</clipPath>
	<g clip-path="url(#cl_24c)">
		<path fill="#666" transform="translate(67.39 137.36)" d="M-30.537109 -0.13867188Q-31.380859 -0.13867188 -31.864258 0.3125Q-32.347656 0.76367188 -32.347656 1.5546875Q-32.347656 2.3457031 -31.864258 2.796875Q-31.380859 3.2480469 -30.537109 3.2480469Q-29.693359 3.2480469 -29.207031 2.7939453Q-28.720703 2.3398438 -28.720703 1.5546875Q-28.720703 0.76367188 -29.204102 0.3125Q-29.6875 -0.13867188 -30.537109 -0.13867188ZM-31.720703 -0.64257812Q-32.482422 -0.83007812 -32.907227 -1.3515625Q-33.332031 -1.8730469 -33.332031 -2.6230469Q-33.332031 -3.671875 -32.584961 -4.28125Q-31.837891 -4.890625 -30.537109 -4.890625Q-29.230469 -4.890625 -28.486328 -4.28125Q-27.742188 -3.671875 -27.742188 -2.6230469Q-27.742188 -1.8730469 -28.166992 -1.3515625Q-28.591797 -0.83007812 -29.347656 -0.64257812Q-28.492188 -0.44335938 -28.014648 0.13671875Q-27.537109 0.71679688 -27.537109 1.5546875Q-27.537109 2.8261719 -28.313477 3.5058594Q-29.089844 4.1855469 -30.537109 4.1855469Q-31.984375 4.1855469 -32.760742 3.5058594Q-33.537109 2.8261719 -33.537109 1.5546875Q-33.537109 0.71679688 -33.056641 0.13671875Q-32.576172 -0.44335938 -31.720703 -0.64257812ZM-32.154297 -2.5117188Q-32.154297 -1.8320312 -31.729492 -1.4511719Q-31.304688 -1.0703125 -30.537109 -1.0703125Q-29.775391 -1.0703125 -29.344727 -1.4511719Q-28.914062 -1.8320312 -28.914062 -2.5117188Q-28.914062 -3.1914062 -29.344727 -3.5722656Q-29.775391 -3.953125 -30.537109 -3.953125Q-31.304688 -3.953125 -31.729492 -3.5722656Q-32.154297 -3.1914062 -32.154297 -2.5117188ZM-25.310547 2.5273438L-24.074219 2.5273438L-24.074219 3.5351562L-25.035156 5.4101562L-25.791016 5.4101562L-25.310547 3.5351562L-25.310547 2.5273438ZM-19.087891 -3.953125Q-20.001953 -3.953125 -20.461914 -3.0537109Q-20.921875 -2.1542969 -20.921875 -0.34960938Q-20.921875 1.4492188 -20.461914 2.3486328Q-20.001953 3.2480469 -19.087891 3.2480469Q-18.167969 3.2480469 -17.708008 2.3486328Q-17.248047 1.4492188 -17.248047 -0.34960938Q-17.248047 -2.1542969 -17.708008 -3.0537109Q-18.167969 -3.953125 -19.087891 -3.953125ZM-19.087891 -4.890625Q-17.617188 -4.890625 -16.84082 -3.7275391Q-16.064453 -2.5644531 -16.064453 -0.34960938Q-16.064453 1.859375 -16.84082 3.0224609Q-17.617188 4.1855469 -19.087891 4.1855469Q-20.558594 4.1855469 -21.334961 3.0224609Q-22.111328 1.859375 -22.111328 -0.34960938Q-22.111328 -2.5644531 -21.334961 -3.7275391Q-20.558594 -4.890625 -19.087891 -4.890625ZM-11.453125 -3.953125Q-12.367188 -3.953125 -12.827148 -3.0537109Q-13.287109 -2.1542969 -13.287109 -0.34960938Q-13.287109 1.4492188 -12.827148 2.3486328Q-12.367188 3.2480469 -11.453125 3.2480469Q-10.533203 3.2480469 -10.073242 2.3486328Q-9.6132812 1.4492188 -9.6132812 -0.34960938Q-9.6132812 -2.1542969 -10.073242 -3.0537109Q-10.533203 -3.953125 -11.453125 -3.953125ZM-11.453125 -4.890625Q-9.9824219 -4.890625 -9.2060547 -3.7275391Q-8.4296875 -2.5644531 -8.4296875 -0.34960938Q-8.4296875 1.859375 -9.2060547 3.0224609Q-9.9824219 4.1855469 -11.453125 4.1855469Q-12.923828 4.1855469 -13.700195 3.0224609Q-14.476562 1.859375 -14.476562 -0.34960938Q-14.476562 -2.5644531 -13.700195 -3.7275391Q-12.923828 -4.890625 -11.453125 -4.890625ZM-3.8183594 -3.953125Q-4.7324219 -3.953125 -5.1923828 -3.0537109Q-5.6523438 -2.1542969 -5.6523438 -0.34960938Q-5.6523438 1.4492188 -5.1923828 2.3486328Q-4.7324219 3.2480469 -3.8183594 3.2480469Q-2.8984375 3.2480469 -2.4384766 2.3486328Q-1.9785156 1.4492188 -1.9785156 -0.34960938Q-1.9785156 -2.1542969 -2.4384766 -3.0537109Q-2.8984375 -3.953125 -3.8183594 -3.953125ZM-3.8183594 -4.890625Q-2.3476562 -4.890625 -1.5712891 -3.7275391Q-0.79492188 -2.5644531 -0.79492188 -0.34960938Q-0.79492188 1.859375 -1.5712891 3.0224609Q-2.3476562 4.1855469 -3.8183594 4.1855469Q-5.2890625 4.1855469 -6.0654297 3.0224609Q-6.8417969 1.859375 -6.8417969 -0.34960938Q-6.8417969 -2.5644531 -6.0654297 -3.7275391Q-5.2890625 -4.890625 -3.8183594 -4.890625Z"/>
	</g>
	<clipPath id="cl_24d">
		<rect width="78.389999" height="600"/>
	</clipPath>
	<g clip-path="url(#cl_24d)">
		<path fill="#666" transform="translate(67.39 85.88)" d="M-33.033203 3.8339844L-33.033203 2.7558594Q-32.587891 2.9667969 -32.130859 3.078125Q-31.673828 3.1894531 -31.234375 3.1894531Q-30.0625 3.1894531 -29.444336 2.4013672Q-28.826172 1.6132812 -28.738281 0.0078125Q-29.078125 0.51171875 -29.599609 0.78125Q-30.121094 1.0507812 -30.753906 1.0507812Q-32.066406 1.0507812 -32.831055 0.25683594Q-33.595703 -0.53710938 -33.595703 -1.9140625Q-33.595703 -3.2617188 -32.798828 -4.0761719Q-32.001953 -4.890625 -30.677734 -4.890625Q-29.160156 -4.890625 -28.360352 -3.7275391Q-27.560547 -2.5644531 -27.560547 -0.34960938Q-27.560547 1.71875 -28.541992 2.9521484Q-29.523438 4.1855469 -31.181641 4.1855469Q-31.626953 4.1855469 -32.083984 4.0976562Q-32.541016 4.0097656 -33.033203 3.8339844ZM-30.677734 0.125Q-29.880859 0.125 -29.415039 -0.41992188Q-28.949219 -0.96484375 -28.949219 -1.9140625Q-28.949219 -2.8574219 -29.415039 -3.4052734Q-29.880859 -3.953125 -30.677734 -3.953125Q-31.474609 -3.953125 -31.94043 -3.4052734Q-32.40625 -2.8574219 -32.40625 -1.9140625Q-32.40625 -0.96484375 -31.94043 -0.41992188Q-31.474609 0.125 -30.677734 0.125ZM-25.310547 2.5273438L-24.074219 2.5273438L-24.074219 3.5351562L-25.035156 5.4101562L-25.791016 5.4101562L-25.310547 3.5351562L-25.310547 2.5273438ZM-19.087891 -3.953125Q-20.001953 -3.953125 -20.461914 -3.0537109Q-20.921875 -2.1542969 -20.921875 -0.34960938Q-20.921875 1.4492188 -20.461914 2.3486328Q-20.001953 3.2480469 -19.087891 3.2480469Q-18.167969 3.2480469 -17.708008 2.3486328Q-17.248047 1.4492188 -17.248047 -0.34960938Q-17.248047 -2.1542969 -17.708008 -3.0537109Q-18.167969 -3.953125 -19.087891 -3.953125ZM-19.087891 -4.890625Q-17.617188 -4.890625 -16.84082 -3.7275391Q-16.064453 -2.5644531 -16.064453 -0.34960938Q-16.064453 1.859375 -16.84082 3.0224609Q-17.617188 4.1855469 -19.087891 4.1855469Q-20.558594 4.1855469 -21.334961 3.0224609Q-22.111328 1.859375 -22.111328 -0.34960938Q-22.111328 -2.5644531 -21.334961 -3.7275391Q-20.558594 -4.890625 -19.087891 -4.890625ZM-11.453125 -3.953125Q-12.367188 -3.953125 -12.827148 -3.0537109Q-13.287109 -2.1542969 -13.287109 -0.34960938Q-13.287109 1.4492188 -12.827148 2.3486328Q-12.367188 3.2480469 -11.453125 3.2480469Q-10.533203 3.2480469 -10.073242 2.3486328Q-9.6132812 1.4492188 -9.6132812 -0.34960938Q-9.6132812 -2.1542969 -10.073242 -3.0537109Q-10.533203 -3.953125 -11.453125 -3.953125ZM-11.453125 -4.890625Q-9.9824219 -4.890625 -9.2060547 -3.7275391Q-8.4296875 -2.5644531 -8.4296875 -0.34960938Q-8.4296875 1.859375 -9.2060547 3.0224609Q-9.9824219 4.1855469 -11.453125 4.1855469Q-12.923828 4.1855469 -13.700195 3.0224609Q-14.476562 1.859375 -14.476562 -0.34960938Q-14.476562 -2.5644531 -13.700195 -3.7275391Q-12.923828 -4.890625 -11.453125 -4.890625ZM-3.8183594 -3.953125Q-4.7324219 -3.953125 -5.1923828 -3.0537109Q-5.6523438 -2.1542969 -5.6523438 -0.34960938Q-5.6523438 1.4492188 -5.1923828 2.3486328Q-4.7324219 3.2480469 -3.8183594 3.2480469Q-2.8984375 3.2480469 -2.4384766 2.3486328Q-1.9785156 1.4492188 -1.9785156 -0.34960938Q-1.9785156 -2.1542969 -2.4384766 -3.0537109Q-2.8984375 -3.953125 -3.8183594 -3.953125ZM-3.8183594 -4.890625Q-2.3476562 -4.890625 -1.5712891 -3.7275391Q-0.79492188 -2.5644531 -0.79492188 -0.34960938Q-0.79492188 1.859375 -1.5712891 3.0224609Q-2.3476562 4.1855469 -3.8183594 4.1855469Q-5.2890625 4.1855469 -6.0654297 3.0224609Q-6.8417969 1.859375 -6.8417969 -0.34960938Q-6.8417969 -2.5644531 -6.0654297 -3.7275391Q-5.2890625 -4.890625 -3.8183594 -4.890625Z"/>
	</g>
	<clipPath id="cl_24e">
		<rect width="78.389999" height="600"/>
	</clipPath>
	<g clip-path="url(#cl_24e)">
		<path fill="#666" transform="translate(67.39 34.4)" d="M-40.496094 3.0195312L-38.5625 3.0195312L-38.5625 -3.6542969L-40.666016 -3.2324219L-40.666016 -4.3105469L-38.574219 -4.7324219L-37.390625 -4.7324219L-37.390625 3.0195312L-35.457031 3.0195312L-35.457031 4.015625L-40.496094 4.015625L-40.496094 3.0195312ZM-30.535156 -3.953125Q-31.449219 -3.953125 -31.90918 -3.0537109Q-32.369141 -2.1542969 -32.369141 -0.34960938Q-32.369141 1.4492188 -31.90918 2.3486328Q-31.449219 3.2480469 -30.535156 3.2480469Q-29.615234 3.2480469 -29.155273 2.3486328Q-28.695312 1.4492188 -28.695312 -0.34960938Q-28.695312 -2.1542969 -29.155273 -3.0537109Q-29.615234 -3.953125 -30.535156 -3.953125ZM-30.535156 -4.890625Q-29.064453 -4.890625 -28.288086 -3.7275391Q-27.511719 -2.5644531 -27.511719 -0.34960938Q-27.511719 1.859375 -28.288086 3.0224609Q-29.064453 4.1855469 -30.535156 4.1855469Q-32.005859 4.1855469 -32.782227 3.0224609Q-33.558594 1.859375 -33.558594 -0.34960938Q-33.558594 -2.5644531 -32.782227 -3.7275391Q-32.005859 -4.890625 -30.535156 -4.890625ZM-25.308594 2.5273438L-24.072266 2.5273438L-24.072266 3.5351562L-25.033203 5.4101562L-25.789062 5.4101562L-25.308594 3.5351562L-25.308594 2.5273438ZM-19.085938 -3.953125Q-20 -3.953125 -20.459961 -3.0537109Q-20.919922 -2.1542969 -20.919922 -0.34960938Q-20.919922 1.4492188 -20.459961 2.3486328Q-20 3.2480469 -19.085938 3.2480469Q-18.166016 3.2480469 -17.706055 2.3486328Q-17.246094 1.4492188 -17.246094 -0.34960938Q-17.246094 -2.1542969 -17.706055 -3.0537109Q-18.166016 -3.953125 -19.085938 -3.953125ZM-19.085938 -4.890625Q-17.615234 -4.890625 -16.838867 -3.7275391Q-16.0625 -2.5644531 -16.0625 -0.34960938Q-16.0625 1.859375 -16.838867 3.0224609Q-17.615234 4.1855469 -19.085938 4.1855469Q-20.556641 4.1855469 -21.333008 3.0224609Q-22.109375 1.859375 -22.109375 -0.34960938Q-22.109375 -2.5644531 -21.333008 -3.7275391Q-20.556641 -4.890625 -19.085938 -4.890625ZM-11.451172 -3.953125Q-12.365234 -3.953125 -12.825195 -3.0537109Q-13.285156 -2.1542969 -13.285156 -0.34960938Q-13.285156 1.4492188 -12.825195 2.3486328Q-12.365234 3.2480469 -11.451172 3.2480469Q-10.53125 3.2480469 -10.071289 2.3486328Q-9.6113281 1.4492188 -9.6113281 -0.34960938Q-9.6113281 -2.1542969 -10.071289 -3.0537109Q-10.53125 -3.953125 -11.451172 -3.953125ZM-11.451172 -4.890625Q-9.9804688 -4.890625 -9.2041016 -3.7275391Q-8.4277344 -2.5644531 -8.4277344 -0.34960938Q-8.4277344 1.859375 -9.2041016 3.0224609Q-9.9804688 4.1855469 -11.451172 4.1855469Q-12.921875 4.1855469 -13.698242 3.0224609Q-14.474609 1.859375 -14.474609 -0.34960938Q-14.474609 -2.5644531 -13.698242 -3.7275391Q-12.921875 -4.890625 -11.451172 -4.890625ZM-3.8164062 -3.953125Q-4.7304688 -3.953125 -5.1904297 -3.0537109Q-5.6503906 -2.1542969 -5.6503906 -0.34960938Q-5.6503906 1.4492188 -5.1904297 2.3486328Q-4.7304688 3.2480469 -3.8164062 3.2480469Q-2.8964844 3.2480469 -2.4365234 2.3486328Q-1.9765625 1.4492188 -1.9765625 -0.34960938Q-1.9765625 -2.1542969 -2.4365234 -3.0537109Q-2.8964844 -3.953125 -3.8164062 -3.953125ZM-3.8164062 -4.890625Q-2.3457031 -4.890625 -1.5693359 -3.7275391Q-0.79296875 -2.5644531 -0.79296875 -0.34960938Q-0.79296875 1.859375 -1.5693359 3.0224609Q-2.3457031 4.1855469 -3.8164062 4.1855469Q-5.2871094 4.1855469 -6.0634766 3.0224609Q-6.8398438 1.859375 -6.8398438 -0.34960938Q-6.8398438 -2.5644531 -6.0634766 -3.7275391Q-5.2871094 -4.890625 -3.8164062 -4.890625Z"/>
	</g>
	<clipPath id="cl_250">
		<rect x="78.389999" y="34.400002" width="921.60999" height="514.79999"/>
	</clipPath>
	<g clip-path="url(#cl_250)">
		<path fill="#2563EB" d="M142.90269 548.70001L474.68231 548.70001L474.68231 549.14856L142.90269 549.14856L142.90269 548.70001Z"/>
	</g>
	<clipPath id="cl_251">
		<rect x="78.389999" y="34.400002" width="921.60999" height="514.79999"/>
	</clipPath>
	<g clip-path="url(#cl_251)">
		<path fill="#16A34A" d="M603.7077 74.399963L935.4873 74.399963L935.4873 548.70001L603.7077 548.70001L603.7077 74.399963Z"/>
	</g>
</svg>
